<svg version="1.2" xmlns="http://www.w3.org/2000/svg" viewBox="0 0 2048 2048" width="300" height="300">
	<title>hand logo vetor-svg-svg</title>
	<style>
		.s0 { fill: #020202 } 
	</style>
	<path id="Path 0" fill-rule="evenodd" class="s0" d="m738 1763.6c22.7 0.3 49.9 1.2 60.5 1.9 10.7 0.9 22 2.1 25 2.8 3.1 0.7 6.7 1.7 8.1 2.2 1.2 0.4 2.3 2.1 2.3 3.6 0 1.6-2.1 4.5-4.4 6.7-2.5 2.1-7.6 6-11.5 8.6-3.8 2.5-7.1 5.1-7.2 5.8-0.3 0.6-1.3 1.1-2.1 1.1-1 0-3.6 1.6-6 3.5-2.2 1.9-5.3 3.9-6.5 4.2-1.4 0.4-2.5 1.4-2.5 2 0 0.7-1.3 1.4-2.8 1.4-1.5 0-2.8 0.4-2.8 1 0 0.7-1.3 1.8-3.2 2.6-1.6 0.9-10.5 5.5-19.7 10.2-9.1 4.7-17.4 8.4-18.3 8.4-0.9 0-2.9 0.6-4.1 1.3-1.4 0.7-4.1 1.8-6 2.6-1.9 0.9-6 2.2-9 3.2-3.1 1-6.1 2.4-6.8 2.9-0.9 0.6-3.2 1.1-5.3 1.1-2.1 0-4.2 0.7-4.6 1.4-0.4 0.7-3 1.4-5.9 1.4-3 0-5.9 0.6-6.6 1.3-0.8 0.7-4.8 1.6-9 2-4.1 0.6-14.8 1.4-23.6 2.1-8.7 0.7-26.5 0.9-39.4 0.4-12.7-0.5-23.6-1.3-23.8-2-0.3-0.6-3.6-1-7.5-1-3.8 0-7.2-0.7-7.7-1.4-0.4-0.7-3-1.7-5.8-1.9-2.9-0.5-7.1-1-9.4-1.6-2.2-0.5-5.4-1.4-7-2.1-1.5-0.5-5.5-1.9-9-2.9-3.5-0.9-6.9-2.2-7.6-2.9-0.7-0.7-2.8-1.1-4.5-1.1-1.8 0-3.2-0.7-3.2-1.4 0-0.7-0.9-1.4-2-1.4-1.1 0-3.6-0.9-5.6-2-2.1-1.3-3.5-3.4-3.5-5.2 0-2.2 2.3-4.6 7-7.9 3.7-2.6 7.9-4.8 9.3-5 1.4-0.1 4.4-1 6.6-1.9 2.4-1 6.4-2.7 9.1-3.9 2.6-1.1 6.3-2.8 8.3-3.5 1.9-0.8 4.6-1.9 6-2.6 1.2-0.7 3.3-1.3 4.4-1.3 1.1 0 3.2-0.5 4.6-1.2 1.2-0.7 4-2 6.2-2.8 2.1-0.8 5.4-2.2 7.7-3 2-0.9 4.8-2.1 6.2-2.8 1.2-0.7 3.6-1.3 5.1-1.3 1.6 0 3.1-0.7 3.5-1.4 0.4-0.6 2.2-1.3 4.2-1.3 1.9 0 3.7-0.7 4.1-1.4 0.4-0.7 2.2-1.4 4.2-1.4 1.9 0 3.7-0.7 4.1-1.4 0.5-0.7 2.7-1.4 4.9-1.4 2.4 0 4.4-0.7 4.9-1.4 0.4-0.7 2.7-1.6 5.2-2.1 2.4-0.2 6.7-0.9 9.3-1.4 2.7-0.5 6.1-1.3 7.7-2 1.5-0.7 5.2-1.6 8.3-2.1 3-0.4 10-1.4 15.3-2.1 5.4-0.8 9.9-1.7 10.2-2.1 0.4-0.4 19.2-0.5 41.6-0.1zm549-2.5c13.7 0.1 29.7 1 35.4 1.7 5.6 0.8 13.4 2 17.3 2.9 3.8 0.8 10 2 13.9 2.9 3.7 0.8 9 1.8 11.4 2.2 2.5 0.3 4.8 1.2 5.2 1.9 0.4 0.9 2.4 1.4 4.5 1.4 2.2 0 5.7 0.6 8 1.3 2.4 0.8 7 2.1 10.4 2.9 3.5 1 7.4 2.2 8.6 2.9 1.4 0.7 4.1 1.3 6 1.3 1.9 0 3.7 0.7 4.2 1.3 0.4 0.9 2.2 1.4 4.1 1.4 2 0 3.8 0.7 4.2 1.4 0.4 0.9 2.2 1.4 4.1 1.4 2 0 4.6 0.6 5.9 1.3 1.4 0.6 5.2 2 8.7 3 3.5 1 7 2.2 7.6 2.9 0.7 0.7 3.1 1.1 5.2 1.1 2.2 0 4.1 0.7 4.6 1.4 0.4 0.9 2.5 1.4 4.8 1.4 2.4 0 4.5 0.7 4.9 1.4 0.4 0.8 2.5 1.4 4.8 1.4 2.4 0 4.5 0.7 4.9 1.4 0.4 0.8 2.5 1.4 4.8 1.4 2.4 0 4.5 0.7 4.9 1.3 0.4 0.9 2.2 1.4 4.2 1.4 1.9 0 3.7 0.7 4.1 1.4 0.4 0.9 1.8 1.4 3.1 1.4 1.4-0.1 3.4 1 4.6 2.2 1.9 2.1 1.6 2.7-2.1 5.6-2.4 1.8-5 3.3-6 3.3-0.8 0-3.9 1.3-6.5 2.8-2.6 1.5-6.1 2.8-7.6 2.8-1.6 0-3.1 0.7-3.5 1.3-0.4 0.9-2.2 1.4-4.2 1.4-1.9 0-3.7 0.7-4.1 1.4-0.5 0.9-3 1.4-5.6 1.4-2.6 0-5.1 0.7-5.5 1.4-0.5 0.8-3.1 1.7-5.9 1.9-2.9 0.5-8.7 1.4-12.9 2.3-4.1 0.8-11.3 2-15.9 2.9-4.6 0.7-17.4 1.9-28.5 2.6-12.3 0.8-26.8 0.8-37.4 0-9.6-0.7-20.4-1.7-24.3-2.2-3.8-0.4-7.7-1.4-8.3-2.1-0.7-0.7-3.8-1.2-6.6-1.2-2.9 0-5.5-0.6-5.9-1.4-0.5-0.7-2.3-1.4-4.2-1.4-1.9 0-3.7-0.6-4.2-1.4-0.4-0.7-1.9-1.4-3.4-1.4-1.6 0-3.9-0.5-5.2-1.2-1.3-0.7-4-1.8-5.9-2.5-2-0.9-6.1-2.8-9.3-4.5-3.4-1.5-7-2.9-8.1-2.9-1.1 0-2.1-0.5-2.1-1.4 0-0.7-1.2-1.4-2.7-1.4-1.6 0-2.8-0.5-2.8-1.4 0-0.6-1-1.3-2.1-1.3-1.1 0-3.5-0.9-5.1-1.7-1.7-1-3.9-2.6-4.9-3.5-0.9-0.9-3-2.1-4.6-2.5-1.5-0.4-2.7-1.2-2.7-2.1 0-0.6-0.9-1.3-1.7-1.3-1 0-3.2-1.3-4.9-2.8-1.8-1.5-3.6-2.8-4.1-2.8-0.7 0-3.3-1.9-6-4.2-2.6-2.2-5.3-4.1-5.8-4.1-0.7 0-3.1-1.7-5.4-3.8-2.4-2.2-5.9-5.2-7.7-6.9-1.8-1.8-3.3-3.7-3.3-4.6 0-0.7 2.4-2.3 5.1-3.7 3-1.3 7.8-2.8 10.9-3.5 3-0.6 10.8-2.1 17.3-3.3 6.5-1.3 14.6-2.7 18.1-3.2 3.4-0.6 17.4-0.9 31.2-0.7zm233.8-72.2c7.2 0.3 20.1 1.1 28.4 1.8 8.4 0.7 19 2 23.6 2.8 4.6 0.8 11.4 2 15.1 2.6 3.7 0.6 7 1.4 7.3 2.1 0.2 0.6 3 1 6.1 1 3 0 5.8 0.7 6.2 1.4 0.4 0.8 2.9 1.4 5.6 1.4 2.6 0 5.1 0.7 5.5 1.4 0.4 0.8 3.2 1.4 6.3 1.4 3 0 5.8 0.6 6.2 1.3 0.4 0.9 3.2 1.4 6.2 1.4 3.1 0 5.9 0.7 6.3 1.4 0.4 0.8 2.5 1.4 4.8 1.4 2.4 0 4.5 0.7 4.9 1.4 0.4 0.8 2.4 1.4 4.6 1.4 2.1 0 5.1 1.2 6.9 2.8 1.7 1.5 3.1 3.4 3.1 4.1 0 0.8-2.1 3.3-4.5 5.7-2.5 2.4-6.2 5-8.4 5.8-2.1 1-3.8 2.1-3.8 2.8 0 0.6-1.2 1-2.8 1-1.5 0-2.7 0.4-2.7 1.1 0 0.5-4.2 3-9.3 5.4-5.3 2.5-10.3 4.6-11.1 4.6-1 0-1.8 0.7-1.8 1.4 0 0.8-1.3 1.4-2.8 1.4-1.5 0-3.1 0.6-3.5 1.3-0.4 0.9-2.2 1.4-4.1 1.4-2 0-3.8 0.7-4.2 1.4-0.4 0.8-2.2 1.4-4.2 1.4-1.9 0-3.7 0.7-4.1 1.4-0.4 0.8-2.2 1.4-4.2 1.4-1.9 0-3.7 0.7-4.2 1.4-0.4 0.8-2.2 1.4-4.1 1.4-2 0-3.8 0.6-4.2 1.3-0.4 0.9-2.8 1.4-5.3 1.4-2.4 0-5.1 0.6-5.8 1.3-0.8 0.7-4.4 1.6-8.3 2.2-3.8 0.6-22.5 1.2-41.6 1.4-19.2 0.1-35.8-0.2-37.1-0.8-1.4-0.7-5.1-1.7-8.3-2.1-3.3-0.4-8.3-1.1-11.1-1.4-2.9-0.3-5.6-1.1-6-2-0.4-0.7-2.2-1.3-4.1-1.3-2 0-3.8-0.6-4.2-1.4-0.4-0.7-3.3-1.4-6.5-1.4-3.8 0.1-6.7-0.7-8.1-2.1-1.1-1.3-3.9-3.2-6.2-4.3-2.4-1.1-4.9-1.9-5.6-1.9-0.7 0-2.9-1.3-4.8-2.8-2-1.5-4.9-2.8-6.5-2.8-1.8 0-4.3-1.1-5.6-2.5-1.4-1.2-4.7-3.9-7.3-5.8-2.7-1.8-6-4.6-7.4-6.3-1.4-1.5-2.5-3.3-2.5-4.1 0-0.7 1.1-2.4 2.5-3.6 1.4-1.3 4.9-3.2 7.6-4.5 2.9-1.2 7.7-3.3 10.4-4.6 3-1.2 6.3-2.6 7.4-3.1 1.1-0.6 6.8-2.5 12.5-4.3 5.7-1.7 11.6-3.8 13.2-4.4 1.5-0.5 5-1.3 7.6-1.9 2.6-0.4 8.6-1.4 13.2-2.2 4.6-0.7 10.8-1.7 13.9-2.1 3-0.4 6.8-1.2 8.3-2.1 1.5-0.7 6.5-1.8 11.1-2.5 4.6-0.7 14.3-0.9 21.5-0.7zm-998.4-0.2c16 0.4 32.9 0.9 37.5 1.5 4.6 0.4 9.6 1.4 11.1 2.1 1.5 0.7 5 1.5 7.6 1.9 2.7 0.3 7.6 1.4 11.1 2.2 3.5 0.9 8.3 1.8 10.8 2.2 2.4 0.3 4.8 1.2 5.2 2 0.4 0.7 2.2 1.4 4.1 1.4 2 0 3.8 0.5 4.2 1.4 0.4 0.7 2.2 1.4 4.2 1.4 1.9 0 3.7 0.5 4.1 1.3 0.4 0.7 2.2 1.4 4.2 1.4 1.9 0 3.5 0.6 3.5 1.4 0 0.7 1.2 1.4 2.7 1.4 1.6 0 3.9 0.6 5.3 1.3 1.3 0.6 5.7 2.7 9.7 4.5 6.1 2.7 7.2 3.8 7.2 6.7-0.1 1.9-1.6 4.8-3.9 6.5-2 1.8-4.1 3.2-4.7 3.2-0.7 0-2.5 1.3-4.1 2.8-1.8 1.5-4.1 2.8-4.9 2.8-1 0-1.8 0.4-1.8 0.9 0.1 0.7-5.4 3.9-12.1 7.2-6.6 3.4-13.7 6.7-15.6 7.4-2 0.8-4.6 1.9-5.9 2.6-1.4 0.7-3.7 1.3-5.2 1.3-1.6 0-2.8 0.5-2.8 1.4 0 0.7-1.7 1.6-3.8 1.9-2.2 0.3-6.4 1.4-9.4 2.2-3.1 0.9-8.1 2.3-11.1 2.9-3.1 0.9-7.8 1.8-10.4 2.1-2.6 0.4-6.1 1.3-7.6 2-1.6 0.7-7.1 1.6-12.5 2.2-5.3 0.4-18.5 1-29.2 1-10.7 0-24.7-0.7-31.2-1.6-6.5-0.8-14.6-1.9-18-2.5-3.5-0.4-7-1.4-7.7-2-0.7-0.7-3-1.3-5.1-1.3-2.2 0-5.3-0.5-6.9-1.2-1.8-0.7-6-2.1-9.5-3.1-3.4-1-6.9-2.2-7.6-2.9-0.7-0.7-2.8-1.1-4.4-1.1-1.8 0-3.2-0.7-3.2-1.4 0-0.8-1.3-1.4-2.8-1.4-1.5 0-5-1.2-7.6-2.8-2.7-1.5-5.9-2.7-7-2.7-1.1 0-2.1-0.7-2.1-1.4 0-0.9-1.2-1.4-2.7-1.4-1.6 0-2.9-0.6-3.1-1.1-0.3-0.6-4.1-2.9-8.7-5.2-4.6-2.2-10-5.8-12.1-7.9-2.2-2.2-3.6-4.8-3.2-5.9 0.4-1.2 1.7-2.1 2.8-2.1 1.1 0 2.1-0.7 2.1-1.4 0-0.8 0.9-1.4 2-1.4 1.2 0 4.8-1.2 8.1-2.8 3.2-1.5 6.7-2.7 7.6-2.7 0.9 0 4-1.3 7-2.7 2.7-1.4 7.9-3.5 11.3-4.4 3.5-1 6.8-2.2 7.7-2.9 0.7-0.6 3-1.1 5.1-1.1 2.1 0 4.2-0.7 4.6-1.4 0.4-0.9 2.6-1.4 4.8-1.4 2.4 0 4.5-0.7 4.9-1.4 0.4-0.8 2.8-1.7 5.3-2 2.3-0.4 7.6-1.3 11.4-2.2 3.8-0.8 10.1-2.1 13.8-2.9 3.9-0.7 11.3-1.8 16.5-2.3 5.2-0.6 9.9-1.6 10.3-2.1 0.6-0.7 14-0.9 30.1-0.4zm844.4-114.4c2.9 0 4.5 1 5.7 3.2 0.8 1.7 1.2 5.3 0.8 7.9-0.6 2.7-1.5 8.9-2.2 13.9-0.7 5-2.4 12.9-3.5 17.8-1.3 4.7-2.9 9.8-3.6 11.3-0.7 1.6-2.1 4.1-2.8 5.6-0.7 1.5-1.4 3.6-1.4 4.4 0 1-2.9 7.8-6.6 15-3.6 7.2-8.2 15.4-10 18-2 2.7-5 6.7-7 9.1-1.9 2.2-9.4 10-16.6 17.3-7.2 7.2-15.4 14.9-18.1 16.9-2.6 2.1-5.6 3.9-6.5 3.9-0.9 0-1.8 0.4-1.8 1.1 0 0.6-1.6 2-3.7 3.1-2.2 1.1-4.2 2.3-4.6 2.8-0.4 0.4-2.1 1.5-3.8 2.5-1.8 0.8-4.1 1.6-5.2 1.6-1.1 0-2.1 0.7-2.1 1.4 0 0.7-1.3 1.4-2.8 1.4-1.5 0-3 0.7-3.4 1.4-0.5 0.7-2.3 1.4-4.2 1.4-2 0-3.5 0.7-3.5 1.4 0 0.7-1.5 1.4-3.4 1.4-2 0-3.8 0.6-4.2 1.3-0.4 0.7-2.2 1.4-4.2 1.4-1.9 0-3.7 0.7-4.1 1.4-0.5 0.7-2.5 1.4-4.9 1.4-2.4 0-4.4 0.7-4.9 1.4-0.4 0.7-2.9 1.4-5.5 1.4-2.6 0-5.1 0.4-5.4 1.1-0.3 0.5-2.4 1.4-4.5 1.9-2.2 0.6-6.8 1.6-10.2 2.4-3.5 0.7-8.8 2.1-11.8 2.9-3.1 0.8-7.8 2.1-10.4 2.8-2.7 0.7-6.7 1.6-9 2.1-2.4 0.5-5.5 1.3-7 2-1.5 0.7-4.6 1.6-6.9 2-2.4 0.4-7.2 1.4-11.1 2.2-3.8 0.8-8.8 1.8-11.1 2.2-2.4 0.4-5.4 1.3-7 2-1.5 0.7-5 1.5-7.6 2-2.6 0.5-6.9 1.2-9.3 1.4-2.5 0.5-4.8 1.4-5.3 2.1-0.4 0.7-3.2 1.4-6.2 1.4-3.1 0-5.8 0.7-6.2 1.4-0.5 0.7-2.4 1.4-4.5 1.4-2.2 0-6.1 0.7-8.7 1.5-2.7 1-6.4 2.2-8.4 2.9-3.1 1.1-3.3 1.4-1.1 3.6 1.3 1.3 4.6 3.4 7.3 4.5 2.7 1.1 5.4 3.2 5.6 4.5 0.5 1.3 1.7 2.4 2.8 2.4 1.1 0 2.9 0.6 3.9 1.4 0.8 0.7 9.3 6.4 18.7 12.5 9.3 6.1 17.2 11.1 17.7 11.1 0.4 0 2 1.2 3.8 2.8 1.7 1.5 3.9 2.7 4.9 2.7 0.8 0 1.7 0.7 1.7 1.4 0 0.7 0.7 1.4 1.3 1.4 0.7 0 5.2 2.5 9.8 5.6 4.5 3 9 5.5 9.7 5.5 0.7 0 1.4 0.4 1.4 1.1-0.2 0.6 1.8 2 4.1 3.1 2.4 1.1 4.3 2.5 4.2 3.2 0 0.5 0.7 0.9 1.4 0.9 0.7 0 5.1 2.5 9.7 5.6 4.6 3 9 5.5 9.7 5.5 0.7 0 1.4 0.7 1.4 1.4 0 0.7 0.7 1.4 1.4 1.4 0.7 0 7.1 3.9 14 8.8 7.1 4.7 13.7 9.3 15 9.9 1.2 0.7 2.5 1.7 2.9 2.1 0.4 0.4 2.1 1.6 3.9 2.5 1.6 0.9 3.9 1.7 4.8 1.7 0.9 0 2.9 1.4 4.6 3 1.5 1.8 5.8 5.3 9.3 7.8 3.6 2.4 6.9 5.6 7.5 6.9 0.6 1.7-0.8 3.9-5.3 8-3.4 3-8.3 7.2-10.9 9.3-2.7 2-6.6 4.1-8.6 4.5-2.3 0.5-6-0.2-8.4-1.4-2.5-1.2-5-2-5.5-2-0.7 0-2.5-1.3-4.2-2.8-1.8-1.5-4-2.8-4.8-2.8-1 0-1.8-0.7-1.8-1.4 0-0.7-1.1-1.4-2.4-1.4-1.4 0-3.5-1.2-4.6-2.7-1.1-1.6-3.2-2.8-4.4-2.8-1.4 0-2.5-0.7-2.5-1.4 0-0.7-0.8-1.4-1.7-1.4-0.9 0-3-1.1-4.6-2.3-1.5-1.4-4.4-3.5-6.6-4.6-2.1-1.1-3.8-2.5-3.8-3.1 0-0.7-1.1-1.1-2.3-1.1-1.4 0-3.5-1.2-4.6-2.8-1.1-1.5-3.2-2.7-4.4-2.7-1.4 0-2.5-0.5-2.5-1 0.1-0.7-1.8-2.1-4.2-3.2-2.4-1.1-4.3-2.5-4.2-3.1 0-0.6-0.8-1.1-1.6-1.1-1 0-3.2-1.2-4.9-2.7-1.8-1.6-3.6-2.8-4.1-2.8-0.7 0-2.4-1.1-3.9-2.4-1.6-1.4-4.5-3.4-6.7-4.6-2.1-1.1-3.7-2.4-3.7-3 0-0.7-1-1.1-2.1-1.1-1.1 0-3.5-1.3-5.2-2.8-1.8-1.5-4-2.8-4.8-2.8-1 0-1.8-0.7-1.8-1.4 0-0.6-0.8-1.3-1.7-1.3-1 0-3-1.1-4.6-2.4-1.5-1.4-4.4-3.5-6.6-4.6-2.1-1.1-3.8-2.5-3.8-3 0-0.7-1.2-1.1-2.7-1.1-1.6 0-2.8-0.5-2.8-1 0-0.7-1.7-2.1-3.8-3.2-2.2-1.1-5.1-3.2-6.6-4.6-1.5-1.2-3.6-2.3-4.5-2.3-0.9 0-1.8-0.5-1.8-1 0-0.7-1.6-2.1-3.7-3.2-2.2-1.1-4.9-3.2-6-4.4-1.1-1.3-2.9-2.4-3.7-2.5-1 0-3.2-1.3-4.9-2.8-1.8-1.5-4-2.8-4.8-2.8-1 0-1.8-0.4-1.8-1 0-0.7-1.7-2-3.8-3.2-2.2-1.1-4.8-3-6-4.1-1.1-1.1-3.7-3.1-5.9-4.2-2.1-1.1-3.8-2.5-3.8-3.2 0-0.5-0.8-0.9-1.6-0.9-1 0-3.9-2-6.3-4.2-2.5-2.4-5.5-4.2-6.6-4.2-1.1 0-2.1 0.7-2.1 1.4 0 0.7-0.9 1.4-1.7 1.4-1 0-3.2 1.3-4.8 2.8-1.8 1.5-3.9 2.8-4.6 2.8-0.7 0-2.8 1.2-4.5 2.7-1.8 1.6-4 2.8-4.8 2.8-1 0-1.8 0.7-1.8 1.4 0 0.7-0.9 1.4-1.7 1.4-1 0-3 1.1-4.6 2.3-1.5 1.4-4.4 3.5-6.6 4.6-2.1 1.1-3.8 2.5-3.8 3.1 0 0.7-0.9 1.1-2.1 1.1-1.1 0-3.4 1.2-5.1 2.8-1.8 1.5-4 2.7-4.8 2.7-1 0-1.8 0.5-1.8 1 0.1 0.7-1.9 2.1-4.2 3.2-2.4 1.1-4.3 2.5-4.2 3.2 0 0.5-0.8 1-1.6 1-1 0-3.2 1.2-4.9 2.7-1.8 1.6-3.9 2.8-4.6 2.8-0.7 0-2.8 1.3-4.4 2.8-1.8 1.5-4 2.8-4.9 2.8-0.9 0-1.8 0.7-1.8 1.3 0 0.7-0.8 1.4-1.6 1.4-1 0-3.1 1.1-4.6 2.4-1.7 1.4-4.7 3.6-7 5-2.3 1.4-5.2 2.8-6.5 3.2-1.4 0.3-2.5 1.2-2.5 1.9 0 0.7-0.8 1.4-1.6 1.4-1 0-3.2 1.3-4.9 2.8-1.8 1.5-4.2 2.8-5.3 2.8-1.1 0-2.1 0.7-2.1 1.3 0 0.7-0.8 1.4-1.6 1.4-1 0-3.2 1.3-4.9 2.8-1.8 1.5-3.6 2.8-4.1 2.8-0.7 0-2.4 1.1-3.9 2.3-1.5 1.4-4.5 3.5-6.7 4.6-2.1 1.1-3.7 2.5-3.7 3.2 0 0.6-1.3 1-2.8 1-1.5 0-2.8 0.7-2.8 1.4 0 0.7-0.8 1.4-1.6 1.4-1 0-3.8 1.5-6 3.4-2.2 2-5.3 3.9-6.5 4.2-1.4 0.4-2.5 1.4-2.5 2.1 0 0.7-1.3 1.4-2.8 1.4-1.5 0-2.8 0.4-2.8 1.1 0.2 0.5-1.8 1.9-4.1 3-2.4 1.1-4.3 2.5-4.2 3.2 0 0.6-1.3 1-2.8 1-1.5 0-2.8 0.4-2.8 1.1 0 0.6-1.6 1.9-3.7 3.1-2.2 1.1-4.2 2.3-4.6 2.7-0.4 0.4-3.5 2.2-6.9 4.1-3.5 1.9-6.5 3.7-7 4.3-0.4 0.4-4.1 2.5-8.3 4.4-4.1 1.9-9.3 3.9-11.4 4.4-2.2 0.4-4.1 0.2-4.5-0.5-0.5-0.7-2-1.4-3.5-1.4-1.5 0-2.8-0.7-2.8-1.4 0-0.7-0.8-1.4-1.7-1.4-0.9 0-3.4-1.6-5.5-3.7-2.1-2.3-3.9-5-3.9-6.3 0-1.4 2-5.1 4.2-8.3 2.3-3.3 6.2-7.2 8.7-8.9 2.4-1.6 11.7-7.6 20.4-13.3 8.8-5.7 16.9-11.2 18.1-12.4 1.1-1.1 5.8-4.9 10.4-8.7 4.5-3.7 13.3-9 19.4-11.9 6.1-2.8 14.3-7.9 18-11.4 3.9-3.3 9.9-8.2 13.6-10.6 3.6-2.4 6.8-4.4 7.2-4.4 0.5 0 2.1-1.2 3.9-2.8 1.7-1.5 3.9-2.7 4.9-2.7 0.8 0 1.6-0.7 1.6-1.4 0-0.7 0.9-1.4 1.9-1.4 0.8 0 3.8-2 6.5-4.2 2.6-2.2 5.2-4.1 5.9-4.1 0.6 0 4.8-2.5 9.3-5.6 4.6-3 8.8-5.5 9.5-5.5 0.5 0 2.2-1.2 3.7-2.4 1.7-1.4 4.7-3.6 7-5 2.3-1.4 6.5-3.5 9.4-4.9 2.8-1.2 5.1-2.7 5.1-3.4 0-0.6 1.3-1 2.8-1 1.5 0 2.8-0.7 2.8-1.4 0-0.7 1.2-1.4 2.8-1.4 1.5 0 2.7-0.7 2.7-1.4 0-0.6-0.8-1.8-1.6-2.3-1-0.6-4.9-1.5-8.8-2.2-3.7-0.6-10-1.7-13.9-2.4-3.7-0.7-10.4-1.9-14.5-2.8-4.2-0.8-10.2-1.8-13.2-2.2-3.1-0.4-6.8-1.2-8.3-1.9-1.6-0.7-5.3-1.6-8.4-2-3-0.4-9.1-1.4-13.4-2.2-4.5-0.7-11.4-1.9-15.3-2.8-4-0.7-10.8-1.9-15-2.7-4.1-0.9-10.4-2.1-13.8-2.8-3.5-0.7-9.3-2-13.2-2.8-3.8-0.8-9.7-2.1-13.2-2.9-3.5-0.8-8.3-1.7-10.7-2.1-2.5-0.3-4.8-1.2-5.3-1.9-0.4-0.7-1.9-1.4-3.4-1.4-1.6 0-3.9-0.6-5.2-1.3-1.4-0.7-4.4-1.9-6.6-2.9-2.2-1-5.3-2.2-6.6-2.9-1.3-0.7-3.4-1.2-4.5-1.2-1.1 0-2.1-0.7-2.1-1.4 0-0.7-1.3-1.4-2.8-1.4-1.5 0-2.8-0.7-2.8-1.4 0-0.7-0.8-1.4-1.6-1.4-1 0-3.5-0.7-5.6-1.7-2.2-0.9-3.9-2.2-3.9-2.9 0-0.5-1.1-0.9-2.3-0.9-1.4 0-3.5-1.3-4.6-2.8-1.1-1.5-2.8-2.8-3.5-2.8-0.7 0-3.4-1.8-5.8-4.2-2.5-2.2-5-4.1-5.5-4.1-0.7 0-5.5-4.5-10.9-10.2-5.4-5.5-12-12.9-15-16.3-2.7-3.4-5.1-6.5-5.1-7.1 0-0.7-1.2-2.5-2.8-4.2-1.5-1.8-2.7-4-2.7-4.8 0-1-0.7-1.8-1.4-1.8-0.7 0-1.4-1.3-1.4-2.8 0-1.5-0.4-2.9-1-3.1-0.7-0.2-2.5-3-4.1-6.2-1.9-3.3-3.2-6.9-3.2-8 0-1.2-0.7-2.1-1.4-2.1-0.7 0-1.4-1.6-1.4-3.5 0-1.9-0.7-3.7-1.4-4.2-0.7-0.4-1.4-2.2-1.4-4.1 0-2-0.7-3.8-1.4-4.2-0.7-0.4-1.6-3-2.1-5.8-0.2-2.9-1.2-9-2-13.6-0.9-4.6-1.6-10.1-1.6-12.5 0-2.4 0.6-7.2 2.3-17.6l6.2 1c3.5 0.5 7.8 1.6 9.7 2.3 2 0.8 5 2.1 6.9 2.8 2 0.8 4.6 1.9 6 2.6 1.3 0.7 3.3 1.3 4.5 1.3 1.1 0 2 0.7 2 1.4 0 0.7 1 1.3 2.1 1.3 1.1 0 4.7 1.4 8.1 3 3.2 1.6 7.3 3.7 9.3 4.5 1.9 0.9 7 3.8 11.5 6.7 4.3 2.9 8.6 5.3 9.3 5.3 0.7 0 1.4 0.4 1.4 1.1 0 0.5 1.6 1.9 3.7 3.2 2.2 1.2 4.9 3.2 6 4.1 1.1 1.1 4.6 3.8 7.6 6.1 3.1 2.3 9.3 7.9 13.9 12.5 4.6 4.6 10.3 10.9 12.5 13.9 2.3 3.1 5 6.5 6.1 7.6 0.9 1.1 2.9 3.8 4.1 6 1.3 2.1 2.7 3.7 3.4 3.7 0.5 0 0.9 1.3 0.9 2.8 0 1.6 0.5 2.8 1.2 2.8 0.5 0 1.6 1.4 2.4 3.2 0.9 1.7 2.8 5.5 4.5 8.6 1.7 3 4.2 8.3 5.8 11.8 1.5 3.5 2.8 6.6 2.8 7.3 0 0.6 1.4 2.5 3.2 4.3 1.6 1.8 5.3 3.7 7.9 4.2 2.6 0.4 8.3 1.4 12.5 2.2 4.1 0.9 11.4 2.1 15.9 2.8 4.6 0.7 12.1 1.9 16.7 2.8 4.6 0.8 11.8 2.1 15.9 2.8 4.2 0.6 11.3 1.9 15.7 2.7 4.3 0.7 11.3 2 15.2 2.8 4 0.7 9.5 1.7 12.2 2.1 2.6 0.5 6.1 1.4 7.6 2.1 1.5 0.7 5.3 1.5 8.3 2 3.1 0.5 7.9 1.2 10.7 1.4 2.9 0.5 5.6 1.4 6 2.1 0.4 0.7 2.1 1.4 3.7 1.4 1.8 0 5.4 0.7 8.1 1.5 2.6 0.9 5.9 2.1 7.2 2.8 1.4 0.7 3.7 1.3 5.3 1.3 1.5 0 3 0.6 3.4 1.3 0.4 0.7 2.2 1.4 4.2 1.4 1.9 0 3.7 0.7 4.1 1.4 0.5 0.7 2.3 1.4 4.2 1.4 2 0 3.8 0.7 4.2 1.4 0.4 0.7 2.6 1.4 4.8 1.4 2.4 0 4.5-0.7 4.9-1.4 0.4-0.7 2.5-1.4 4.8-1.4 2.4 0 4.5-0.7 4.9-1.4 0.4-0.7 2.2-1.4 4.2-1.4 1.9 0 3.7-0.7 4.1-1.4 0.4-0.7 2.5-1.3 4.9-1.3 2.3 0 4.4-0.7 4.8-1.4 0.5-0.7 3-1.4 5.6-1.4 2.6 0 5.1-0.7 5.5-1.4 0.5-0.7 2.8-1.4 5.3-1.4 2.6 0 5.1-0.4 5.7-1 0.7-0.7 3.5-1.9 6.2-2.7 2.8-1 8.4-1.8 12.4-1.8 3.9 0 8.6-0.7 10.4-1.7 1.7-0.8 4.2-2.1 5.6-2.8 1.2-0.5 3.7-1.1 5.4-1.1 1.8 0 5.4-1 8-2.4 2.6-1.2 8.6-2.5 13.2-2.9 4.6-0.2 8.9-1.1 9.7-1.8 0.7-0.7 3.3-1.2 5.8-1.2 2.5 0 4.9-0.7 5.3-1.4 0.4-0.7 3.2-1.4 6.3-1.4 3 0 5.8-0.7 6.2-1.4 0.4-0.7 3.2-1.4 6.2-1.4 3.1 0 5.9-0.7 6.3-1.4 0.4-0.7 3-1.6 5.8-1.9 2.9-0.4 7.5-1.1 10.1-1.7 2.7-0.5 5.6-1.6 6.3-2.5 0.8-0.8 4.8-8.2 9-16.5 4.2-8.2 8.1-14.8 8.7-14.8 0.6 0 1-1.3 1-2.8 0-1.5 0.4-2.8 1.1-2.8 0.6 0 2-1.6 3.1-3.7 1.1-2.2 3.6-5.4 5.5-7.4 2-1.9 5.2-5.7 7-8.3 1.8-2.6 9.3-10.7 16.6-17.8 7.2-6.9 13.8-12.7 14.3-12.7 0.6 0 2.5-1.4 4.2-3.2 1.6-1.7 5.1-4.3 7.6-5.8 2.5-1.6 4.4-3.2 4.4-3.9 0-0.6 0.7-1 1.4-1 0.7 0 5.2-2.5 9.7-5.6 4.6-3 9.1-5.5 9.8-5.5 0.7 0 1.3-0.4 1.3-1.1 0-0.6 1.7-1.8 3.9-2.8 2.1-1 4.6-1.7 5.4-1.7 1 0 1.8-0.6 1.8-1.3 0-0.7 0.9-1.4 1.7-1.4 1 0.1 2.8-0.9 3.9-2.1 1.1-1.1 3.5-2.4 5.1-2.8 1.8-0.4 6.1-1.9 9.7-3.6 3.8-1.5 7.8-3.5 9.1-4.2 1.4-0.7 3.7-1.2 5.2-1.2 1.6 0 3.1-0.7 3.5-1.4 0.6-0.7 2.6-1.4 4.9-1.4zm-1119.8-35.4c18.7 0.3 39.3 1.1 45.8 2 6.5 0.7 15 2.1 18.7 2.9 3.9 0.8 9.4 1.9 12.5 2.4 3 0.4 6.2 1.2 6.9 1.9 0.7 0.7 3.5 1.2 6 1.2 2.4 0 4.7 0.7 5.1 1.4 0.4 0.9 2.4 1.4 4.6 1.4 2.1 0 4.5 0.4 5.1 1.1 0.7 0.7 4.2 2 7.7 2.9 3.4 1 7.7 2.5 9.7 3.2 1.9 0.9 4.7 2 6.2 2.5 1.6 0.7 7.8 3.6 13.9 6.6 6.1 3 13.6 6.9 16.7 8.7 3 1.8 9 5 13.1 7.2 4.2 2.2 8.5 3.9 9.5 3.9 0.8 0 1.6 0.4 1.6 1.1 0 0.6 5.7 5.4 12.7 10.7 6.9 5.3 18.3 14.3 25.4 19.8 6.9 5.4 13.4 9.7 14.4 9.3 0.8-0.4 1.9 0.3 2.4 1.4 0.4 1.1 1.6 2.1 2.7 2.1 1.7 0 1.8 0.7 0.7 3.9-0.9 2.6-3.6 4.8-10 8-4.8 2.4-11.5 5-15 6-3.4 1-7.6 2.4-9.3 3-1.8 0.7-5.2 1.3-7.7 1.3-2.5 0-5.2 0.6-6 1.2-0.7 0.7-5 1.7-9.6 2.3-4.5 0.4-18.6 1.1-31.2 1.5-14.7 0.4-23.4 0.1-24.3-0.8-0.7-0.9-4.7-1.4-8.6-1.4-4 0-7.6-0.7-8-1.4-0.4-0.7-2.9-1.4-5.6-1.4-2.6 0-5.1-0.7-5.5-1.4-0.4-0.7-2.1-1.4-3.8-1.4-1.8 0-5.4-0.8-8.2-1.8-2.7-0.8-5.6-2.1-6.2-2.8-0.7-0.5-2.6-0.9-4.3-0.9-1.8 0-3.2-0.7-3.2-1.4 0-0.7-1.5-1.4-3.5-1.4-1.9 0-3.7-0.7-4.1-1.4-0.4-0.7-2-1.4-3.5-1.4-1.5 0-2.8-0.7-2.8-1.4 0-0.7-1.2-1.4-2.7-1.4-1.6 0-2.8-0.6-2.8-1.3 0-0.7-1.3-1.4-2.8-1.4-1.5 0-2.8-0.4-2.8-1 0-0.7-3.2-2.6-6.9-4.6-3.9-1.9-6.9-3.9-6.9-4.4 0-0.7-1.3-1.1-2.8-1.1-1.5 0-2.8-0.4-2.8-1 0-0.7-1.9-2.4-4.4-3.9-2.5-1.5-6-4.1-7.7-5.8-1.8-1.8-3.6-3.2-4.1-3.2-0.7 0.1-4.7-3.2-9-7.2-4.5-4-10.2-9.3-12.5-11.5-2.5-2.4-8.1-8.2-12.2-13.1-4.2-4.8-8.6-10.2-9.8-11.8-1.1-1.6-3-4.1-4.4-5.7-1.4-1.5-2.5-3.2-2.5-3.7 0-0.7-1.2-2.5-2.8-4.2-1.5-1.8-2.7-5-2.7-7.3 0-3.2 0.8-4.6 3.7-5.9 2.8-1.1 14.2-1.3 37.9-1.1zm1580.9-11.8c2.5 0 5.5 0.7 7 1.7 2 1.4 2.4 2.8 1.7 5.6-0.4 2.2-2.4 5.4-4.3 7.3-1.9 2-3.5 3.9-3.5 4.5 0 0.6-1.8 2.9-3.9 5.2-2 2.4-5.4 6.4-7.2 9-1.9 2.7-5 6.7-6.9 8.9-2 2.2-6.9 7.7-11.1 11.8-4.2 4.3-12.2 11.8-17.8 16.8-5.5 5-10.8 9.3-11.8 9.6-0.9 0.4-2.9 1.8-4.4 3.2-1.5 1.4-3.6 2.5-4.6 2.5-0.8 0-1.6 0.4-1.6 0.9 0 0.7-1.7 2.1-3.8 3.2-2.2 1.1-5.1 3.2-6.7 4.6-1.5 1.3-3.6 2.4-4.5 2.4-0.9 0-1.7 0.7-1.7 1.4 0 0.7-1.2 1.3-2.8 1.3-1.5 0-2.8 0.7-2.8 1.4 0 0.7-1.2 1.4-2.7 1.4-1.6 0-2.9 0.4-3.2 1-0.2 0.7-2.9 2.5-6.3 4.2-3.2 1.8-6.8 3.1-7.9 3.1-1.1 0-2.1 0.7-2.1 1.4 0 0.7-0.9 1.4-2 1.4-1.1 0-3.4 0.7-4.9 1.4-1.5 0.7-4 2.1-5.5 2.8-1.6 0.7-3.8 1.4-4.9 1.4-1.1 0-3.2 0.5-4.6 1.2-1.2 0.7-4.6 2-7.2 2.8-2.6 0.8-6.1 1.5-7.6 1.5-1.7 0-3.5 0.6-4.2 1.3-0.8 0.7-4.6 1.6-8.3 2.2-3.8 0.5-17.9 1-31.2 1-13.4 0.1-28.1-0.6-32.6-1.3-4.6-0.7-9.3-1.8-10.4-2.2-1.2-0.4-4.3-1.1-7-1.5-2.6-0.4-6.9-1.3-9.6-1.8-2.5-0.7-4.8-1.6-5.1-2.3-0.3-0.5-3-0.9-6.1-0.9-4.7 0-5.8-0.6-7.6-4.2-1.8-3.6-1.8-4.6-0.2-7.2 1.1-1.8 4.7-5 8.1-7.4 3.2-2.2 6.9-5.2 8-6.5 1.1-1.2 2.5-2.3 3.1-2.5 0.7 0 4.4-2.5 8.3-5.5 4-3.1 8.2-6.3 9-7 1-0.8 3.4-2.2 5.3-3 1.9-1 3.5-2.2 3.5-2.8 0-0.7 1.2-1.4 2.7-1.8 1.6-0.4 3.6-1.5 4.5-2.5 1-1.1 6.8-5.1 12.9-9 6.1-4 12.3-8.2 13.9-9.3 1.5-1.3 6.2-3.9 10.4-6 4.1-1.9 8.4-4.4 9.3-5.4 0.9-1 3.2-2.2 4.8-2.6 1.8-0.4 5-1.7 7.4-2.7 2.3-0.9 7.2-3.2 11.1-4.8 3.7-1.7 9-3.9 11.4-5 2.5-1.1 5.4-2 6.2-2 1 0 4.6-0.9 8-2.2 3.5-1.2 9.3-2.8 13.2-3.6 3.8-0.7 9.5-1.9 12.5-2.6 3.1-0.7 9.3-2 13.9-2.8 4.6-0.7 12.3-1.9 17.3-2.6 5-0.6 14.6-1.8 21.5-2.7 7-0.8 13.8-1.8 15.3-2.2 1.5-0.4 7.6-0.7 13.6-0.7 5.8 0 11-0.7 11.4-1.4 0.5-0.7 2.8-1.4 5.3-1.4zm-1302.6-33.3c1.8 0 3.8 0.7 4.3 1.4 0.6 0.9 2.1 1.4 3.5 1.4 1.4 0 2.5 0.7 2.5 1.4 0 0.8 1.1 1.7 2.4 2.1 1.3 0.3 4.3 2.2 6.6 4.1 2.2 2 5 3.5 5.8 3.5 1 0 1.9 0.4 1.9 1.1 0 0.6 1.6 2 3.7 3.2 2.2 1.4 7.6 5.7 12.2 9.7 4.6 4.2 13.6 12.8 20.1 19.3 6.5 6.5 14.2 14.4 17.1 17.8 2.8 3.2 5.1 6.2 5.1 6.9 0 0.6 1.1 2.2 2.5 3.8 1.4 1.5 4.3 5.5 6.7 9 2.2 3.5 6.8 11.9 10.1 18.7 3.3 7 6.5 13.9 7.2 15.7 0.7 1.7 2 4.7 2.8 6.9 0.8 2.1 2.1 4.9 2.8 6.3 0.7 1.2 1.2 3.6 1.2 5.1 0 1.5 0.7 3.1 1.4 3.5 0.7 0.4 1.4 1.9 1.4 3.4 0 1.6 0.6 3.9 1.3 5.3 0.6 1.3 1.9 4.2 2.9 6.5 0.9 2.4 2.2 5.3 2.9 6.7 0.7 1.3 1.2 3.9 1.2 5.8 0 2 0.4 3.5 1 3.5 0.7 0 1.9 2.1 2.9 4.4 1.1 2.5 3.1 7.1 4.5 10.2 1.2 3 3.1 7.2 4 9.4 0.8 2.1 1.5 6 1.5 8.6 0 4.2-0.5 5-3.9 5.7-2.1 0.6-4.8 0.3-6.2-0.7-1.3-0.8-3.4-1.5-4.5-1.5-1.1 0-5.5-1.8-9.7-4.2-4.1-2.3-8.6-4.1-9.7-4.1-1.1 0-2.1-0.6-2.1-1.4 0-0.7-1.2-1.4-2.7-1.4-1.6 0-3-0.4-3.2-1-0.2-0.7-4.3-3.2-9.3-5.8-5-2.5-10.4-5.4-12.1-6.3-1.8-0.8-3.2-1.9-3.2-2.5 0-0.7-1.1-1.1-2.5-1.1-1.2 0-3.3-1.2-4.4-2.8-1.1-1.5-3.1-2.7-4.2-2.7-1.1 0-3-1.3-4.2-2.8-1.1-1.5-2.9-2.8-3.8-2.8-0.9 0-9.5-7.7-19.1-17.3-9.5-9.6-17.3-18.2-17.3-19 0-1-1.2-2.8-2.8-3.9-1.5-1.1-2.8-3.1-2.8-4.2 0-1.1-1.2-3-2.7-4.1-1.6-1.2-2.8-3.2-2.8-4.5 0-1.4-0.7-2.5-1.4-2.5-0.8 0-1.4-1.2-1.4-2.8 0-1.5-0.7-2.7-1.4-2.7-0.8 0-1.4-1.3-1.4-2.8 0-1.5-0.6-4-1.3-5.6-0.9-1.5-2.1-4-2.8-5.5-0.8-1.5-1.4-4.2-1.4-5.8 0-1.8-0.6-3.9-1.3-4.6-0.6-0.7-1.6-4.2-2-7.6-0.6-3.5-1.7-11.8-2.4-18.8-0.8-6.8-1.5-18.7-1.5-26.3 0-7.7 0.4-16.4 0.8-19.5 0.6-3 1.7-6.9 2.5-8.6 1-1.9 2.8-3.2 4.7-3.2zm997.3-4.8c0.8 0.3 2.1 1.5 2.8 2.8 0.5 1.1 1.1 10.6 1.1 21.2 0.1 11.8-0.4 21.1-1.6 24.5-0.9 3.1-1.3 7.5-0.9 9.8 0.4 2.5-0.2 5.2-1.3 6.9-1.1 1.5-1.9 4.2-1.9 6 0 1.6-1 6.6-2.1 11.1-1.1 4.3-3.5 11.6-5 16.2-1.5 4.6-3.9 10.3-5 12.5-1.2 2.3-2.8 5.4-3.6 6.9-0.8 1.6-2.8 5.3-4.3 8.4-1.7 3-3.2 5.8-3.6 6.2-0.4 0.4-2.4 2.9-4.2 5.5-1.9 2.7-4.4 6.2-5.5 7.7-1.1 1.4-6.8 7.3-12.6 13.2-5.9 5.6-12.7 12-15 14.3-2.4 2-4.7 3.7-5.3 3.7-0.7 0-3.3 1.9-6 4.2-2.6 2.2-5.7 4.1-6.5 4.1-1 0-1.8 0.7-1.8 1.4 0 0.8-0.8 1.4-1.7 1.4-0.9 0-3.2 1.2-4.8 2.8-1.8 1.5-4.2 2.8-5.3 2.8-1.1 0-2.1 0.4-2.1 1.1 0 0.5-1.4 1.6-3.2 2.5-1.6 0.8-8.3 4.1-14.8 7.3-6.5 3.2-12.9 6.5-14.2 7.2-1.3 0.7-3.6 1.3-5 1.3-1.3 0-3.1 0.8-4.1 1.8-1.3 1.4-2.4 1.4-5.2 0-2.5-1.4-3.4-2.9-3.4-6 0-2.2 0.8-6.6 1.8-9.7 0.8-3.1 2.1-5.5 2.8-5.5 0.5 0 0.9-1 0.9-2.1 0-1.1 0.6-3.2 1.3-4.5 0.7-1.4 1.9-4.1 2.8-6.2 0.8-2.2 2.2-5.6 3-7.6 0.8-2.3 2.1-5 2.8-6.3 0.7-1.4 1.2-3.7 1.2-5.3 0-1.5 0.7-3 1.4-3.4 0.7-0.4 1.4-2.3 1.4-4.2 0-1.9 0.7-3.7 1.4-4.2 0.7-0.4 1.4-2.2 1.4-4.1 0-2 0.7-3.8 1.4-4.2 0.7-0.4 1.4-2.2 1.4-4.1 0-2 0.6-3.8 1.3-4.2 0.7-0.4 1.4-2.2 1.4-4.2 0-1.9 0.7-3.7 1.4-4.1 0.7-0.5 1.4-1.7 1.4-2.8 0-1.1 1.3-4.7 2.8-7.9 1.5-3.4 2.8-6.8 2.8-7.7 0-0.9 0.6-1.8 1.3-1.8 0.7 0 1.4-1.2 1.4-2.7 0-1.6 0.7-2.8 1.4-2.8 0.7 0 1.4-1.3 1.4-2.8 0-1.5 0.7-2.8 1.4-2.8 0.7 0 1.7-1.1 1.9-2.3 0.5-1.4 1.8-4.3 3.2-6.7 1.4-2.2 3.6-5.1 5.2-6.4 1.3-1.2 2.5-3.1 2.5-4.1-0.2-1.1 0.9-2.9 2.2-4 1.4-1.2 5.3-5.6 8.6-9.8 3.4-4.1 10.2-11.3 15.1-15.9 4.9-4.6 10.1-9.3 11.8-10.4 1.5-1.1 4.7-3.8 7.1-5.9 2.3-2 5-3.8 5.8-3.8 1 0 1.8-0.5 1.8-1-0.1-0.7 1.8-2.1 4.2-3.2 2.3-1.1 4.3-2.5 4.1-3.1 0-0.6 1.1-1.1 2.4-1.1 1.4 0 3.5-1.2 4.6-2.7 1.1-1.6 2.5-2.8 3-2.8 0.7 0 4.9-2.5 9.5-5.4 4.5-3.1 9.1-5.3 10.1-5zm131.4-117.3c0.7 0 2.6 0.7 4.2 1.4 1.5 0.7 3.4 2.8 4.4 4.5 0.8 1.8 2.2 5.6 2.8 8.7 0.7 3.1 1.9 9 2.7 13.2 0.9 4.1 1.7 22.9 2.7 75.6l-4.5 13.9c-2.3 7.6-5 14.6-5.5 15.2-0.7 0.7-1.3 2.5-1.3 3.8 0 1.4-0.6 2.5-1.3 2.5-0.7 0-1.7 1.1-2 2.3-0.4 1.4-1.8 4.3-3.2 6.7-1.4 2.4-2.9 4.3-3.6 4.4-0.5 0.3-1 1.3-1 2.1 0 1-1.8 3.6-3.8 6-2.1 2.4-5.5 6.4-7.3 9-1.9 2.7-5.6 7.4-8.3 10.4-2.6 3.1-12.1 12.8-20.8 21.5-8.7 8.9-20.8 20.4-26.8 25.7-5.9 5.4-11.9 10.3-13.2 11-1.3 0.8-3.6 2.5-5.1 3.8-1.5 1.4-3.6 2.5-4.4 2.5-1 0-1.8 0.7-1.8 1.4 0 0.7-1.6 1.4-3.5 1.4-2.6 0-3.6-0.8-4.3-3.9-0.4-2-0.1-5.1 0.7-6.9 0.8-1.7 1.5-4.3 1.5-5.8 0-1.6 0.6-3.9 1.3-5.3 0.7-1.3 1.9-5.3 2.7-8.9 0.9-3.7 1.6-8.9 1.6-11.5 0-2.6 0.7-5.1 1.4-5.6 0.6-0.4 1.3-4 1.3-7.9 0-4 0.6-9.1 1.4-11.5 0.7-2.3 1.6-7.2 1.8-11.1 0.3-3.7 0.9-7.6 1.4-8.3 0.4-0.7 1.1-4.4 1.4-8.3 0.4-3.8 1-7.9 1.4-9 0.3-1.2 1.4-5.6 2.2-9.8 1-4.1 2.4-10.1 3.2-13.1 0.7-3.1 2.1-7.1 2.8-9.1 0.8-1.9 1.9-4.5 2.6-5.8 0.7-1.4 1.3-3.7 1.3-5.3 0-1.5 0.7-2.7 1.4-2.7 0.6 0 1.3-1.3 1.3-2.8 0-1.5 0.7-2.8 1.4-2.8 0.7 0 1.4-1.2 1.4-2.8 0-1.5 0.7-2.7 1.4-2.7 0.7 0 1.4-1.3 1.4-2.8 0-1.5 0.7-2.8 1.4-2.8 0.7 0 1.4-1.2 1.4-2.8 0-1.5 0.7-2.7 1.4-2.7 0.6 0 1.6-1.1 1.9-2.4 0.4-1.4 1.8-4.3 3.2-6.7 1.4-2.3 2.9-4.3 3.6-4.4 0.5-0.3 1-1.2 1-2.1 0-1 1.5-3.6 3.4-5.9 2-2.4 3.5-4.6 3.5-5.2 0-0.7 1.5-2.6 3.5-4.6 1.9-1.9 3.4-3.8 3.4-4.5-0.1-0.6 3.2-4.5 7.3-8.8 4-4.4 10.5-11.6 14.4-16.4 4-4.7 7.9-8.4 8.7-8.4 0.9 0 2.8-1.3 4.3-2.8 1.6-1.5 3.5-2.8 4.2-2.8zm-1250.5-1.2c0.8 0 5.7 4 10.7 9.1 5 5.3 9 9.8 9 10.2 0 0.4 2.5 3.3 5.6 6.5 3 3.3 5.5 6.5 5.5 7.3 0 0.7 0.8 2.3 1.8 3.1 1 1 3.3 4 5.1 6.7 1.8 2.6 3.8 5.1 4.2 5.5 0.4 0.4 1.5 2.1 2.5 3.8 0.8 1.8 2.5 4.5 3.5 6.2 0.8 1.8 1.9 3.5 2.3 3.9 0.4 0.4 2.8 4.7 5.3 9.7 2.5 5 4.4 9.8 4.4 10.7 0 1 0.7 1.8 1.4 1.8 0.7 0 1.4 0.8 1.4 1.7 0 0.9 1.3 4.4 2.8 7.6 1.5 3.3 2.8 6.9 2.8 8 0 1.1 0.5 3.2 1.2 4.5 0.7 1.4 2 4.7 2.8 7.3 0.8 2.7 1.5 6.3 1.5 7.9 0 1.8 0.7 3.5 1.4 3.9 0.7 0.4 1.7 2.8 2.1 5.2 0.3 2.5 1.2 8 2.1 12.2 0.8 4.1 2.1 11.1 2.9 15.2 0.7 4.2 1.9 13.2 2.8 20.1 0.7 6.8 1.9 18.8 2.6 26.4 0.8 7.6 1.8 19.9 2.2 27.1 0.4 7.2 0.4 14.5 0 16.2-0.5 2.2-1.8 3.2-4.3 3.2-2.2 0-6.2-2.6-11.4-7.2-4.4-4-9-8.3-10.1-9.5-1.1-1.1-4.3-3.7-6.9-5.6-2.7-2.1-14.5-13.2-26-24.7-11.6-11.6-21.2-21.4-21.2-22.1 0-0.6-2.5-3.8-5.6-7.2-3-3.5-5.5-6.7-5.5-7.4 0-0.5-1.3-2.3-2.8-4.1-1.5-1.7-2.8-3.9-2.8-4.9 0-0.8-0.7-1.7-1.3-1.7-0.7 0-1.4-1.2-1.4-2.7 0-1.6-0.7-2.8-1.4-2.8-0.7 0-1.4-1-1.4-2.1 0-1.1-1.3-4.3-2.8-6.9-1.5-2.7-2.8-6.1-2.8-7.7 0-1.5-0.4-3-1.1-3.3-0.5-0.3-1.5-2.6-2.1-5.1-0.5-2.7-1.8-8.2-2.6-12.4-0.8-4.1-1.5-17.3-1.4-29.1 0-11.8 0.4-25 1-29.2 0.6-4.1 1.5-8.3 2.2-9 0.7-0.7 1.3-3.4 1.3-5.9 0-2.4 0.7-4.8 1.4-5.2 0.6-0.4 1.3-2.5 1.3-4.8 0-2.4 0.7-4.2 1.4-4.2 0.7 0 1.4-1.2 1.4-2.8 0-1.5 0.6-3.9 1.3-5.2 0.7-1.3 2.7-5.6 4.5-9.6 1.7-4 4.1-7.5 5.3-7.8 1.1-0.4 2.9-0.7 3.9-0.8zm-338.3-62.9c1.1-0.4 5.6-0.3 9.7 0 4.2 0.3 8.2 1.1 9 1.8 0.7 0.7 4.1 1.3 7.3 1.3 3.3 0 6.2 0.7 6.6 1.4 0.4 0.7 3.2 1.4 6.3 1.4 3 0 5.8 0.6 6.2 1.3 0.4 0.7 2.2 1.4 4.2 1.4 1.9 0 4.5 0.6 5.8 1.3 1.4 0.7 5 1.9 8 2.8 3.1 0.9 7.1 2.3 9.1 3.1 1.9 0.9 4.5 2 5.8 2.7 1.4 0.7 3.3 1.2 4.2 1.2 0.9 0 10.5 4.3 21.2 9.7 10.7 5.5 19.7 10.3 20.1 10.9 0.4 0.5 2.1 1.8 3.7 2.7 1.9 0.9 4.6 2.5 6.3 3.5 1.7 0.8 4.3 2.8 5.8 4.2 1.7 1.2 3.5 2.3 4.3 2.5 0.7 0 2.4 1.1 3.5 2.5 1.1 1.4 3.2 3 4.4 3.7 1.3 0.7 6 4.5 10.3 8.2 4.4 3.9 13.7 12.2 20.5 18.6 7 6.4 17.5 17.6 23.5 25 6.1 7.3 12.8 15.5 15 18.1 2.2 2.7 7.3 8.9 11.5 13.9 4.3 5 7.6 9.5 7.8 10.2 0 0.5 1.3 2.9 3 5.4 1.8 2.5 4.6 6.1 6.4 8 1.8 2 4.2 5.1 5.3 7.4 1.8 3.6 1.8 3.9-2 6.3-2.1 1.4-6.5 3.1-10 3.7-3.4 0.5-16.9 1.1-29.8 1.1-13 0-27.3-0.7-31.9-1.7-4.6-0.8-10.7-1.9-13.6-2.2-2.8-0.4-5.4-1.4-5.8-2.1-0.5-0.7-2.3-1.4-4.2-1.4-1.9 0-3.5-0.7-3.5-1.4 0-0.7-1.2-1.4-2.7-1.4-1.6 0-3.9-0.5-5.3-1.2-1.3-0.7-7-3.5-12.5-6-5.6-2.5-10-5-10-5.5 0-0.7-1.2-1.1-2.8-1.1-1.5 0-2.7-0.7-2.7-1.4 0-0.7-0.9-1.4-1.9-1.4-0.8 0-2.9-1.1-4.4-2.4-1.5-1.4-4.4-3.4-6.7-4.6-2-1.1-3.7-2.4-3.7-3 0-0.7-0.8-1.1-1.8-1.1-0.8 0.1-3.6-1.7-5.8-3.8-2.4-2.2-6.4-5.4-9-7.3-2.7-2-10.6-9-17.4-16-6.9-6.8-14-14.7-16-17.3-1.9-2.7-5.1-6.7-7.3-9-2.1-2.4-3.8-4.9-3.8-5.6 0-0.7-1.2-2.3-2.7-3.5-1.6-1.1-2.8-3-2.8-4.1 0-1.1-1.3-3.1-2.8-4.2-1.5-1.1-2.8-3-2.8-4.1 0-1.2-1.2-3.1-2.7-4.2-1.6-1.1-2.8-3.2-2.8-4.4 0-1.4-0.7-2.5-1.4-2.5-0.8 0-1.7-1.2-1.9-2.4-0.4-1.4-1.8-4.3-3.2-6.7-1.4-2.3-2.9-4.3-3.6-4.4-0.6-0.3-1-1.7-1-3.2 0-1.5-0.7-2.8-1.4-2.8-0.8 0-1.4-0.9-1.4-2.1 0-1.1-0.5-3.1-1.2-4.4-0.7-1.4-2-4.3-2.9-6.7-1-2.3-2.3-5.2-3-6.5-0.6-1.4-1.2-3.7-1.2-5.2 0-1.6-0.7-3.1-1.4-3.5-0.8-0.4-1.5-3.5-1.7-6.8-0.1-4.3 0.3-6.4 1.8-6.7zm1895.8-5.2c1.3 0 3.4 0.2 4.5 0.6 1.4 0.5 2 2.7 2 7 0 3.5-0.6 7.9-1.5 10-0.9 2.2-2.3 5.7-3.3 8-1 2.4-2.2 5.6-2.6 7.2-0.5 1.8-1.6 3.2-2.3 3.2-0.7 0-1.4 0.9-1.4 1.7 0 1-1.2 4.6-2.9 8-1.6 3.5-3.3 6.6-3.9 7-0.4 0.4-2.9 4.7-5.5 9.7-2.6 5-6 10.3-7.4 11.8-1.3 1.5-2.5 3.5-2.5 4.2 0 0.6-1.2 2.3-2.7 3.4-1.6 1.1-2.8 2.8-2.8 3.5 0 0.7-2.5 4-5.6 7.2-3 3.3-5.5 6.4-5.5 6.9 0 0.7-7.6 8.5-16.9 17.5-9.5 9.2-19.2 18.3-21.5 20.6-2.5 2.2-5 4-5.6 4-0.7-0.2-3.2 1.8-5.5 4.1-2.5 2.3-5.5 4.2-6.3 4.2-1 0-2.8 1.3-3.9 2.8-1.1 1.5-3.2 2.8-4.4 2.8-1.4 0-2.5 0.7-2.5 1.3 0 0.7-1.3 1.4-2.8 1.4-1.5 0-2.9 0.5-3 1-0.3 0.7-2.9 2.5-6 4.2-3.1 1.6-6.7 3-7.9 3.2-1.4 0-2.5 0.7-2.5 1.3 0 0.7-1.3 1.4-2.8 1.4-1.5 0-2.8 0.7-2.8 1.4 0 0.7-1.5 1.4-3.4 1.4-2 0-3.8 0.7-4.2 1.4-0.4 0.7-2.5 1.4-4.8 1.4-2.4 0-4.5 0.7-4.9 1.4-0.4 0.7-2.5 1.4-4.9 1.4-2.3 0-4.4 0.7-4.8 1.4-0.4 0.6-3.2 1.6-6.3 2-3 0.4-8.1 1.1-11.3 1.6-3.4 0.4-6.7 1.3-7.4 1.9-0.7 0.6-6.7 1-13.2 1-6.5 0-13 0.7-14.5 1.5-1.8 1-3.4 1.1-4.2 0.3-0.7-0.9-4.2-1.8-7.6-2.5-4.8-0.9-6.4-1.7-6.7-3.8-0.1-1.8 2.8-5.9 8.3-11.8 4.9-5 10.3-11.2 12.2-13.8 1.8-2.7 5.6-7.1 8.4-9.8 2.7-2.6 6.5-7 8.3-9.7 1.8-2.6 5-6.3 6.9-8.3 2-1.9 5.2-5.7 7-8.3 1.8-2.7 4.3-5.8 5.5-7 1.1-1.1 4-4.5 6.3-7.6 2.3-3 12.6-14 22.9-24.3 10.2-10.4 22.2-21.6 26.3-24.9 4.2-3.5 7.8-6.7 8.1-7.4 0.1-0.6 1.1-1 1.9-1 1 0 4-1.9 6.7-4.1 2.6-2.3 5.7-4.2 6.5-4.2 1 0 1.8-0.7 1.8-1.4 0-0.7 1.2-1.4 2.8-1.4 1.5 0 2.7-0.4 2.7-1.1 0-0.5 1.4-1.6 3.2-2.3 1.7-0.9 5.6-2.8 8.6-4.5 3.1-1.6 9.6-4.7 14.6-6.9 5-2.4 11.2-4.9 13.9-5.8 2.6-1 6.1-2.3 7.6-3 1.5-0.5 5-1.6 7.6-2.3 2.7-0.9 7.7-2.2 11.1-3.2 3.5-1 7.7-2.2 9.3-2.9 1.8-0.7 4.9-1.3 7-1.3 2.2 0 4.8-0.7 5.9-1.4 1.2-0.7 3.2-1.3 4.6-1.3zm-1662.7-104.1c0.4 0 2.1 1 3.7 2.3 1.7 1.4 3.1 3.4 3.2 4.3 0 0.9 1.3 3.1 2.8 4.9 1.5 1.7 2.8 3.9 2.8 4.9 0 0.8 0.7 1.6 1.4 1.6 0.8 0 1.3 1.3 1.3 2.8 0 1.5 0.5 2.8 1.2 2.8 0.5 0 2.5 3.3 4.4 7.3 1.8 3.9 4.4 8.9 5.8 11.1 1.4 2.1 2.5 5 2.5 6.5 0 1.6 0.7 2.8 1.4 2.8 0.7 0 1.4 1.1 1.4 2.5 0 1.3 1.2 5 2.8 8.2 1.5 3.3 2.7 7.2 2.7 8.7 0 1.6 0.7 3.1 1.4 3.5 0.7 0.4 1.4 2.4 1.4 4.6 0 2.1 0.6 4.4 1.3 5.1 0.7 0.7 1.5 3.9 2.1 7 0.4 3 1.5 10.5 2.5 16.6 1.1 7 1.6 22.4 1.6 41-0.1 16.3-1 35.8-1.8 43-0.8 7.2-2.2 17.9-2.9 23.6-0.7 5.6-1.9 14.4-2.8 19.4-0.8 5-1.8 11.5-2.2 14.6-0.4 3-1.2 6.8-2.1 8.3-0.7 1.5-1.5 5-1.8 7.6-0.3 2.6-0.5 5.3-0.7 6 0 0.5-1.1 1.2-2.2 1.6-1.2 0.5-4-1.2-6.5-3.8-2.5-2.5-6.5-7-8.8-9.9-2.2-3-4.7-6.4-5.4-7.6-0.8-1.3-2.7-3.6-4.6-5.3-1.8-1.8-3.1-3.6-3.1-4.2 0-0.7-1.6-2.9-3.5-5.2-2-2.4-3.5-4.9-3.5-5.6-0.1-0.7-1.2-2.3-2.5-3.5-1.2-1.1-3.3-3.7-4.4-5.9-1.1-2.1-2.5-3.8-3.1-3.8-0.7 0-1.1-0.9-1.1-2 0-1.2-1.2-3.5-2.8-5.2-1.5-1.8-2.7-4-2.7-4.8 0-1-0.6-1.8-1.4-1.8-0.7 0-1.4-1.3-1.4-2.8 0-1.5-0.6-2.8-1.4-2.8-0.7 0-1.4-1.2-1.4-2.8 0-1.5-0.5-2.7-1.4-2.7-0.7 0-1.4-1.3-1.4-2.8 0-1.5-0.5-2.8-1.3-2.8-0.7 0-1.4-1.2-1.4-2.8 0-1.5-0.6-3-1.4-3.4-0.7-0.5-1.4-2.3-1.4-4.2 0-1.9-0.6-3.7-1.4-4.2-0.7-0.4-1.4-1.9-1.4-3.4 0-1.6-0.5-3.9-1.2-5.2-0.7-1.4-2-4.7-2.8-7.3-0.8-2.7-1.5-7.2-1.5-10 0-2.9-0.6-5.6-1.4-6-0.9-0.4-1.4-10.8-1.4-27 0-16.3 0.5-26.7 1.4-27.1 0.8-0.4 1.6-3 2.1-5.8 0.2-2.9 0.9-7.7 1.3-10.4 0.5-2.9 1.4-5.3 2.1-5.3 0.9 0 1.4-1.2 1.4-2.8 0-1.5 0.6-3.9 1.3-5.1 0.7-1.4 2.6-5.6 4.3-9.4 1.6-3.8 4.8-10.5 6.9-14.6 2.1-4.2 5.3-10.4 7.1-13.9 1.8-3.5 3.6-6.5 4-6.9 0.4-0.4 2.2-2.8 4-5.3 1.8-2.6 4.6-5.1 6.3-5.8 1.5-0.7 3.2-1.3 3.6-1.4zm1459.7-7c0.7 0 3.1 1.8 5.2 4.2 2.2 2.2 5.2 6.8 6.9 10 1.5 3.3 3.7 7.8 4.9 10.1 1.1 2.4 2.6 5.4 3.4 7 0.9 1.5 2.8 6.2 4.6 10.4 1.7 4.1 4.9 12.6 7.1 18.7 2.3 6.1 4.6 11.8 5 12.5 0.5 0.8 1.1 3.6 1.5 6.2 0.3 2.7 0.6 14.3 0.6 25.7 0.1 11.5-0.6 24-1.3 27.8-0.8 3.8-2.6 10.9-3.9 15.9-1.4 5-2.9 9.7-3.6 10.4-0.7 0.9-1.2 2.4-1.2 3.5 0 1.1-2.3 6.8-5 12.5-2.8 5.7-8.1 16.6-11.8 24.3-3.8 7.6-7.9 15.6-9.3 18-1.3 2.4-2.7 4.4-3.1 4.9-0.4 0.4-1.6 2.3-2.8 4.5-1.1 2.1-2.4 3.8-3.1 3.8-0.6 0-1 1-1 2.1 0 1.1-1.3 3.4-2.8 5.2-1.5 1.7-2.8 3.9-2.8 4.9 0 0.8-0.4 1.7-1.1 1.7-0.5 0-1.6 1.1-2.3 2.6-0.7 1.4-3.2 5-5.6 7.9-2.3 3.1-7.1 8.3-10.8 12.1-3.6 3.6-7.6 6.4-9 6.1-2-0.3-2.5-2.4-3.4-11.4-0.4-6.1-1.2-12.9-1.8-15.3-0.5-2.3-1.2-9.7-1.3-16.6-0.3-6.8-1.3-18.7-2.1-26.4-1-7.6-1.7-29.8-1.8-49.2 0-19.5 0.5-39.2 1.4-43.7 0.8-4.6 2.2-11.8 3.1-16 0.9-4.2 2.3-8.7 3-10 0.7-1.4 1.2-3.3 1.2-4.2 0-0.9 1.3-4.4 2.8-7.6 1.5-3.3 2.9-6.5 3-7.3 0-0.7 1.4-3.5 3-6.3 1.5-2.8 2.6-5.8 2.6-6.9-0.2-1.1 0.3-2.1 1.1-2.1 0.7 0 1.4-1.1 1.4-2.4 0-1.3 2.6-7.5 5.8-13.6 3.2-6.1 6.3-11.2 7-11.3 0.5-0.3 1.1-1.7 1.1-3.2 0-1.6 0.5-2.8 1.3-2.8 0.7 0 1.6-1 1.7-2.1 0.2-1.1 1.3-3.5 2.4-5.1 1.2-1.7 3.6-4.5 5.2-6.3 1.7-1.8 3.8-3.2 4.6-3.2zm-378.8-23.4c0.4 0 4.7 0.5 9.7 1.4 5 0.8 13.8 3 19.5 5 5.6 1.9 11.9 4.4 13.8 5.4 2 1 8.8 4.3 15.3 7.3 6.5 3.2 15.1 8.6 19.3 12.4 4 3.6 8.2 8 9 10 1 1.9 2.6 6.8 3.7 10.7 1.6 5.9 1.7 8.2 0.3 11.8-0.9 2.5-1.8 6.8-1.8 9.4 0 2.6-1.2 8.3-2.8 12.5-1.5 4.1-2.7 8.5-2.7 9.3 0 1-1.3 4.4-2.7 7.6-1.4 3.3-3.4 8.1-4.4 10.6-1.1 2.3-2.4 4.4-3.1 4.4-0.5 0-0.9 1.2-0.9 2.8 0 1.5-0.7 2.8-1.4 2.8-0.9 0-1.4 1.2-1.4 2.7 0 1.6-0.4 2.9-1.1 3.1-0.6 0.3-2.4 3.2-3.9 6.6-1.7 3.5-3.7 10-4.6 14.6-0.8 4.6-1.5 11.4-1.5 15.3 0 3.7-1.3 10.4-2.8 14.5-1.5 4.2-4.6 9.3-6.6 11.6-2.1 2-4.6 3.7-5.6 3.7-0.8 0-1.7 0.6-1.7 1.4 0 0.8-3.8 1.4-9 1.4-6.6 0-10.1-0.7-13.2-2.8-2.3-1.5-4.8-4.9-5.5-7.3-0.8-2.4-1.5-12-1.5-21.1 0-9.2 0.5-20.7 1.4-25.7 0.8-5 1.8-11.4 2.2-14.3 0.4-2.8 1.2-5.4 2.1-5.8 0.6-0.4 1.3-2 1.3-3.5 0-1.5 0.6-3.9 1.3-5.3 0.7-1.2 2.2-4.7 3.5-7.6 1.2-2.8 3.1-7.5 4.4-10.4 1.2-2.8 2.8-6.4 3.3-7.9 0.7-1.5 2.2-5.6 3.5-9 1.2-3.5 3.5-8.1 5-10.4 1.4-2.4 2.6-5.3 2.6-6.7 0-1.3-1.1-4.4-2.5-6.9-1.2-2.4-3-5-3.7-5.6-0.8-0.6-5.4-0.8-10.4-0.6-6.4 0.5-9.6 0-10.8-1.2-0.9-1.1-3.2-1.9-5.2-1.9-1.9 0-5.1-0.7-7.3-1.7-2.1-1-6-3.1-8.6-4.7-2.7-1.7-6.1-3.2-7.5-3.5-2.4-0.4-2.8-1.9-3.2-9.6-0.3-5-0.2-10.4 0.3-12.2 0.4-1.6 2.5-4.8 4.7-7.1 2.3-2.3 5.5-4.4 7.3-4.7 1.8-0.3 3.5-0.7 3.9-0.8zm-285.6-1.4c3 0 7.7 0.8 10.5 2.1 2.9 1.1 8 4.7 11.5 7.9 3.4 3.1 8.4 9.2 11.1 13.3 2.6 4.3 11.5 17.8 19.5 30 8.1 12.2 16.4 25 18.5 28.4 2.1 3.5 8 13.1 13.3 21.5 5.3 8.4 11.1 16.8 12.9 18.8 1.8 1.9 4.7 5.5 6.4 7.9 1.5 2.5 2.9 5.4 2.9 6.2 0 1 1.8 4.5 4.2 7.7 2.2 3.3 5.1 8.8 6.4 12.4 1.2 3.8 3 7.7 4.1 8.8 1.1 1.1 1.7 3 1.1 4.2-0.4 1.1 0 4.5 1 7.6 1 3 1.8 12.3 1.9 20.8 0.2 10.7-0.4 16.1-1.6 18-1 1.6-1.8 5.7-1.8 9.3 0 3.8-0.4 7-1.1 7.2-0.6 0.3-1.1 5.5-1.4 11.6-0.2 5.9-1 11.3-1.7 12.2-0.7 0.7-1 2.6-0.5 4.1 0.4 1.6-0.6 8.6-2.1 15.6-1.7 7.1-2.9 14.6-2.9 16.6 0 2.3-0.6 4.5-1.3 5.3-0.8 0.7-2.2 6.1-3.5 11.8-1.1 5.7-2.3 12.2-2.9 14.6-0.4 2.2-1.5 7.6-2.2 11.8-0.7 4.1-1.9 12.3-2.8 18-0.8 5.7-1.5 11.7-1.3 13.2 0 1.5 0.1 4 0.2 5.5 0 1.6 1.1 4.5 2.4 6.7 1.2 2.1 3.2 3.7 4 3.7 1 0 3.9-2.5 6.3-5.6 2.5-3.1 7.9-9.1 11.7-13.2 4.1-4.2 7.4-7.9 7.4-8.6 0-0.6 9.4-10.7 21.1-22.7 11.7-12 26.5-27.6 33-34.6 6.5-7.1 19.9-21 29.9-31.1 9.9-10 21.7-22.5 26.3-27.8 4.6-5.2 13.6-14.8 20.1-21.3 6.6-6.6 14.2-13.1 17.1-14.5 3.5-1.5 6.7-2.1 9.6-1.4 2.5 0.5 6.1 1.8 8 3 2 1.2 5.3 3.7 7.4 5.6 2.2 2 4.8 5.3 5.9 7.4 1.2 2.2 2 5.5 2 7.6 0 2.2-0.8 6-1.8 8.5-0.8 2.5-2.1 4.4-2.8 4.4-0.5 0-1 0.9-1 1.7-0.1 1-1.5 3.1-3.2 4.7-1.6 1.5-17 17.5-34.1 35.4-17.2 17.9-47.7 49-68 69.2-20.2 20.3-40.6 40.3-45.2 44.3-4.6 4-10 8.3-12.2 9.7-2.1 1.3-3.8 2.7-3.8 3.2 0 0.7-0.9 1.1-2.1 1.1-1.1 0-3.4 1.3-5.2 2.8-1.7 1.5-3.9 2.8-4.9 2.8-0.8 0-1.6 0.5-1.6 1.4 0 0.7-1 1.3-2.1 1.3-1.1 0-4.3 1.3-7 2.8-2.6 1.5-5.9 2.8-7.2 2.8-1.4 0-4.8 0.8-12.9 4.2l0.7 9.3c0.4 5.2 1.3 10.6 2 12.2 0.6 1.5 1.9 5.4 2.7 8.6 0.9 3.3 1.3 7.2 0.9 8.7-0.5 1.5-2.1 3.3-3.9 4-2.1 1-5.6 0.7-10.7-0.7-4.2-0.9-9.9-2.9-12.5-4.1-2.6-1.3-6.2-3.6-8-5.3-1.7-1.5-3.1-4.3-3.1-6.1 0-1.7-0.7-3.1-1.4-3.1-0.7 0-1.4-1.2-1.4-2.7 0-1.6-0.7-3.1-1.4-3.5-0.7-0.4-1.4-2.2-1.4-4.2 0-1.9-0.6-3.7-1.3-4.1-0.7-0.4-1.4-3.2-1.4-6.3 0-3-0.7-5.8-1.4-6.2-0.8-0.4-1.4-12.6-1.4-32.3 0-17.7 0.6-32.1 1.2-32.9 0.7-0.9 1.7-5.2 2.1-9.7 0.4-4.6 1.4-12.4 2.1-17.4 0.8-5 2.1-13 2.9-18 0.9-5 1.8-12.2 2.2-16 0.5-3.9 1.3-8.2 2-9.7 0.7-1.5 1.5-6 1.9-9.7 0.4-3.9 1.4-10.6 2.1-15 0.8-4.3 2.2-11.5 3.1-16 0.7-4.3 1.8-11.1 2.2-14.8 0.4-3.9 1.2-7.6 1.9-8.3 0.7-0.9 1.7-6.4 2.1-12.5 0.8-8.9 0.4-12.8-1.5-19.4-1.5-4.6-3.8-10.3-5.2-12.5-1.3-2.4-3.1-5.7-4.1-7.7-1-1.9-3.5-6.1-5.6-9.4-2-3.2-3.9-6.2-4-6.9 0-0.6-2.2-3.8-4.7-7.2-2.6-3.5-6.1-8.7-7.6-11.6-1.6-2.7-6.3-9-10.4-13.8-4.3-4.8-9.1-10-10.5-11.8-1.5-1.7-2.7-3.5-2.7-4.2-0.2-0.6-2-3.2-4.3-5.8-2.3-2.7-4.1-5.7-4.1-6.7 0-0.8-0.4-1.8-1.1-2.1-0.5-0.1-4-4.3-7.6-9.3-3.7-5-7.9-10.5-9.6-12.5-1.5-1.9-4.4-6.6-6.6-10.4-2.3-3.8-5-7.9-6.3-9-1.2-1.1-2.2-2.9-2.1-3.9 0-0.8-0.6-1.6-1.3-1.6-0.7 0-1.8-2.1-2.3-4.6-0.4-2.4-1.1-8.2-1.5-12.8-0.5-6.6-0.1-9.4 2.2-14.3 1.7-3.2 4.3-6.6 6-7.5 1.8-0.9 5-2.5 7.4-3.3 2.3-0.8 6.5-1.7 9.2-1.8zm-1083.2-148.6c0.7 0.8 2.5 1.4 3.8 1.4 1.3 0 3.5 0.5 4.9 1.2 1.2 0.7 6.7 3.4 12.1 5.9 5.4 2.5 13.4 7 18 10.1 4.6 3 8.6 5.8 9 6.4 0.4 0.4 2.9 2.3 5.6 4.1 2.6 2 7.3 5.6 10.4 8.4 3 2.6 11.5 10.6 18.7 18 7.2 7.2 16.3 16.7 19.9 20.8 3.6 4.2 6.5 8.1 6.5 8.6 0 0.7 1.5 2.7 3.5 4.6 1.9 1.9 3.4 4 3.4 4.9 0 0.6 0.9 2.2 1.8 3.1 0.9 1 2.8 3.7 4.2 5.9 1.2 2.3 5.8 11.2 10 19.7 4.1 8.6 7.6 16.6 7.6 17.7 0 1.1 0.6 2.4 1.4 2.8 0.8 0.4 1.4 1.7 1.4 2.8 0 1.1 1.2 3.7 2.8 5.8 1.6 2.2 2.9 5.3 2.7 7 0 1.8 0.6 4.3 1.3 5.5 0.7 1.4 2.1 5.3 2.9 8.7 1 3.5 2.2 7.8 2.8 9.8 0.5 1.9 1.8 6.2 2.8 9.7 0.9 3.4 2.2 7.7 2.7 9.7 0.6 1.9 1.8 6 2.7 9 0.8 3.1 3 11.5 5.1 18.7 1.9 7.3 3.9 13.8 4.3 14.6 0.3 0.7 1.7 3.6 3.2 6.2 1.4 2.7 1.9 5 1.2 5.2-0.7 0.3-1.2 1.9-1.2 3.9 0 1.9-1 4.4-2.2 5.5-1.1 1.1-4.6 2.1-7.7 2.1-2.9 0-5.7-0.7-6.1-1.4-0.4-0.8-2.9-1.4-5.5-1.4-2.7 0-5.2-0.7-5.6-1.4-0.4-0.8-1.9-1.3-3.4-1.3-1.6 0-2.8-0.7-2.8-1.4 0-0.9-1.3-1.4-2.8-1.4-1.5 0-2.8-0.7-2.8-1.4 0-0.8-1.2-1.4-2.7-1.4-1.6 0-2.8-0.7-2.8-1.4 0-0.8-1.3-1.4-2.8-1.4-1.5 0-2.8-0.7-2.8-1.4 0-0.8-0.9-1.4-2-1.4-1.2 0-3.5-1.2-5.2-2.7-1.8-1.6-4-2.8-4.8-2.8-1 0-1.8-0.7-1.8-1.4 0-0.8-1.3-1.7-2.8-2.1-1.5-0.4-4.2-2.1-5.8-3.9-1.8-1.6-5.5-4.5-8.1-6.5-2.6-1.8-11.2-10-19.1-18-7.8-8.1-14.3-15-14.2-15.7 0-0.6-1.9-2.8-4.2-5.1-2.2-2.4-4.1-4.6-4.1-5.3 0.1-0.6-1.8-3.1-4.2-5.6-2.2-2.3-4.1-5.1-4.1-5.8 0-0.8-1.3-2.8-2.8-4.6-1.5-1.6-2.8-3.8-2.8-4.8 0-0.8-0.5-1.7-1.4-1.7-0.8 0-1.4-1.2-1.4-2.8 0-1.5-0.4-2.7-0.9-2.7-0.7 0.1-3.4-4.2-6-9.3-2.6-5.2-5.3-9.6-5.8-9.9-0.7-0.1-1.1-1.5-1.1-3 0-1.6-0.6-3.1-1.4-3.5-0.9-0.4-1.4-2.2-1.4-4.2 0-1.9-0.6-3.4-1.4-3.4-0.8 0-1.4-1.3-1.4-2.8 0-1.5-0.6-3.1-1.4-3.5-0.8-0.4-1.4-2.2-1.4-4.1 0-2-0.5-3.8-1.4-4.2-0.8-0.4-1.3-2.2-1.3-4.2 0-1.9-0.6-3.7-1.4-4.1-0.9-0.4-1.4-2-1.4-3.5 0-1.5-0.6-3.9-1.3-5.3-0.7-1.2-1.9-4.5-2.7-7.2-0.9-2.6-1.6-6.1-1.6-7.6 0-1.5-0.5-3.5-1.2-4.2-0.7-0.8-1.5-3.9-2.1-6.9-0.4-3.1-1.4-9.3-2.2-13.9-0.9-4.6-2.1-18.3-2.8-30.5-1.2-20.3-1.1-22.4 1-24 1.6-1.1 2.7-1.3 3.9-0.3zm2026.9-6.8c2.3-0.1 4.2 0.8 5 2.4 0.6 1.2 1 6.6 0.6 12-0.3 5.3-1.1 16-1.9 23.6-0.9 7.6-2.1 15-2.8 16.4-0.7 1.2-1.3 3.9-1.3 5.8 0 2-0.7 6.4-1.5 10.1-0.8 3.7-2.1 8.8-2.6 11.4-0.7 2.7-2 7.7-2.9 11.1-1 3.5-2.3 7-3 7.7-0.7 0.7-1.1 2.7-1.1 4.5 0 1.7-0.4 3.4-0.9 3.6-0.7 0.3-1.6 2.5-2.1 4.9-0.7 2.4-2.7 7.8-4.6 11.9-1.9 4.2-3.5 8.4-3.5 9.1 0 0.6-0.7 1.3-1.4 1.3-0.7 0-1.3 0.9-1.3 1.8 0 0.9-2 5.7-4.5 10.7-2.5 5-5 9.2-5.5 9.5-0.7 0.1-1.1 1.1-1.1 2 0 0.9-1.2 3-2.4 4.5-1.4 1.5-3.5 4.4-4.6 6.6-1.1 2.1-2.5 3.8-3 3.8-0.7 0-1.1 0.8-1.1 1.8 0 0.8-1.2 2.9-2.5 4.4-1.4 1.6-2.8 3.5-3.2 4.5-0.3 0.8-3.4 4.8-6.8 8.9-3.5 4-11.8 13.1-18.8 20.2-6.9 7.2-12.9 12.9-13.4 12.9-0.7 0-3.8 2.5-7 5.6-3.3 3-6.6 5.5-7.3 5.5-0.7 0-2.4 1.3-3.5 2.8-1.1 1.5-3 2.8-4.2 2.8-1.1 0-3 1.2-4.1 2.7-1.1 1.6-3.2 2.8-4.5 2.8-1.3 0-2.5 0.4-2.5 1.1 0 0.6-3 2.5-6.9 4.5-3.7 1.9-6.9 3.9-6.9 4.6 0 0.5-1.3 0.9-2.8 0.9-1.5 0-2.8 0.7-2.8 1.4 0 0.7-1.2 1.4-2.8 1.4-1.5 0-2.7 0.7-2.7 1.4 0 0.7-1.7 1.4-3.8 1.4-2.2 0-4.8 0.5-5.9 1.2-1.3 0.7-3.7 0.6-5.9-0.4-2.1-0.8-4.1-2.8-4.6-4.3-0.4-1.5 1.6-10 4.4-18.7 2.7-8.8 5.5-17.2 6.1-18.8 0.5-1.5 1.8-5.5 2.7-9 1-3.4 2.4-7.7 3.1-9.7 0.8-1.9 1.9-4.6 2.6-5.8 0.7-1.4 1.3-4 1.3-6 0-1.9 0.7-3.7 1.4-4.1 0.7-0.5 1.3-2.3 1.3-4.2 0-2 0.7-3.8 1.4-4.2 0.7-0.4 1.4-1.9 1.4-3.4 0-1.6 0.6-3.9 1.3-5.2 0.7-1.4 2.6-5.4 4.1-9 1.7-3.7 2.9-7.9 2.9-9.4 0-1.6 0.7-2.8 1.4-2.8 0.7 0 1.4-1 1.4-2.1 0-1.1 1.3-5 2.9-8.6 1.7-3.7 3.5-7.9 4.1-9.4 0.5-1.6 4-8.8 7.5-16 3.4-7.2 8.1-16.2 10.2-20.1 2.1-3.8 4.3-7.6 4.9-8.3 0.7-0.7 2.2-3.1 3.4-5 1.3-2.1 5.2-7.7 8.6-12.5 3.4-4.9 12.4-15.1 20.2-22.8 7.6-7.6 16.1-15.5 18.7-17.3 2.6-2 6.7-5.1 9-7.4 2.4-2.1 5-3.9 5.8-3.7 1 0 1.9-0.4 1.9-1 0-0.7 1.3-1.8 3.1-2.6 1.7-0.9 5.9-3.1 9.3-4.9 3.5-1.8 6.4-3.7 6.6-4.3 0.2-0.7 1.5-1.1 2.7-1.2 1.4 0 4.3-1.3 6.7-2.7 2.4-1.4 5.8-2.6 8-2.6zm-235-26c3.5 0.6 7.1 3 11.9 7.8 3.8 3.8 7.7 7 8.3 7 0.7 0 4.3 2.7 8 6.2 3.7 3.5 6.6 7.1 6.6 7.9 0 1 2.5 4.3 5.6 7.4 3 3 5.5 6.3 5.5 7.2 0 1 1.5 4.4 3.3 7.6 1.9 3.3 5.5 10 8.1 15 2.6 5 6.8 15.5 9.3 23.6 2.5 8 5.1 16.8 6 19.4 0.8 2.6 1.6 15.1 1.8 27.8 0 12.6-0.3 28.1-0.9 34.7-0.5 6.5-1.6 15.5-2.5 20.1-0.8 4.6-2 11.1-2.7 14.5-0.7 3.5-2 10-3 14.6-0.9 4.6-2.5 10.6-3.4 13.2-1 2.6-2.5 7.6-3.5 11.1-1 3.5-2.2 7.6-2.9 9.3-0.7 1.8-1.3 4.4-1.3 6 0 1.5-0.7 4.1-1.6 5.8-0.9 1.8-2 4.2-2.5 5.3-0.6 1.1-2.1 2.7-3.2 3.4-1.7 1-3.1 0.6-5.4-1.6-1.8-1.7-4-5.4-5.2-8.4-0.9-2.9-4.4-10.5-7.5-17-3-6.5-6.5-13.3-7.7-15.3-1.3-1.8-2.4-4.3-2.7-5.5-0.1-1.2-1.1-2.8-2.2-3.5-1.1-0.7-2.3-3.8-2.8-6.7-0.5-3.7-1.3-5-2.9-4.4-1.5 0.5-2-0.4-2-4.2 0-3.2-1-5.7-2.8-7.3-1.5-1.3-2.8-4.1-2.8-6.3 0-2.1-1.7-7-3.7-11.1-2.1-3.9-4.3-9.7-5-12.7-0.6-3.1-1.7-7.8-2.4-10.4-0.7-2.7-1.9-7.4-2.8-10.5-0.8-3-2.2-8.3-2.9-11.7-0.8-3.5-2.1-10.7-2.8-16-0.8-5.3-1.8-19.2-2.3-30.5-0.7-13.1-0.6-21.8 0.4-23.6 0.7-1.5 1.8-7.8 2.4-13.9 0.4-6.1 1.5-14.3 2.3-18 0.7-3.9 2.2-12 3.3-18.1 1.2-6.1 2.8-12.9 3.8-15.1 1.5-3.6 2.2-3.9 6.8-3.1zm-1542.7-1.5c1.8-0.1 4.1 0.3 5 1.1 0.9 0.7 1.5 2.7 1.1 4.5-0.4 1.6 0.4 6.8 1.8 11.4 1.5 4.5 4.3 15.5 6.4 24.2 3.6 15.3 3.7 17.2 3.2 46.5-0.5 16.8-1.3 34-2.1 38.2-0.9 4.1-2.1 10.1-2.9 13.2-0.7 3-2 8-2.8 11.1-0.7 3-2 7.7-2.7 10.4-0.6 2.6-2.2 7-3.3 9.7-1.2 2.6-3 7.6-4 11.1-1.1 3.4-6 14.3-11.1 24.3-5 10-10.4 20.2-11.9 22.9-1.6 2.6-5 8.3-7.5 12.4-2.7 4.2-5.6 8.6-6.7 9.8-1 1.1-2.9 3.7-4.2 5.9-1.2 2.1-2.6 3.8-3.3 3.8-0.5 0-1 0.8-1 1.8 0 0.8-1.2 3-2.7 4.8-1.6 1.7-2.8 3.5-2.8 4.2 0 0.6-1.4 2.6-3.2 4.6-1.7 1.9-4.3 4-5.8 4.6-1.8 0.5-3.5 0.1-4.9-1.4-1.1-1.4-2.9-4.6-3.7-7.4-1-2.8-1.8-6.4-1.8-8 0-1.8-0.7-3.5-1.4-3.9-0.9-0.4-1.4-2.9-1.4-5.6 0-2.6-0.7-5.1-1.4-5.5-0.8-0.4-1.4-2.9-1.4-5.6 0-2.6-0.7-5.1-1.4-5.5-0.8-0.4-1.4-3.1-1.4-5.9 0-2.9-0.5-5.8-1.2-6.6-0.7-0.7-1.7-4.2-2.1-7.6-0.4-3.5-1.4-10-2.4-14.6-0.9-5-1.6-21.1-1.6-40.9 0-17.9 0.4-35.3 1-38.5 0.4-3.3 1.3-6.2 2.2-6.6 0.7-0.5 1.4-2.1 1.4-3.8 0-1.8 0.8-5.4 1.8-8 0.8-2.7 2-5.2 2.5-5.6 0.4-0.4 1.6-3.6 2.7-7.3 1.2-3.6 2.4-6.6 3-6.6 0.6 0 1.1-1.2 1.1-2.7 0-1.6 0.5-2.8 1.4-2.8 0.6 0 1.3-1.3 1.3-2.8 0-1.5 0.6-2.8 1.4-2.8 0.7 0 1.4-1.2 1.4-2.7 0-1.6 0.6-2.8 1.4-2.8 0.7 0 1.7-1.1 2.1-2.4 0.3-1.4 2.2-4.3 4.1-6.6 2-2.4 3.5-4.8 3.5-5.6 0-0.7 1.3-2.3 2.8-3.5 1.5-1.1 2.8-2.6 2.8-3.4 0-0.7 1.1-2.7 2.3-4.2 1.4-1.5 4.2-5 6.1-7.6 2-2.7 9.3-10.7 16.3-17.6 7-7.1 14.5-14.1 16.6-15.3 2.2-1.4 5.6-2.6 7.4-2.8zm1371.2-36.5c6.2 0 15.4 1 20.4 2.1 5 1.1 11.5 2.6 14.5 3.5 3.1 0.8 8.1 2.2 11.2 2.9 3 0.8 8.7 1.9 12.4 2.4 3.9 0.5 7.8 1.5 8.8 2 0.8 0.6 4.1 1.1 7.3 1.4 3.2 0.2 6 0.7 6.3 1.4 0.3 0.6 2.6 1 5.1 1 2.4 0 5.1 0.5 5.8 1.2 0.9 0.6 4.6 2.4 8.4 3.8 3.9 1.4 9.1 4.7 11.9 7.5 2.6 2.6 5.4 7 6 9.7 0.7 2.6 1.2 10.8 1.4 18 0 7.2-0.7 22.9-1.7 34.7-1 11.8-2.4 25-2.9 29.1-0.7 4.2-2 11.7-2.8 16.7-0.8 5-2.1 11.5-2.9 14.6-0.8 3-2.1 8-2.8 11.1-0.5 3-2.1 9.3-3.3 13.8-1.4 4.6-2.9 9.1-3.8 9.8-0.7 0.7-1.2 2.7-1.2 4.5 0 1.7-0.6 3.4-1.4 3.8-0.7 0.4-1.4 2.2-1.4 4.1 0 2-0.5 3.8-1.4 4.2-0.7 0.4-1.4 2-1.4 3.5 0 1.5-0.5 4-1.4 5.5-0.6 1.6-1.9 4.1-2.7 5.6-0.7 1.5-1.4 3.4-1.4 4.1 0 0.7-1.3 4.3-2.9 8.1-1.7 3.6-3.6 8-4.3 10-0.9 1.9-2 4.6-2.7 5.9-0.7 1.3-1.2 3.4-1.2 4.5 0 1.1-0.6 2.1-1.4 2.1-0.7 0-1.4 1.2-1.4 2.7 0 1.6-1.1 5.2-2.6 8-1.4 2.9-4.1 8.4-5.9 12.2-1.8 3.9-3.7 7-4.3 7.3-0.7 0.2-1.1 1.1-1.1 2.1 0 0.8-0.7 3.3-1.6 5.4-1 2.2-2.3 3.9-2.8 3.9-0.7 0-1.1 1.2-1.1 2.8 0 1.5-0.6 2.7-1.4 2.7-0.7 0-1.4 1.3-1.4 2.8 0 1.5-0.4 2.8-1 2.8-0.7 0-2.6 2.9-4.5 6.5-2 3.6-3.8 7-4.2 7.4-0.4 0.4-1.7 2.3-2.8 4.6-1.1 2-2.5 3.7-3 3.7-0.7 0-1.1 0.8-1.1 1.8 0 0.8-1.2 2.9-2.4 4.4-1.4 1.6-5 5.9-8.1 9.5-3 3.6-6.3 6.6-7.2 6.5-0.9 0-1.8 0.7-1.8 1.4 0 0.7-2.1 2.1-4.4 2.8-2.5 0.8-5.1 1.4-6 1.4-0.7 0-2.6-1-4.1-2.3-2.4-1.6-3-4.3-3.6-14.8-0.5-7.1-0.5-13.5 0.1-14.2 0.5-0.7 1.8-5.4 2.8-10.4 0.9-5 2.3-9.7 3-10.4 0.6-0.7 1.1-2.5 1.1-3.9 0-1.2 1.4-5 2.9-8.3 1.7-3.2 3.7-7.3 4.5-9.3 0.7-1.9 1.8-4.6 2.5-6 0.7-1.2 1.2-3.3 1.2-4.4 0-1.1 0.7-2.1 1.4-2.1 0.8 0 1.4-1.2 1.4-2.8 0-1.5 0.7-2.7 1.4-2.7 0.8 0 1.4-1.3 1.4-2.8 0-1.5 0.7-2.8 1.4-2.8 0.8 0 1.4-0.7 1.4-1.4 0-0.7 1.2-4 2.7-7.3 1.6-3.2 2.8-7 2.8-8.3 0-1.3 0.6-2.5 1.1-2.8 0.6-0.2 2.5-3.8 4.2-7.9 1.6-4.2 3-8.5 3-9.5 0-0.8 0.7-1.6 1.4-1.6 0.9 0 1.4-1 1.4-2.1 0-1.1 0.6-3.2 1.3-4.6 0.6-1.2 2-4.2 3-6.4 1.1-2.2 2-4.7 2.1-5.5 0-0.9 0.5-2.8 1.1-4.3 0.6-1.6 1.7-3.9 2.4-5.3 0.7-1.2 1.2-3.5 1.2-4.9 0-1.2 0.4-2.9 1-3.6 0.5-0.5 1.9-3.4 2.9-6.2 1.1-2.8 2.1-6 2.2-7.1 0.3-1.1 1.8-5.3 3.5-9 1.6-3.9 2.8-7.6 2.3-8.3-0.4-0.7-0.1-2.1 0.5-2.8 0.5-0.7 1.8-4.2 2.7-7.6 1-3.5 2.7-7.8 3.5-9.7 1-2 3.1-8.1 4.7-13.6 1.7-5.5 4.3-14.2 5.8-19.5 2.1-6.5 2.8-12.2 2.5-19.3-0.2-5.5-0.9-10.6-1.8-11.5-0.7-0.7-3.8-2.1-6.9-2.9-3.1-0.8-8-1.9-11.1-2.6-3.1-0.7-8.2-2-11.4-2.7-3.3-0.8-8.3-2-11.1-2.9-2.9-0.7-8-1.9-11.5-2.8-3.5-0.8-8-1.9-10.4-2.2-2.2-0.4-5.4-1.2-6.9-1.8-1.6-0.7-7.1-2.5-12.5-4.3-5.3-1.6-10.7-3.9-11.8-5-1.1-1.1-3.4-2.2-4.9-2.5-1.5-0.1-2.9-1.5-3.2-3-0.1-1.4-0.7-5.7-1.1-9.6-0.4-3.7-0.4-9 0-11.4 0.4-2.6 2.9-6.6 5.8-9.4 4.9-4.7 5.3-4.9 16.3-4.9zm-1339.2-185.9c0.7 0 2.1 1 3.2 2.1 1.5 1.5 2.1 5.2 2.1 14.5 0 7-0.7 15.4-1.4 19.1-0.8 3.7-2.1 9.7-2.9 13.6-0.8 3.7-2.2 9.1-2.9 11.7-0.9 2.7-2 6.2-2.5 7.7-0.6 1.5-1.8 5.3-2.7 8.3-0.9 3.1-2.3 6.9-3 8.6-0.7 1.8-1.8 4.6-2.5 6.3-0.7 1.8-2.5 6.1-4.2 9.7-1.6 3.7-2.9 7.3-2.9 8 0 0.7-0.5 1.4-1.4 1.4-0.8 0-1.4 1-1.4 2.1 0 1.1-1.3 4.4-2.9 7.2-1.6 2.9-5 8.7-7.2 12.9-2.3 4.2-4.7 7.8-5.4 7.9-0.6 0.3-1.1 1.3-1.1 2.1 0 1-1.1 3-2.4 4.6-1.4 1.5-3.4 4.4-4.5 6.6-1.2 2.1-2.5 3.8-3.1 3.8-0.7 0-1.1 0.8-1.1 1.6 0 1-1.1 3.1-2.4 4.6-1.4 1.5-5.7 7.1-9.4 12.5-3.7 5.4-11 14.4-16 20.1-4.8 5.7-9.7 11.3-10.6 12.1-1 1-1.8 2.2-1.8 2.8 0 0.7-2.7 3.9-6 7.3-3.2 3.5-7.1 7.9-8.6 9.9-1.5 1.9-5.6 6.9-8.9 11.1-3.3 4.1-7.6 9.7-9.7 12.3-2 2.7-6.4 7.8-9.9 11.4-3.4 3.8-7.2 6.9-8.3 7.2-1.1 0.3-2.9 0.2-3.9-0.4-1.4-0.7-1.8-7.1-1.8-28.9 0.2-15.8 0.7-29.4 1.5-30.9 0.9-1.5 1.4-7.9 1.4-14.1 0-6.4 0.6-12.3 1.3-13 0.7-0.6 1.7-4.5 2.1-8.3 0.4-3.9 1.1-9.7 1.6-13.2 0.4-3.4 1.4-6.9 2.1-7.6 0.7-0.7 1.3-3.5 1.3-6 0-2.3 0.5-4.4 1.3-4.4 0.9 0 1.4-1.2 1.4-2.8 0-1.5 0.9-5.2 1.8-8.3 0.9-3.1 2.1-5.5 2.7-5.5 0.7 0 1.1-1.6 1.1-3.5 0-2 0.5-3.8 1.4-4.2 0.8-0.4 1.4-1.9 1.4-3.4 0-1.6 0.5-2.8 1.4-2.8 0.8 0 1.3-1.3 1.3-2.8 0-1.5 0.6-2.8 1.4-2.8 0.9 0 1.4-1.2 1.4-2.8 0-1.5 0.6-2.7 1.4-2.7 0.8 0 1.4-1.3 1.4-2.8 0-1.5 0.5-2.8 1.4-2.8 0.8 0 1.4-1.2 1.4-2.8 0-1.5 0.4-2.7 0.9-2.7 0.7 0 2.1-1.7 3.2-3.8 1.1-2.2 3.2-4.8 4.5-5.9 1.2-1.1 2.3-3 2.5-3.8 0-1 8.4-10.3 18.8-20.5 10.6-10.3 19.6-18.8 20.3-18.8 0.7 0 2.8-1.5 4.7-3.4 2-2 3.9-3.5 4.5-3.5 0.5 0 2.9-1.5 5.1-3.5 2.2-1.9 5-3.4 6-3.4 0.8 0 1.6-0.7 1.6-1.4 0-0.7 1.1-1.4 2.4-1.4 1.4 0 3.7-1.3 5.2-2.8 1.6-1.5 3.5-2.8 4.5-2.8 1 0 1.8-0.6 1.8-1.3 0-0.7 1.1-1.7 2.4-2.1 1.3-0.3 7.4-3.5 13.6-7 6.1-3.3 11.5-6.2 12-6.2zm1467.5-5.6c3.6 0 10.3 1.3 14.9 3 4.6 1.5 10.7 4 13.6 5.5 2.8 1.4 5.9 2.6 6.9 2.6 0.9 0 7.6 3.9 15 8.8 7.4 4.7 17.1 11.8 21.5 15.5 4.6 3.9 12.6 11.8 17.9 17.8 5.4 6 13.6 16.8 18.5 24 4.7 7.2 8.6 14 8.6 15.1 0 1.1 0.7 2.1 1.4 2.1 0.8 0 1.3 1.2 1.3 2.8 0 1.5 0.7 2.7 1.4 2.7 0.9 0 1.4 1.2 1.4 2.5 0 1.3 0.6 3.1 1.1 3.8 0.7 0.7 3.2 6.4 5.4 12.5 2.4 6.1 5.3 14.6 6.6 18.7 1.2 4.2 2.9 11.1 3.6 15.3 0.8 4.1 1.8 10.8 2.2 14.5 0.4 3.9 1.2 8.2 1.9 9.8 0.7 1.5 1.7 10.9 2.4 20.8 0.5 9.8 1 25.5 1 34.7 0 9.1-0.9 19.3-1.7 22.6-1.1 3.6-2.9 6.4-4.7 7.3-2.4 1.3-3.3 1.3-3.5 0-0.3-0.8-1.2-1.5-2.1-1.5-0.9 0-2.9-1-4.1-2.1-1.6-1.2-2.3-3-1.7-4.4q0.8-2.5-0.4-0.7c-0.8 1.4-1.5 1.4-3.2-0.6-1.1-1.2-2.1-3-2.1-3.8 0-0.9-1-3-2.1-4.8-1.1-1.6-2.6-3-3.4-3-0.7 0-2.5-1.1-3.9-2.5-1.4-1.3-2.5-3.3-2.4-4.5 0-1.1-2.5-4.8-5.5-8.3-3.1-3.4-5.6-6.5-5.6-6.9 0-0.4-3-3.9-6.6-7.8-3.7-4-7.1-8-8-9.3-0.6-1.1-2.6-3.7-4.1-6-1.4-2.2-4.9-6.6-7.6-9.8-2.7-3.2-6.6-7.9-8.5-10.4-2.1-2.5-4.6-6.5-5.6-8.8-0.9-2.2-3.7-6.3-6.1-9.1-2.2-2.9-5.8-7.9-7.9-11.1-1.9-3.3-4.8-9.2-6.4-13.1-1.5-3.7-5.5-12.4-8.8-19.4-3.5-6.9-8.2-17.7-10.7-24.3-2.5-6.5-5.7-14.1-7.2-16.9-1.4-2.9-2.7-7.6-2.7-10.4 0-2.9-1.2-7.2-2.6-9.4-1.4-2.3-4-8.9-5.7-14.6-1.7-5.7-4.6-14.4-6.4-19.4-1.8-5-3.3-10.4-3.3-12.1 0-1.8 0.4-4.2 0.8-5.3 0.6-1.4 2.8-2.1 7.2-2.1zm-162-341.3c7 0 9 0.6 12.6 3.9 2.4 2.1 5.3 5.9 6.2 8.6 1.1 2.6 2 7.6 2 11.1 0 3.5-0.9 8.2-2 10.4-1.1 2.2-5 6.8-8.7 10.1-3.6 3.4-7.4 6.4-8.1 7-0.6 0.5-4.1 3.2-7.6 5.8-3.5 2.6-6.5 5.1-6.9 5.5-0.4 0.5-4.2 3.5-8.3 7-4.2 3.4-10.2 8.6-13.2 11.4-3.1 2.9-6 5.2-6.7 5.2-0.5 0-4.3 3.1-8.3 7-3.9 3.7-7.6 6.9-8.3 6.9-0.6 0-3.9 2.9-7.7 6.4-3.6 3.5-8 7.5-10 8.7-1.8 1.3-5.8 4.5-8.8 7.1-3 2.6-6.7 6.2-8.4 8.1-1.6 1.6-3.7 3-4.7 3-0.8 0-1.7 0.4-1.7 1.1 0 0.6-2.2 2-4.9 3.1-2.8 1.1-5.9 3-6.7 4.3-0.8 1.1-4.7 4-8.5 6.1-3.9 2.2-7.6 4.6-8.3 5.2-0.7 0.7-3.9 2.7-6.9 4.5-3.1 1.8-12.1 6.6-20.2 10.8-8 4.2-17.6 8.8-21.3 10.1-3.8 1.4-7.5 3.5-8.4 4.5-0.8 1-3.1 1.8-5.4 1.6-2 0-5.1 0.7-6.9 1.7-1.7 0.8-4.6 1.7-6.5 2-2 0.1-6 0.9-9 1.9-3.1 0.8-8 2.2-10.9 2.9-2.7 0.7-7.7 2-10.9 2.8-3.4 0.7-8.5 1.9-11.5 2.6-3.1 0.7-8.4 2-11.8 2.8-3.5 0.8-8.8 2.1-11.8 2.8-3.1 0.7-8.4 1.8-11.8 2.5-3.5 0.5-7.2 1.6-8.4 2.3-1.1 0.7-3.8 1.4-6.2 1.6-2.4 0.1-6.9 0.9-10.4 1.6-3.5 0.9-8.5 2.1-11.1 2.8-2.6 0.7-6.4 2.1-8.3 3-2 1-4.6 2.4-5.9 3.1-1.3 0.6-3.4 1.1-4.5 1.1-1.1 0-2.1 0.7-2.1 1.4 0 0.7-1.3 1.4-2.8 1.4-1.5 0-2.8 0.7-2.8 1.4 0 0.7-1.2 1.4-2.7 1.4-1.6 0-2.8 0.7-2.8 1.3 0 0.7-1.3 1.4-2.8 1.4-1.5 0-2.8 0.5-2.8 1.1 0 0.6-1.6 2-3.7 3.1-2.2 1.1-4.9 3.2-6 4.4-1.1 1.3-2.9 2.4-3.7 2.5-1 0-3.9 2-6.3 4.2-2.5 2.4-5.2 4.2-5.9 4.2-0.7 0-2.4 1.2-3.5 2.7-1.1 1.6-2.8 2.8-3.5 2.8-0.7 0-3.2 1.7-5.5 3.8-2.4 2.2-6.4 5.4-9 7.3-2.7 1.8-5.9 4.5-7 5.8-1.1 1.3-2.9 2.4-3.7 2.5-1 0-4.5 2.5-7.7 5.6-3.3 3.2-6.6 5.7-7.3 5.7-0.7 0-2.4 1.1-3.5 2.3-1.1 1.4-4.3 4.1-6.9 5.9-2.7 1.9-6.7 5.1-9 7.3-2.4 2.1-4.6 3.9-5.2 3.8-0.7 0-4.4 3-8.3 6.9-4 3.7-7.8 6.9-8.3 6.9-0.7 0-3.8 2.5-7 5.6-3.3 3-6.4 5.5-6.9 5.5-0.7 0-3.8 2.5-6.9 5.6-3.4 3-6.4 5.5-7 5.5-0.7 0-3.7 2.5-6.9 5.6-3.3 3.2-6.4 5.7-7 5.5-0.7 0-2.5 1.3-4.1 2.8-1.8 1.5-4 2.8-4.9 2.8-0.9 0-1.8 0.7-1.8 1.4 0 0.7-0.8 1.4-1.6 1.4-1 0-3.4 1.2-5.3 2.7-2 1.6-4.6 2.8-6 2.8-1.2 0-3.5 0.6-4.7 1.3-1.4 0.7-4 1.8-6 2.5-1.9 0.8-5.7 2-8.3 2.9-2.6 1-6 1.6-7.2 1.6-1.4 0-2.5 0.7-2.5 1.4 0 0.7-0.8 1.4-1.7 1.4-0.9 0-5.8 2-10.8 4.5-5 2.5-9.2 5-9.4 5.6-0.2 0.6-1.3 1-2.4 1-1.1 0-4.2 1.8-6.7 4.2-2.3 2.2-4.8 4.1-5.5 4.1-0.6 0-3.6 2.7-6.9 6-3.4 3.2-7.4 8.8-9.1 12.5-1.6 3.6-3 9.2-3 12.5 0 3.9 1 7.3 3.2 10.7 1.8 2.6 4.1 4.7 5.3 4.4 1.1-0.1 2.9 0.6 4 1.8 1.6 1.7 4.4 2.1 13.2 1.7 6.1-0.4 13-1.1 15.2-1.7 2.2-0.4 5.7-1.5 7.7-2.3 1.9-0.9 4.7-2 6.2-2.5 1.5-0.6 7.2-3.2 12.5-5.7 5.3-2.7 9.8-5.2 10-5.7 0.3-0.7 1.6-1.1 3.2-1.1 1.5 0 2.7-0.4 2.7-1 0-0.7 1.7-2.1 3.8-3.2 2.2-1.1 5.1-3.2 6.7-4.6 1.5-1.2 3.4-2.3 4.1-2.3 0.7 0 2.4-1.3 3.5-2.8 1.1-1.5 2.9-2.8 3.7-2.8 1 0 5.4-3.6 9.7-8 4.5-4.3 10.3-9.5 12.9-11.3 2.7-1.9 20.3-18.8 39.2-37.8 19-18.9 36.6-35.7 39.2-37.2 3.4-2 7.4-2.8 12.8-2.8 7.1 0.1 8.5 0.5 11.1 3.9 2 2.3 3.3 5.8 3.5 9.3 0.1 3 0 7.7-0.2 10.4-0.1 2.6-0.9 5.5-1.6 6.2-0.7 0.7-1.3 2.5-1.3 3.9 0 1.3-0.7 2.4-1.4 2.4-0.7 0-1.3 1.1-1.3 2.5 0 1.2-1.3 3.3-2.8 4.4-1.5 1.1-2.8 2.8-2.8 3.5 0 0.7-2.4 3.9-5.3 6.9-2.9 3.1-5.5 6.3-5.9 7.2-0.3 0.9-5.3 6.5-11 12.5-5.8 6-12.1 13.1-13.9 15.7-1.8 2.6-4.6 6.1-5.8 7.6-1.4 1.6-2.5 3.6-2.5 4.6 0 0.8-0.4 1.7-1.1 1.7-0.6 0-2 2.3-3.3 5.1-1.3 2.9-3.9 7.2-5.9 9.4-1.9 2.3-3.6 5-3.6 6 0 0.8-0.4 1.7-0.9 1.7-0.7-0.2-2.1 1.8-3.2 4.1-1.1 2.4-2.5 4.3-3.1 4.2-0.7 0-1.1 0.8-1.1 1.8 0 0.8-1.1 2.9-2.4 4.4-1.3 1.6-3.4 4.5-4.5 6.7-1.2 2.1-2.5 3.8-3.1 3.8-0.7 0-1.1 0.8-1.1 1.8 0 0.8-1.9 3.8-4.2 6.5-2.2 2.6-4.1 5.7-4.1 6.6 0 0.9-0.7 1.7-1.4 1.7-0.7 0-1.4 0.8-1.4 1.8 0 0.8-1.1 2.9-2.4 4.4-1.4 1.6-3.4 4.5-4.5 6.7-1.2 2.1-2.5 3.8-3.1 3.8-0.7 0-1.1 0.8-1.1 1.8 0 0.8-1.1 2.9-2.4 4.4-1.4 1.5-3.4 4.4-4.5 6.7-1.2 2-2.5 3.7-3.1 3.7-0.7 0-1.1 0.8-1.1 1.8-0.1 0.8-1.9 3.9-4.3 6.5-2.2 2.7-4 5.7-4 6.7 0 0.8-0.4 1.7-1 1.7-0.7 0-2.1 1.6-3.2 3.7-1.1 2.2-3 4.9-4.2 6-1.1 1.1-3.7 5.1-5.5 8.7-1.9 3.6-3.9 6.5-4.4 6.5-0.7 0-1.2 0.9-1.2 1.8 0 0.9-1.9 3.9-4.1 6.6-2.2 2.6-4.2 5.6-4.2 6.6 0 0.8-0.4 1.7-1 1.7-0.6 0-2.6 2.5-4.5 5.5-2 3.1-3.9 5.6-4.5 5.6-0.7 0-1.1 0.7-1.1 1.4 0 0.7-2.5 5.1-5.5 9.7-3.1 4.6-5.6 8.6-5.6 9 0 0.4-1.2 2.1-2.8 3.9-1.5 1.7-2.7 4.2-2.7 5.5 0 1.3-0.7 2.7-1.4 3.1-0.7 0.4-1.4 4.3-1.4 8.7 0 6.8 0.4 8.5 3.7 11.7 2.3 1.9 6.4 4.6 9.5 5.8 3 1.3 5.8 2.4 6.2 2.4 0.4 0 4.2-3.4 8.3-7.4 4.2-4 8.6-9 9.8-11.2 1.1-2.1 2.5-3.8 3-3.8 0.7 0 1.1-0.8 1.1-1.6 0-1 1.1-3.1 2.4-4.6 1.4-1.5 3.4-4.4 4.6-6.7 1.1-2.1 2.3-3.7 2.7-3.7 0.4 0 1.7-1.8 2.8-4.2 1.1-2.3 2.5-4.3 3.1-4.1 0.7 0 1.1-1.3 1.1-2.8 0-1.5 0.4-2.8 0.9-2.8 0.7 0 2.1-1.7 3.2-3.7 1.1-2.3 3.2-4.9 4.5-6 1.2-1.1 2.3-3.1 2.3-4.2 0.2-1.1 1.4-3 2.9-4.1 1.6-1.1 2.8-3.1 2.8-4.2 0-1.1 1.3-3 2.8-4.2 1.5-1.1 2.8-3 2.8-4.1 0-1.1 1.2-3.1 2.7-4.2 1.6-1.1 2.8-3.2 2.8-4.4 0-1.4 0.4-2.5 1-2.5 0.7 0 2.1-1.7 3.2-3.8 1.1-2.2 3.2-4.8 4.4-5.9 1.3-1.1 2.4-3.1 2.4-4.2 0.1-1.1 1.4-3 2.9-4.2 1.5-1.1 2.8-3 2.9-4.1 0-1.1 1.1-3.1 2.4-4.2 1.2-1.1 3-3.3 3.9-4.8 0.8-1.6 2.3-4.3 3.4-6.3 1.1-1.9 3.1-4.4 4.3-5.5 1.3-1.1 2.4-3.1 2.4-4.2 0.1-1.1 1.4-3.1 2.9-4.2 1.5-1.1 2.8-3.2 2.8-4.4 0-1.4 0.4-2.5 0.9-2.5 0.7 0 2.1-1.7 3.2-3.7 1.1-2.3 3.2-5.2 4.6-6.7 1.3-1.5 2.4-3.5 2.4-4.2 0-0.7 1.2-2.3 2.7-3.4 1.6-1.1 2.8-3.1 2.8-4.2 0-1.1 1.3-3.1 2.8-4.2 1.5-1.1 2.8-3.2 2.8-4.4 0-1.4 0.7-2.5 1.4-2.5 0.7 0 1.6-1.1 2-2.4 0.3-1.3 2.3-4.4 4.2-6.6 1.9-2.2 3.5-4.9 3.5-5.6 0-0.7 1.2-2.3 2.8-3.4 1.5-1.1 2.7-2.8 2.7-3.5 0-0.7 1.7-3.1 3.8-5 2.2-2.1 6.1-5 8.7-6.7 3.3-1.9 7.2-2.9 12.5-2.9 6.7 0 8.3 0.6 12.9 4.5 3.1 2.6 6.3 7 7.4 10.1 0.9 3 1.9 7.6 1.9 10.1 0 2.4-0.7 4.7-1.4 5.2-0.7 0.4-1.4 2.2-1.4 4.1 0 2-0.7 3.8-1.4 4.2-0.7 0.4-1.3 1.9-1.3 3.5 0 1.5-0.7 2.7-1.4 2.7-0.7 0-1.4 0.9-1.4 1.8 0 0.9-1.1 2.9-2.4 4.5-1.4 1.5-3.4 4.4-4.6 6.6-1.1 2.1-2.5 3.8-3 3.8-0.7 0-1.1 1.2-1.1 2.8 0 1.5-0.7 2.7-1.4 2.7-0.7 0-1.4 0.9-1.4 1.8 0 0.9-1.1 2.9-2.4 4.5-1.3 1.5-3.4 4.4-4.5 6.6-1.1 2.1-2.5 3.8-3.2 3.8-0.6 0-1 0.7-1 1.4 0 0.7-1.9 4.3-4.4 8-2.4 3.6-4.8 6.8-5.2 7.2-0.4 0.4-1.8 2.4-2.9 4.6-1.1 2.1-2.5 3.8-3 3.8-0.7 0-1.1 0.8-1.1 1.8 0 0.8-2 3.8-4.2 6.5-2.2 2.6-4.2 5.7-4.2 6.6 0 0.9-0.4 1.7-0.9 1.7-0.7 0-2.1 1.7-3.2 3.8-1.1 2.2-3.2 4.8-4.5 5.9-1.2 1.1-2.3 2.5-2.5 3.2 0 0.6-1.9 3.9-4.4 7.6-2.4 3.6-4.7 6.8-5.1 7.3-0.5 0.4-1.9 2.3-3 4.5-1.1 2.1-2.5 3.8-3 3.8-0.7 0-1.1 0.8-1.1 1.8 0 0.8-1.7 3.6-3.6 5.8-2 2.2-4.6 5.8-5.9 8.1-1.3 2-2.7 3.7-3.3 3.7-0.7 0-1.1 0.8-1.1 1.8 0.1 0.8-1.8 3.8-4.2 6.3-2.2 2.3-4.1 4.8-4.1 5.5 0 0.6-1.6 2.8-3.5 5.1-1.9 2.4-3.5 4.5-3.5 4.9 0 0.4-1.5 2.5-3.4 4.9-2 2.3-3.5 4.9-3.5 5.9 0 0.9-0.4 1.7-1 1.7-0.7 0-2.1 1.7-3.3 3.7-1.3 2.3-3.2 4.9-4.2 6-1.1 1.1-3.3 4.7-5 8-2.5 4.5-3.2 8.1-3.2 15.3 0 6.7 0.7 10.1 2.5 12.2 1.3 1.7 3.7 3.6 5.2 4.5 1.5 0.7 5 1.1 7.6 0.7 2.6-0.3 6.4-1.4 8.3-2.3 2-0.9 4.3-2.5 5.3-3.3 0.8-1 1.7-2.2 1.7-2.8-0.2-0.7 1.8-3.2 4.1-5.5 2.3-2.5 4.2-5 4.2-5.6 0-0.7 1.9-3.3 4.2-5.9 2.2-2.7 4.1-5.6 4.1-6.3 0-0.7 1.3-2.3 2.8-3.5 1.5-1.1 2.8-2.9 2.8-3.7 0-1 1.2-3.2 2.7-4.9 1.6-1.8 2.8-4 2.8-4.8 0-1 0.7-1.8 1.4-1.8 0.7 0 1.7-1.1 2.1-2.4 0.3-1.4 2.2-4.3 4.2-6.6 1.9-2.4 3.4-5 3.4-5.9 0-0.9 0.7-1.8 1.4-1.8 0.7 0 1.4-0.8 1.4-1.6 0-1 1.2-3.2 2.8-4.9 1.5-1.8 2.8-3.6 2.8-4.1 0-0.7 1.9-3.4 4.1-6 2.2-2.7 4.2-5.6 4.2-6.3 0-0.7 1.2-2.3 2.8-3.4 1.5-1.1 2.7-3.1 2.7-4.2 0-1.1 1.3-3 2.8-4.2 1.5-1.1 2.8-3 2.8-4.1 0-1.1 1.2-3.1 2.8-4.2 1.5-1.1 2.7-2.8 2.7-3.4 0-0.7 2.2-3.9 4.9-7 2.6-3 5.1-6.6 5.5-7.9 0.4-1.4 1.4-2.5 2.1-2.5 0.7 0 1.4-0.8 1.4-1.7 0-0.9 1.9-4 4.2-6.6 2.2-2.7 4.1-5.3 4.1-5.8 0-0.7 2-3.2 4.2-5.6 2.3-2.5 4.2-5.3 4.2-6 0-0.7 1.2-2.3 2.7-3.4 1.6-1.1 2.8-2.8 2.8-3.5 0-0.7 1.1-2.6 2.5-4.2 1.3-1.5 3.9-5 5.8-7.6 1.8-2.6 4.5-5.8 5.9-6.9 1.2-1.1 2.3-2.9 2.5-3.8 0-1 5.1-6.9 11.5-13.2 6.4-6.3 12.7-12.2 14.1-13 1.6-0.8 6-2.4 9.7-3.3 5.9-1.6 7.8-1.6 11.8 0 2.7 1.1 6 3.2 7.4 4.7 1.4 1.6 3.5 5.1 4.6 7.8 1.1 2.6 1.9 6.5 1.9 8.7 0 2.1-1.1 6.1-2.5 9-1.4 2.8-3.5 6.7-4.6 8.5-1.1 1.9-3 4.7-4.4 6.2-1.3 1.7-2.4 3.8-2.4 4.7 0 0.9-0.4 1.7-0.9 1.7-0.7 0-2.7 2.5-4.6 5.6-2 3-3.8 5.5-4.2 5.5-0.4 0-2.2 2.5-4.1 5.6-2 3-3.9 5.5-4.5 5.5-0.7 0-1.1 0.8-1.1 1.8 0.1 0.8-1.8 3.8-4.2 6.3-2.2 2.3-4.1 4.8-4.1 5.5 0 0.6-1.1 2.2-2.5 3.8-1.3 1.5-4 4.9-5.8 7.6-2 2.6-4.2 5.8-5.2 6.9-0.8 1.1-3.9 5-6.5 8.8-2.8 3.6-5 7.2-5 7.9 0 0.7-0.4 1.4-1 1.4-0.7 0-2.3 1.9-3.9 4.4-1.5 2.5-4.1 6-5.8 7.8-1.8 1.6-3.2 3.4-3.2 4.1 0 0.6-1.1 2.3-2.5 3.8-1.2 1.5-3.9 5-5.8 7.6-1.8 2.6-3.7 5.1-4.2 5.6-0.4 0.4-2.9 3.4-5.5 6.9-2.6 3.5-5.3 6.4-5.8 6.7-0.6 0.1-1.1 1.1-1.1 2 0 0.9-1.7 3.5-3.7 5.9-1.9 2.3-5.2 6.4-7.3 9-2 2.6-4.7 5.8-6 6.9-1.2 1.1-2.3 2.8-2.5 3.5 0 0.7-2.7 4.9-5.9 9-3.2 4.2-6.1 7.9-6.7 8.3-0.4 0.5-2.1 3.6-3.7 7.4-2 4.2-3.1 9.2-3.1 14.1 0 6.7 0.6 8.2 4.2 11.8q4.1 4.2 8.3 4.2c2.3 0 6.4-1.1 9.3-2.4 2.8-1.3 6.8-4.7 9-7.3 2.2-2.6 5.6-6.5 7.5-8.6 1.8-2.2 3.3-4.3 3.3-4.9-0.1-0.7 1.8-3.2 4.2-5.5 2.2-2.5 4.2-5 4.2-5.6-0.2-0.7 1.8-3.2 4.1-5.5 2.2-2.5 4.2-5 4.2-5.6 0-0.7 2.5-3.9 5.5-7.3 3.1-3.5 5.6-7 5.7-7.7 0-0.6 1.1-2.3 2.4-3.4 1.4-1.1 4-4.3 5.8-7 1.9-2.6 4.9-6.2 6.5-7.9 1.8-1.8 3.2-3.9 3.2-4.6 0-0.6 1.4-2.7 3.2-4.4 1.7-1.8 4.6-5.4 6.5-8 1.8-2.7 4.5-5.9 5.9-7 1.2-1.1 2.3-2.8 2.3-3.4 0.2-0.7 2.4-3.9 5-7 2.8-3 5-5.8 4.9-6.2 0-0.4 2.2-3.1 4.8-5.9 2.7-2.9 4.9-5.6 4.9-6.2 0-0.7 2.5-3.9 5.5-7.4 3.1-3.4 5.6-6.6 5.6-7.2 0-0.7 1.8-3 4.1-5.2 2.4-2.3 4.2-4.6 4.2-5.2 0-0.7 2.2-3.6 4.9-6.6 2.7-3.1 5-6 4.8-6.6 0-0.7 1.5-2.6 3.5-4.5 1.9-2 3.5-4.2 3.5-4.9 0-0.7 3.4-4.9 7.7-9 4.2-4.2 8.6-7.6 9.7-7.6 1.2 0 2-0.7 2-1.4 0-0.7 1.1-1.4 2.5-1.4 1.4 0 3-0.4 3.6-1 0.7-0.7 3.6-1.2 6.5-1.4 2.9-0.3 7.1 0.6 9.3 1.7 2.1 1.1 5.4 4.1 7.5 6.6 3.5 3.9 3.9 5.6 3.9 13.9 0 5.2-0.6 10.4-1.3 11.8-0.7 1.3-2.6 5.4-4.4 9-1.8 3.6-3.6 6.6-4 6.6-0.4 0-1.7 1.8-2.8 4.1-1.1 2.4-2.4 4.3-2.8 4.2-0.4 0-1.9 1.9-3.4 4.4-1.6 2.5-4.2 6-5.9 7.8-1.8 1.7-3.2 3.5-3.2 4.2 0.2 0.5-2.3 3.6-5.5 6.9-3.1 3.2-5.6 6.2-5.6 6.9 0.2 0.6-1.8 3.1-4.1 5.6-2.2 2.3-4.2 4.8-4.2 5.5 0 0.6-1.7 2.8-3.6 5.2-1.9 2.3-4.6 5.8-5.8 8-1.4 2.1-2.8 3.8-3.4 3.8-0.6 0-1.1 1.2-1.1 2.7 0 1.6-0.4 2.8-0.9 2.8-0.7 0-2 1.7-3 3.9-0.9 2.1-1.6 4.9-1.6 6.2 0 1.3-0.7 2.7-1.4 3.1-0.7 0.4-1.4 4.4-1.4 9 0 6 0.8 9.4 2.8 12.5 2.6 3.9 3.3 4.2 11.5 4.2 6.4 0 9.4-0.7 12.1-2.8 1.9-1.5 3.9-2.8 4.6-2.8 0.5 0 6.1-5.1 12.4-11.5 6.3-6.2 13.2-13.9 15.6-16.9 2.3-3.1 7.9-9.3 12.5-13.9 4.5-4.7 13-13.7 18.7-20.3 5.7-6.3 24.3-25.4 41.2-42.1 16.9-16.8 34.1-33.4 38.4-36.8 4.2-3.5 7.7-7.1 7.8-7.9 0-1 1.4-2.7 3.2-3.6 1.7-1.1 14.6-13.5 28.7-27.5 14.2-14 27.4-27.8 29.3-30.4 2-2.6 6.3-7.6 9.6-11.1 3.2-3.5 6.9-7.9 8.2-10.1 1.2-2.1 2.6-3.8 3.3-3.8 0.6 0 1-0.8 1-1.6 0-1 1.9-4.1 4.1-6.7 2.3-2.6 4.2-5.6 4.2-6.2 0.1-0.7 1.2-2.4 2.5-3.5 1.4-1.1 4-4.3 5.8-7 1.8-2.6 5.3-6.5 7.7-8.6 2.2-2 4.4-3.8 4.8-3.7 0.4 0 3.2-2.2 6.3-5 3-2.6 6.3-4.9 7.3-4.9 0.8 0 1.7-0.4 1.7-0.9 0-0.7 11.6-7.1 25.9-14.3 14.5-7.2 26.3-13.6 26.5-14.2 0.2-0.7 1.1-1.1 2.1-1.1 0.8 0 8.2-3.2 16.2-7.1 8.1-3.8 15.7-7.6 17.1-8.3 1.3-0.7 3.6-1.2 5.1-1.2 1.6 0 3.1-0.7 3.5-1.4 0.4-0.7 4.2-1.4 8.3-1.4 4.2 0 9.1 0.7 10.9 1.7 1.6 0.8 3.7 2.5 4.7 3.7 1 1.3 1.8 4.3 1.8 6.8 0 2.4 0.7 4.7 1.4 5.1 0.7 0.5 1.4 3 1.4 5.6 0 2.6-0.7 6.5-1.6 8.7-0.9 2.1-2.3 5.7-3.3 7.9-1 2.3-3.9 6-6.4 8.1-2.6 2.2-5.8 4.8-7.1 6-1.3 1.1-3.1 1.9-3.8 1.9-0.7 0-3.6 1.2-6.3 2.8-2.6 1.5-5.7 2.7-6.5 2.7-1 0-4.4 1.3-7.6 2.8-3.4 1.5-7 2.8-8.1 2.8-1.1 0-2.3 0.7-2.8 1.4-0.4 0.7-1.9 1.4-3.4 1.4-1.6 0-3.9 0.5-5.2 1.1-1.4 0.7-3.8 1.9-5.5 2.8-1.8 0.9-4.2 1.6-5.3 1.6-1.1 0-3.3 0.7-4.8 1.4-1.6 0.7-4.1 2.1-5.6 2.8-1.5 0.7-3.7 1.4-4.9 1.4-1.1 0-4.3 1.2-6.9 2.7-2.6 1.6-6.1 2.8-7.6 2.8-1.5 0-2.8 0.7-2.8 1.4 0 0.7-1.2 1.4-2.8 1.4-1.5 0-2.7 0.7-2.7 1.4 0 0.7-0.9 1.4-1.7 1.4-1 0-3.2 1.2-4.9 2.7-1.8 1.6-3.9 2.8-4.5 2.8-0.7 0-2.3 1.4-3.4 3.2-1.1 1.7-3.9 5.3-6.2 7.9-2.4 2.7-4.3 5.7-4.3 6.7 0 0.8-0.4 1.8-1 2.1-0.7 0.1-3.2 4.3-5.8 9.3-2.5 5-5.4 10.4-6.3 12-0.8 1.8-1.9 3.2-2.5 3.2-0.7 0-1.1 0.9-1.1 1.8 0 0.9-1.8 3.9-3.7 6.6-2.1 2.6-11.5 12.3-21 21.5-9.4 9.1-55.3 54.6-102 101.1-46.7 46.5-87.1 86.2-89.7 88.1-2.7 2-6.1 4.7-7.7 6.1-1.5 1.3-3.6 2.4-4.4 2.4-1 0-1.8 0.7-1.8 1.4 0 0.7-1 1.4-2.1 1.4-1.1 0-3.3 0.7-4.9 1.4-1.5 0.6-4 2-5.5 2.7-1.5 0.7-4 1.4-5.6 1.4-1.5 0-3 0.4-3.3 1.1-0.3 0.6-5.8 0.9-12.2 0.7-6.2-0.1-12.2-1-12.9-1.6-0.7-0.7-3.6-1.7-6.2-2.1-2.8-0.6-7.7-3.4-11.6-6.8-3.7-3.2-7.6-7.7-8.7-10-1.1-2.4-1.9-5.3-1.9-6.5 0-1.4-0.7-2.5-1.4-2.5-0.7 0-1.4-3.1-1.4-7 0-3.7-0.4-6.9-1-6.9-0.7 0-2.5 1.5-4.2 3.5-1.8 1.9-3.1 4.4-3.1 5.5 0 1.1-0.5 2.1-1 2.1-0.7 0-1.8 1.4-2.7 3.2-0.8 1.6-3 5.8-4.8 9.3-1.8 3.4-3.8 6.4-4.3 6.6-0.7 0.2-1.1 1.1-1.1 2.1 0 0.9-1.8 3.9-3.9 6.5-2.1 2.7-8.2 9.3-13.5 15-5.2 5.6-10.4 10-11.1 10-0.7 0-2.3 1.3-3.4 2.8-1.1 1.5-2.5 2.8-3.1 2.8-0.7 0-4.1 1.8-8 4.1-3.8 2.4-7.9 4.2-9.1 4.2-1.1 0-3.1 0.5-4.4 1.2-1.4 0.7-5 2-8 3-3.1 0.8-9.6 1.3-14.6 0.9-5-0.4-11.8-1.2-15.3-2.1-3.4-0.8-6.9-2.3-7.6-3.6-0.7-1.1-2.5-2-3.8-2.2-1.3 0-3.4-1.8-4.5-4.1-1.1-2.4-3.6-5.7-5.6-7.7-1.9-1.9-3.5-4.6-3.5-5.8 0-1.4-0.5-3.2-1.2-3.9-0.7-0.7-1.5-3.2-2.2-9.7l-9.7 0.6c-5.3 0.1-10.9 0.9-12.1 1.6-1.4 0.7-4.7 1.3-7.4 1.3-2.6 0-5.1-0.7-5.5-1.4-0.4-0.7-3.5-1.4-6.9-1.4-3.5 0-6.3-0.7-6.3-1.4 0-0.7-1.2-1.4-2.8-1.4-1.5 0-3-0.7-3.4-1.4-0.5-0.7-2-1.4-3.5-1.4-1.5 0-2.8-0.4-2.8-0.9 0-0.7-2.5-2.4-5.5-3.9-3.2-1.5-5.6-3.6-5.6-4.5 0-0.9-0.4-1.9-1-2-0.6-0.3-2.5-3.1-4.1-6.3-1.8-3.3-3.2-7.5-3.2-9.4 0-2-0.8-3.8-1.7-4-0.9-0.5-2.3-0.3-2.9 0.2-0.5 0.6-1 2.1-1 3.4 0 1.4-0.5 3.6-1.2 5-0.7 1.2-2.2 4.4-3.2 6.9-1 2.4-2.2 4.4-2.8 4.4-0.7 0-1.1 1.3-1.1 2.8 0 1.5-0.7 2.8-1.4 2.8-0.7 0-1.4 0.8-1.4 1.7 0 0.9-2.3 4.5-5.1 8-2.9 3.5-9.8 11-15.7 16.7-5.8 5.6-12.3 11.9-14.7 13.8-2.2 2-5.8 4.5-7.9 5.6-2.1 1.1-3.7 2.5-3.7 3 0 0.7-1.3 1.1-2.8 1.1-1.5 0-2.8 0.5-2.8 1 0 0.7-4 3.2-9 5.6-5 2.5-9.7 4.5-10.4 4.5-0.7 0-3.8 1.2-6.5 2.7-2.9 1.4-7.5 3.2-10.2 4.1-2.6 0.9-6.2 1.6-7.9 1.6-1.8 0-3.4 0.7-3.9 1.4-0.4 0.7-2.7 1.6-5.1 2-2.5 0.3-6.8 1-9.4 1.4-2.7 0.6-6.1 1.4-7.7 2.1-1.5 0.7-4.7 1.5-6.9 2.1-2.2 0.4-6.9 1.4-10.4 2.1-3.5 0.7-8.5 1.6-11.1 2.1-2.6 0.5-6.1 1.3-7.6 2-1.6 0.7-5 1.6-7.7 2-2.6 0.4-7 1.1-9.7 1.5-2.6 0.6-6.1 1.4-7.6 2.1-1.5 0.7-5 1.5-7.6 2.1-2.7 0.4-8 1.4-11.8 2.2-3.8 0.7-9.5 1.7-12.5 2.2-3.1 0.4-6.1 1.3-7 1.9-0.7 0.7-3.3 1.3-5.8 1.3-2.5 0-4.9 0.7-5.3 1.4-0.4 0.7-2.9 1.4-5.5 1.4-2.7 0-5.2 0.7-5.6 1.4-0.4 0.7-3 1.6-5.8 1.9-2.9 0.4-8.3 1.4-12.2 2.2-3.8 0.9-9.2 1.8-11.8 2.2-2.6 0.5-6.1 1.3-7.6 2-1.6 0.7-4.7 1.5-7 2.1-2.2 0.4-6.6 1.4-9.7 2-3 0.7-8.3 2-11.8 2.8-3.4 1-8.6 2-11.4 2.2-2.9 0.3-5.5 1.3-5.9 2-0.4 0.7-2.9 1.4-5.6 1.4-2.6 0-5.1 0.7-5.5 1.4-0.4 0.7-2.9 1.3-5.6 1.3-2.6 0-5.1 0.7-5.5 1.4-0.4 0.7-2.9 1.4-5.6 1.4-2.6 0-5.1 0.7-5.5 1.4-0.4 0.7-2.9 1.4-5.6 1.4-2.6 0-5.1 0.7-5.5 1.4-0.4 0.7-2.9 1.4-5.6 1.4-2.6 0-5.1 0.7-5.5 1.4-0.4 0.7-3.1 1.6-5.9 2-2.9 0.3-7.6 1-10.4 1.4-2.9 0.4-5.5 1.4-5.9 2.1-0.4 0.7-2.9 1.4-5.6 1.4-2.6 0-5.1 0.7-5.5 1.4-0.4 0.7-2.7 1.4-4.9 1.4-2.2 0-4.4 0.7-4.8 1.4-0.5 0.7-3.2 1.4-6.3 1.4-3 0-5.5 0.6-5.5 1.3 0 0.7-2.1 1.7-4.5 2.1-2.5 0.3-6.8 1-9.4 1.4-2.6 0.6-6.1 1.4-7.6 2.1-1.6 0.7-4.8 1.5-7 2.1-2.2 0.4-6.6 1.5-9.7 2.2-3 0.8-7.6 1.7-10 2.1-2.5 0.2-4.8 1.2-5.3 1.9-0.4 0.7-2.9 1.4-5.5 1.4-2.6 0-5.1 0.7-5.6 1.4-0.4 0.7-2.9 1.4-5.5 1.4-2.6 0-5.1 0.7-5.6 1.4-0.4 0.7-2.9 1.4-5.5 1.4-2.6 0-5.1 0.6-5.6 1.3-0.4 0.7-2.7 1.7-5.1 2-2.5 0.4-7.3 1.4-10.8 2.2-3.5 0.8-8.6 1.9-11.4 2.2-2.9 0.3-5.5 1.3-6 2-0.4 0.7-2.6 1.4-4.8 1.4-2.2 0-4.5 0.6-4.9 1.3-0.4 0.7-2.9 1.4-5.5 1.4-2.7 0-5.2 0.7-5.6 1.4-0.4 0.7-2.8 1.7-5.1 2-2.5 0.4-7.4 1.3-10.8 2.2-3.5 0.8-10.3 2.1-15.3 2.8-5 0.5-11.1 0.6-13.7 0.1-2.7-0.4-6.7-2.6-8.9-5-2.2-2.4-4.9-6.7-6-9.7-1-3.1-1.9-7.9-1.9-10.8 0-2.8 1.4-8.1 3.2-11.6 1.6-3.6 4.7-7.4 6.9-8.7 2.1-1.2 3.8-2.6 3.8-3.2 0-0.7 1.1-1.1 2.5-1.1 1.3 0 3-0.6 3.7-1.1 0.8-0.7 4.2-2 7.6-2.9 3.5-1 8.2-2.2 10.4-2.8 2.3-0.7 7-1.9 10.4-2.9 3.5-1 7.7-2.2 9.5-2.9 1.6-0.7 4.4-1.3 6.2-1.3 1.7 0 5-0.5 7.2-1.2 2.3-0.9 7-2.1 10.4-2.9 3.5-1 7.4-2.3 8.8-3 1.2-0.6 3.6-1.2 5.1-1.2 1.5 0 7.7-1.3 13.6-2.9 5.8-1.5 12.6-3.3 14.9-4 2.2-0.7 5.7-1.6 7.6-2 1.9-0.4 7.6-1.8 12.6-3.2 5.2-1.4 9.7-2.9 10.4-3.4 0.6-0.7 2.9-1.2 5.3-1.2 2.4 0 7.8-1.2 11.9-2.6 4.2-1.4 9.9-3 12.5-3.6 2.7-0.6 7.4-1.5 10.4-2.4 3.1-0.6 8.1-1.8 11.1-2.5 3.1-0.6 8.4-1.9 11.8-2.7 3.5-0.9 8.8-2.2 11.8-2.9 3.1-0.9 7.9-1.8 10.8-2.1 2.8-0.3 5.5-1.3 5.9-2 0.4-0.7 2.3-1.4 4.6-1.4 2 0 6.5-1.1 9.9-2.3 3.5-1.3 8.8-2.6 11.8-3.3 3.1-0.6 7.5-1.6 9.8-2 2.2-0.4 6.3-1.4 9-2.1 2.6-0.5 7.5-1.8 10.8-2.6 3.2-0.8 8.2-2.1 11.1-2.8 2.8-0.7 7.6-1.9 10.7-2.6 3-0.8 9.3-2.2 13.9-3.1 4.5-0.9 9.8-2.2 11.7-2.9 2-0.7 8.8-2.2 15.3-3.3 6.5-1.1 14.6-2.8 18.1-3.5 3.4-0.8 9-1.9 12.4-2.8 3.5-0.6 8.8-1.8 11.8-2.5 3.1-0.8 9.1-2 13.2-3 4.2-0.8 11.4-2.2 16-2.8 4.6-0.7 11.5-1.9 15.2-2.8 3.9-0.8 9.2-1.8 11.8-2.2 2.7-0.4 6.1-1.2 7.7-1.9 1.5-0.7 5.2-1.5 8.3-2 3-0.4 9-1.3 13.2-2.2 4.1-0.7 10.4-1.8 13.8-2.2 3.5-0.6 7-1.4 7.7-1.9 0.7-0.6 5.4-1.7 10.4-2.7 5-1 11.5-2.3 14.6-3.2 3-0.7 10.2-3.4 15.9-6.1 5.7-2.6 12.9-6.8 15.8-9.1 3.1-2.5 6.8-6 8.4-7.8 1.6-1.8 4.5-5 6.8-7.4 2-2.2 3.3-4.7 2.7-5.5-0.7-1-2.9-1.3-5.9-0.7-2.7 0.5-7.9 1.5-11.8 2.2-3.8 0.7-10 2-13.9 2.8-3.8 1-11.2 1.9-16.7 2.3-5.4 0.3-10.2 1.3-11.1 2-0.7 0.7-3.7 1.2-6.9 1.2-3.2 0-6.2 0.6-6.9 1.3-0.9 0.7-4.5 1.7-8.4 2.1-3.7 0.5-10.4 1.2-14.5 1.6-4.2 0.5-8.2 1.4-9 2.1-0.7 0.7-4.8 1.3-9.1 1.3-4.3 0-8.3 0.5-9 1.2-0.8 0.7-4.8 1.7-9 2.1-4.2 0.6-11.1 1.2-15.3 1.7-4.1 0.4-8.9 1.2-10.4 1.9-1.5 0.7-5.8 1.5-9.7 1.9-3.7 0.5-11 1.4-15.9 2.1-5 0.9-13.4 2.1-18.8 2.9-5.4 0.9-17.3 1.8-26.6 2.3-10.7 0.2-17.4 0-17.8-0.9-0.4-0.7-1.8-1.4-3-1.4-1.4 0-3.8-1.6-5.3-3.6-1.5-2-3.1-6.5-3.5-10.1-0.4-3.5-0.5-8.2-0.3-10.5 0.2-2.4 1.8-5.7 3.5-7.8 1.7-2 6-4.9 9.7-6.5 3.6-1.7 8.4-3.1 10.4-3.1 2.1 0 4.5-0.5 5.2-1.2 0.8-0.7 4.8-1.7 9-2.1 4.2-0.6 11.1-1.3 15.3-1.7 4.1-0.4 8.8-1.2 10.4-1.9 1.5-0.7 6.2-1.7 10.4-2.1 4.1-0.4 11.3-1.1 15.9-1.5 4.6-0.4 9.6-1.3 11.1-2 1.5-0.7 5.6-1.5 9-1.9 3.5-0.4 10.6-1.4 16-2.2 5.4-0.9 14-2.1 19.4-2.8 5.4-0.8 13.2-1.8 17.4-2.2 4.1-0.4 8.9-1.3 10.4-2 1.5-0.7 5.5-1.5 9-1.9 3.5-0.4 9.7-1.3 13.9-2.1 4.1-0.7 10.4-2.1 13.8-2.9 3.5-0.8 8.4-1.8 10.9-2.2 2.3-0.3 4.7-1.3 5.1-2 0.4-0.7 5.7-1.4 11.8-1.4 6.1 0 11.4-0.7 11.8-1.4 0.4-0.6 2.6-1.3 4.9-1.3 4 0 4.1-0.2 3.4-5.6-0.4-3-1-8-2.1-16.6l-12 0.5c-6.8 0.3-15.3 1.3-19.2 2.2-3.7 0.9-12.2 2.3-18.7 2.9-6.5 0.7-17.1 2-23.6 2.7-6.5 0.7-15.5 1.7-20.1 2.1-4.6 0.4-9.6 1.4-11.1 2-1.6 0.7-6.5 1.6-11.1 2-4.6 0.4-13.1 1.4-18.8 2.2-5.6 0.8-14.7 2.1-20.1 2.9-5.4 0.7-13.7 1.7-18.7 2.1-5 0.4-9.6 1.4-10.4 2.1-0.7 0.7-5.8 1.2-11.4 1.2-5.5 0-10.4 0.7-10.8 1.4-0.4 0.9-8.6 1.4-20.1 1.4-11.6 0-19.7-0.5-20.2-1.4-0.4-0.7-2.2-1.4-4.1-1.4-2 0-3.9-1.1-4.5-2.3-0.7-1.3-2.7-4.2-4.8-6.3-3.3-3.3-3.9-5-3.9-11.9 0-6.2 0.8-8.9 3.5-12.5 1.9-2.3 4.8-5.1 6.6-6.1 1.7-0.8 5.6-2.2 8.6-2.8 3.1-0.7 9.6-1.9 14.6-2.6 5-0.7 13.7-1.9 19.4-2.8 5.7-0.7 15.2-1.9 20.8-2.6 5.7-0.7 15.2-2 20.9-2.8 5.6-0.8 14.7-2.1 20.1-2.8 5.4-0.8 14-2 19.4-2.7 5.4-0.7 14.4-2 20.1-2.8 5.7-0.8 15.4-2 21.5-2.7 6.1-0.5 12.1-1.3 13.2-1.9 1.1-0.6 7.6-1.2 14.6-1.5 6.9-0.3 16.2-1 20.8-1.5 4.6-0.6 9.6-1.6 11.1-2.1 1.5-0.7 6.5-1.6 11.1-2 4.6-0.3 10.3-0.9 12.5-1.5 2.2-0.4 5.7-1.5 7.6-2.4 2-0.8 4.6-1.9 6-2.6 1.2-0.7 4.3-1.2 6.5-1.2 3.5 0 4.2-0.6 4.2-3.5 0-2 0.7-3.8 1.4-4.2 0.6-0.4 1.3-4.4 1.3-17.3h-13.6c-7.5 0-14.1 0.5-14.8 1.2-0.8 0.7-4.2 1.6-7.6 2-3.5 0.4-9.8 1.5-13.9 2.3-4.2 1-14.2 2.3-22.2 2.9-8.1 0.7-18.9 1.6-24.3 2-5.4 0.4-11 1.4-12.5 2.1-1.5 0.7-6.8 1.5-11.8 1.9-5 0.4-13.9 1.4-19.7 2.2-6 0.7-15.7 2.1-21.5 2.8-6 0.8-14.6 1.8-19.1 2.2-4.6 0.4-9.6 1.3-11.1 2-1.6 0.7-7.1 1.6-12.5 2.1-5.4 0.4-13.2 0.9-17.4 1.2-4.1 0.3-8.9 1-10.4 1.7-1.5 0.5-7.5 1.2-13.2 1.4-5.7 0.1-14.4 0.2-19.4 0.2-5 0.2-9.3-0.2-9.7-0.8-0.4-0.6-1.9-1.7-3.5-2.5-1.5-0.8-3.4-2.8-4.1-4.4-0.7-1.7-1.8-3.1-2.4-3.1-0.7 0-1.1-1.1-1.1-2.5 0-1.2-0.7-3-1.5-3.7-1.1-1-1.1-2.3 0-4.6 0.8-1.7 1.5-4.7 1.5-7q0-3.7 4.4-8c2.5-2.4 7.1-5 10.2-5.8 3-0.9 7.7-2 10.4-2.4 2.6-0.4 8.3-1.4 12.5-2.2 4.1-0.8 12.9-2 19.4-2.6 6.5-0.7 16.8-2 22.9-2.7 6.1-0.7 16.6-2.1 23.6-2.9 6.9-0.8 18.4-2.1 25.6-2.9 7.3-0.7 18.8-1.7 25.7-2.1 7-0.4 13.2-1.4 13.9-1.9 0.7-0.6 7.3-1.3 14.6-1.4 7.2-0.2 13.8-0.6 14.5-1.1 0.7-0.6 7.9-1.4 16-2 8-0.5 18.6-1.6 23.6-2.5 5-0.8 14.3-1.9 20.8-2.5 9.1-0.7 11.8-1.4 11.8-3 0-1.1-1.3-2.2-2.8-2.5-1.5-0.2-3.7-2.4-5-4.9-1.7-3.3-4-5-9-6.9-3.8-1.3-8.1-2.4-9.6-2.4-1.5 0-3.5-0.5-4.1-1.2-0.9-0.7-16.7-1.5-35.4-1.7-26.3-0.3-34.9 0-37.5 1.5-2.5 1.3-6.7 1.6-15.5 0.9-9.3-0.6-14.2-0.3-20.2 1.4-6.2 1.8-11.1 2-21.2 1.3-9.7-0.5-15.2-0.2-21.1 1.3-5.8 1.5-14.7 2.1-31.2 1.9-12.9-0.1-26.8 0.6-30.9 1.4-4.8 1-20.4 1.6-41.7 1.4-18.7-0.1-34.9 0.3-36 1-1.2 0.7-8.1 1.6-15.3 2.2-7.2 0.4-16.2 1.5-20.1 2.2-3.8 0.9-9.5 2.2-12.5 3.1-3.1 0.8-7.1 1.9-8.9 2.5-1.8 0.5-3.5 1.4-3.7 1.9-0.3 0.7-2.1 1.1-4.1 1.1-1.9 0-3.4 0.7-3.4 1.4 0 0.7-1.1 1.4-2.4 1.4-1.4 0-3.5 1.3-4.6 2.8-1.1 1.5-2.9 2.8-3.7 2.8-1 0-8.5 6.5-16.7 14.4-8.3 7.9-17.2 16.2-19.8 18.3-2.6 2.2-5.8 5-7 6.1-1.1 1.3-4.3 3.8-6.9 5.6-2.6 1.8-5.8 4.4-6.9 5.8-1.1 1.2-3.1 2.5-4.2 2.5-1.1 0-3 1.2-4.2 2.5-1.1 1.2-4 3.4-6.2 4.8-2.4 1.4-5.3 2.8-6.5 3.2-1.4 0.3-2.5 1.3-2.5 2 0 0.7-1.3 1.4-2.8 1.4-1.5 0-2.8 0.7-2.8 1.3 0 0.7-0.9 1.4-2 1.4-1.2 0-3.2 0.6-4.5 1.3-1.4 0.7-4.4 1.9-6.6 2.9-2.3 1-5.5 2.2-7 2.8-1.5 0.5-5.5 1.8-9 2.7-3.5 0.9-8.2 2.1-10.4 3-2.2 0.7-5.4 1.2-7.1 1.2-1.5 0-3.3 0.6-4.2 1.3-0.6 0.7-3.7 1.5-6.8 2-3 0.5-9.2 1.4-13.8 2.3-4.6 0.7-11.8 2-16 2.7-4.1 0.9-11.1 2.1-15.2 2.9-4.2 0.9-10.7 1.9-14.6 2.1-3.8 0.4-7.5 1.4-8.3 2.1-0.7 0.7-4.5 1.3-8.4 1.3-3.9 0-7.6 0.5-8.4 1.2-0.7 0.7-5.3 1.7-10.3 2.2-5 0.4-16.1 1.1-40.2 2.1l-6.3-6c-3.7-3.4-6.2-7-6.2-9 0-1.6-0.6-3.3-1.4-3.7-0.8-0.4-1.4-2.7-1.4-4.9 0-2.2 0.6-4.4 1.4-4.8 0.8-0.5 1.4-2.1 1.4-3.9 0-1.7 1.1-4.6 2.3-6.4 1.4-1.9 4.7-4.3 7.4-5.4 2.6-1.1 6.8-2.2 9-2.7 2.2-0.2 5.7-1.1 7.6-1.8 2-0.6 6.7-1.5 10.4-2 3.9-0.5 10.4-1.6 14.6-2.3 4.2-0.7 11.4-1.9 16-2.7 4.5-0.7 11.5-1.7 15.2-2.1 3.9-0.4 7.5-1.4 8.2-2.1 0.9-0.7 4.9-1.2 9-1.2 5.4 0 9.3-1 12.7-3 3.6-2 5.5-2.5 7.6-1.5 1.5 0.7 4 0.8 5.5 0.2 1.6-0.6 6.2-1.2 10.2-1.2 3.9-0.1 7.5-0.8 7.9-1.5 0.4-0.7 3.2-1.4 6.2-1.4 3.1 0 5.9-0.7 6.3-1.4 0.4-0.7 2.2-1.3 4.1-1.3 2 0 3.5-0.7 3.5-1.4 0-0.7 1.3-1.4 2.8-1.4 1.5 0 2.8-0.7 2.8-1.4 0-0.7 0.8-1.4 1.9-1.4 1.1 0 13.9-11.8 28.4-26.4 14.5-14.5 27.2-26.3 28.2-26.3 1 0 2.8-1.3 3.9-2.8 1.1-1.5 2.8-2.8 3.5-2.8 0.7 0 2.7-1.2 4.5-2.7 1.7-1.6 9.2-6 16.7-9.8 7.4-3.8 14.6-6.9 16-6.9 1.2 0 2.3-0.7 2.3-1.4 0-0.7 1.3-1.4 2.8-1.4 1.5 0 2.8-0.4 2.8-1.1 0-0.5 4.8-2.5 10.8-4.1 5.8-1.9 11.8-3.9 13.2-4.6 1.2-0.7 3.6-1.3 5.1-1.3 1.5 0 3.1-0.7 3.5-1.4 0.4-0.7 2.2-1.4 4.1-1.4 2 0 3.8-0.4 4.1-1.1 0.2-0.5 2.3-1.3 4.4-1.9 2.2-0.4 6.5-1.7 9.6-2.5 3-0.8 8-2.1 11.1-2.8 3-0.7 8.3-1.9 11.8-2.8 3.4-0.8 18.4-2.3 33.3-3.3 19.5-1.4 31.2-1.5 42.3-0.5 9.3 0.8 24.8 0.9 39.5 0.2 13.4-0.7 46.2-0.9 72.9-0.7 26.8 0.3 59 0.9 94.9 2.3l0.6-12.5c0.2-7 1.1-14.5 1.6-16.7 0.6-2.2 2.7-7.6 4.6-11.8 2.1-4.1 4.4-8.2 5.1-9 0.9-0.7 3.1-3.6 4.9-6.2 1.8-2.7 7.9-9.5 13.4-15 5.6-5.4 10.9-10 11.6-10 0.7 0 3.3-1.9 5.5-4.2 2.2-2.2 5-4.1 5.8-4.1 1 0 2.8-1.3 3.9-2.8 1.1-1.5 3.2-2.8 4.5-2.8 1.4 0 2.5-0.4 2.5-1.1-0.2-0.5 5.4-3.7 12-7.2 6.7-3.5 12.4-6.7 12.5-7.2 0.3-0.7 1.7-1.1 3.2-1.1 1.5 0 3.1-0.7 3.5-1.4 0.4-0.7 1.7-1.4 2.8-1.4 1.1 0 6.2-2 11.3-4.4 5.3-2.5 10.7-5.6 12.2-7 1.6-1.4 3.2-2.5 3.8-2.5 0.7 0 3.2-1.9 5.5-4.1 2.5-2.4 5-4.3 5.6-4.2 0.7 0 2.8-1.8 4.9-3.9 2.2-2.1 6.1-5.4 8.7-7.2 2.6-1.8 6.4-5 8.3-6.9 2-2 5.7-5.2 8.3-7 2.7-1.9 8.5-7.1 12.8-11.4 4.5-4.4 8.8-8 9.4-8 0.9 0 5.3-3.9 10.2-8.6 4.7-4.9 11.1-10.7 14.1-12.9 3.1-2.2 7.7-6.3 10.4-8.8 2.7-2.6 7.1-6.3 9.8-8.3 2.6-2.1 6.3-5.3 8.3-7.2 1.9-1.9 5.7-5.1 8.3-6.9 2.6-1.8 5.1-3.8 5.6-4.2 0.4-0.6 3.6-2.9 7.3-5.3 3.6-2.5 7.2-4.4 7.9-4.4 0.7 0 1.4-0.4 1.4-1.1 0-0.6 1.7-1.8 3.9-2.8 2.1-1 4.6-1.7 5.5-1.7 0.9 0 1.7-0.4 1.7-1.1 0-0.5 1.7-1.6 3.7-2.5 2.3-0.8 7.4-2.9 11.6-4.6 4.1-1.6 8.4-2.9 9.3-2.9 0.9 0 2.9-0.5 4.1-1.2 1.4-0.7 5.3-2 8.8-2.9 3.4-0.9 8-2.1 10.4-2.9 2.3-0.7 5.5-1.3 7.2-1.3 1.8 0 3.5-0.7 3.9-1.4 0.4-0.7 3-1.6 5.8-1.9 2.9-0.3 8.1-1.4 11.5-2.2 3.5-0.9 8.1-2 10.4-2.3 2.4-0.4 5.4-1.2 7-1.9 1.5-0.7 4.8-1.5 7.2-1.9 2.5-0.5 6.6-1.3 9-1.7 2.5-0.4 5.8-1.3 7.4-2 1.5-0.7 4.9-1.5 7.6-1.9 2.6-0.4 7.6-1.2 11.1-2.1 3.5-0.7 8.7-1.9 11.8-2.8 3-0.8 7.3-1.8 9.7-2.2 2.4-0.4 6.7-1.5 9.7-2.2 3.1-0.8 8.1-2.1 11.1-2.9 3.1-0.8 6.9-2 8.6-2.6 1.8-0.7 4.6-1.9 6.3-2.5 1.8-0.7 5.2-2.1 7.7-3.2 2.4-1 4.5-2.3 4.5-2.9 0-0.6 0.9-1 2-1 1.2 0 3.5-1.3 5.2-2.8 1.8-1.5 4-2.8 4.8-2.8 1 0 1.8-0.7 1.8-1.4 0-0.7 0.9-1.3 1.7-1.3 1 0 4.6-2.5 8.1-5.6 3.4-3 6.9-5.5 7.6-5.7 0.7 0 2.3-1.1 3.5-2.3 1.1-1.4 4.3-4.1 6.9-5.9 2.6-1.9 6.9-5.4 9.4-7.9 2.5-2.5 5.2-4.6 5.9-4.6 0.8 0 4-2.6 7.3-5.9 3.2-3.2 8.3-7.8 11.4-10 3-2.2 7.3-6.1 9.7-8.3 2.4-2.3 7.6-7 11.8-10.5 4.2-3.4 10.4-9 13.9-12.3 3.4-3.3 9-8.3 12.5-11.1 3.3-2.8 8.3-7.1 11.1-9.6 2.6-2.5 5.1-4.4 5.5-4.4 0.4 0 2.5-1.5 4.9-3.5 2.3-1.9 5-3.5 5.8-3.5 1 0 1.8-0.6 1.8-1.3 0-0.7 1.2-1.4 2.8-1.4 1.5 0 3-0.7 3.4-1.4 0.6-0.7 4.6-1.4 9.1-1.4zm-1553 319.1c2.1 0 5.1 1.3 6.9 2.8 1.7 1.5 3.2 2.8 3.5 2.8 0.1 0 3 2.8 6.5 6.1 3.5 3.3 8.6 8.6 11.5 11.8 2.8 3.2 5.2 6.1 5.2 6.7 0 0.6 1.9 3.3 4.1 5.9 2.2 2.7 4.2 5.3 4.2 5.8 0 0.7 1.6 3 3.9 5 2 2.3 4.7 5.9 5.7 8.1 1.1 2.2 3.4 5.8 5 8.2 1.6 2.2 4.5 7.2 6.5 11.1 1.9 3.7 4.1 8.4 4.8 10.4 0.9 1.9 2.8 6.1 4.5 9.3 1.5 3.3 2.9 7.2 2.9 8.7 0 1.5 0.7 3.1 1.4 3.5 0.8 0.4 1.4 2.2 1.4 4.2 0 1.9 0.7 3.7 1.3 4.1 0.9 0.4 1.4 2.5 1.4 4.9 0 2.2 0.5 4.4 1.1 4.7 0.6 0.3 1.4 3.2 2.1 6.5 0.6 3.3 1.4 8.6 1.8 11.7 0.4 3 1.3 6.8 2 8.3 0.7 1.5 1.5 6.2 1.9 10.4 0.4 4.2 1.3 12.4 1.8 18 0.7 5.7 0.7 25.4 0.2 43.7-0.6 18.4-1.6 40.8-2.3 50-0.7 9.2-1.9 18.9-2.6 21.5-1 4-1.9 5-5.3 5.3-3.3 0.4-5.4-0.7-9.7-4.9-3-2.9-6.6-5.8-7.9-6.4-1.4-0.5-2.5-1.6-2.5-2.3 0-0.8-1.4-2.8-3-4.6-1.8-1.8-4.3-3.6-5.6-4.2-1.4-0.5-2.5-1.8-2.5-2.7-0.1-0.9-1.5-2.8-3.2-4.2-1.6-1.4-3-3.3-3-4.3 0-1-2.4-4-5.2-6.9-2.9-2.8-5.2-5.9-5.2-6.8-0.2-0.9-1.3-2.7-2.5-3.8-1.3-1.1-3.4-3.7-4.5-5.9-1.1-2.1-2.5-3.8-3-3.8-0.7 0-1.1-1.2-1.1-2.8 0-1.5-0.6-2.7-1.4-2.7-0.7 0-1.4-0.9-1.4-1.8 0-0.9-1.3-3.1-2.8-4.9-1.5-1.7-2.8-4-2.8-5.1 0-1.1-0.5-2.1-1.4-2.1-0.7 0-1.3-1.3-1.3-2.8 0-1.5-0.6-2.8-1.4-2.8-0.7 0-1.4-1.2-1.4-2.7 0-1.6-0.6-2.8-1.4-2.8-0.7 0-1.4-1.3-1.4-2.8 0-1.5-0.4-2.8-1-2.8-0.7 0-2-3-3.2-6.9-1.1-3.9-2.5-6.9-3-6.9-0.7 0-1.1-1.6-1.1-3.5 0-2-0.6-3.8-1.4-4.2-0.7-0.4-1.4-2.2-1.4-4.1 0-2-0.6-3.8-1.4-4.2-0.7-0.4-1.4-2.6-1.4-4.9 0-2.3-0.5-4.4-1.4-4.8-0.7-0.4-1.6-3.1-2-6-0.5-2.8-1.1-7.6-1.6-10.7-0.4-3-1.2-6.8-1.9-8.3-0.7-1.5-1.7-6.5-2.2-11.1-0.4-4.6-0.9-21.5-0.9-37.5 0-16.1 0.6-33.5 1.4-38.8 0.9-5.4 2.2-13.2 3.1-17.4 0.8-4.1 1.8-9.9 2.2-12.9 0.3-2.7 1.2-5.4 1.9-5.8 0.9-0.4 1.3-1.8 1.2-3.2-0.2-1.5 0.8-4.6 2.2-6.9 1.6-3.3 3.3-4.5 6.1-4.5zm1966.7-3.8c1.4 0.5 3.4 3.1 4.5 5.5 1.1 2.5 2.9 9.3 4.1 15 1.3 5.7 3.2 15.7 4.3 22.2 1.2 6.5 2.7 19.1 3.5 28 1 11.4 1 22.4 0 35.4-0.8 10.6-2.1 21.9-2.8 25.4-0.7 3.5-2.3 10.5-3.6 16-1.2 5.2-3.7 14.4-5.5 20.1-2 5.7-4 11.8-4.7 13.4-0.9 1.8-2 4.6-2.7 6.3-0.7 1.8-2.6 6.2-4.3 10.1-1.6 3.8-3.9 8.5-4.7 10.4-0.8 2-1.8 3.8-2.2 4.2-0.4 0.4-2.4 3.6-4.2 7.3-1.9 3.6-3.9 6.6-4.4 6.6-0.7 0-1.1 0.6-1.1 1.3 0 0.7-3.2 6.3-7.2 12.1-3.9 6-7.5 11.1-8.1 11.5-0.4 0.4-2.3 2.9-4.2 5.6-1.9 2.6-4.4 6.1-5.5 7.6-1.1 1.5-8.6 9.6-16.7 17.8-11.7 12.2-15.2 14.8-21.5 14.1l0.2-69.4c0.1-47.8 0.7-70.3 1.8-72.5 0.8-1.7 1.5-6 1.5-9.7 0-3.6 0.6-8.5 1.3-10.7 0.8-2.4 2-7 3-10.4 0.8-3.5 2.8-10 4.3-14.6 1.5-4.6 6.8-16.8 11.8-27.1 4.9-10.2 9.4-19 10-19.4 0.6-0.4 2.9-3.9 5.3-7.6 2.5-3.9 6.2-9.3 8.3-12.2 2.1-2.9 5.4-7.1 7.4-9.2 1.8-2.2 3.1-4.7 3-5.5-0.1-0.9 0.1-1.6 0.8-1.6 0.6 0 2-1.6 3.1-3.7 1.1-2.2 3.3-5.3 4.8-6.8 1.6-1.7 4.5-5.3 6.4-7.9 2-2.8 5.4-5.8 7.7-7 2.3-1.1 4.8-1.3 6.3-0.6zm-1644.1-71.1c0.5 0 2.2 1.3 3.7 2.8 1.6 1.5 4.3 6 6.3 9.7 1.9 3.9 3.5 8.2 3.5 9.7 0 1.5 0.6 3.1 1.3 3.5 0.7 0.4 1.4 2.2 1.4 4.1 0 2 0.6 4.6 1.3 6 0.7 1.3 1.8 3.9 2.5 5.8 0.8 2 2.1 5 2.9 7 0.7 1.9 2.6 6.4 4.3 10.1 1.7 3.6 2.9 6.9 2.9 7.6 0.1 0.6 1.9 3.1 4.2 5.6 2.3 2.3 4.1 5.1 4.1 5.8 0 0.7 0.7 2.2 1.4 3.2 0.8 0.8 6.8 9.9 13.5 19.7 6.5 10 13.3 21.4 15.1 25.4 1.8 3.9 3.7 9.9 4.3 13.2 0.7 4.3 0.3 6.8-1.4 9.7-2.2 3.5-2.9 3.7-11.6 3.5-5.3-0.2-12.3-1.1-15.7-2.1-3.5-1.1-7.8-3.5-9.7-5.4-2-2-4.3-3.5-5.2-3.4-0.9 0-1.8-0.4-1.8-0.9 0-0.7-1.6-2.1-3.7-3.5-2.2-1.2-6.8-5-10.6-8.3-3.6-3.2-6.5-6.8-6.5-7.7 0-0.9-1-1.8-2.1-1.8-1.1 0-2-0.8-2-1.6 0-1-2-4-4.2-6.7-2.2-2.6-4.2-5.7-4.2-6.5 0-1-0.7-1.8-1.4-1.8-0.7 0-1.4-1.3-1.4-2.8 0-1.5-0.6-2.8-1.3-2.8-0.7 0-1.4-1.2-1.4-2.7 0-1.6-0.7-2.8-1.4-2.8-0.7 0-1.4-1.5-1.4-3.5 0-1.9-0.7-3.7-1.4-4.1-0.7-0.5-1.4-3-1.4-5.6 0-2.6-0.7-5.1-1.4-5.5-0.8-0.5-1.4-7.9-1.4-18.1 0-10.1 0.6-17.6 1.4-18 0.7-0.4 1.4-2.9 1.4-5.6 0-2.6 0.7-5.1 1.4-5.5 0.7-0.4 1.4-2 1.4-3.5 0-1.5 0.6-3.9 1.2-5.1 0.7-1.4 2.1-4.3 3.1-6.7 1-2.2 3.3-5.5 5.3-7.2 1.9-1.8 4-3.2 4.7-3.2zm-15.7-105.3c2 0 4.3 0.4 5.3 1 1.2 0.7 1.6 4 1.2 12.7-0.4 6.6-1.2 14.6-2 18.1-0.7 3.4-2.4 9.4-3.7 13.2-1.2 3.8-2.9 8-3.6 9.4-0.8 1.2-1.4 3-1.4 3.7 0 0.7-1.2 4.1-2.7 7.4-1.6 3.2-2.8 6.6-2.8 7.6 0 0.9-0.7 1.7-1.4 1.7-0.7 0-1.4 1.2-1.4 2.8 0 1.5-0.4 2.9-0.9 3.2-0.7 0.1-2.3 2.2-3.7 4.4-1.3 2.4-2.7 5.3-3.1 6.7-0.3 1.2-1.3 2.3-2 2.3-0.7 0-1.4 1.3-1.4 2.8 0 1.5-0.4 2.8-0.9 2.8-0.7 0-2.1 1.6-3.2 3.7-1.2 2.2-3.2 5.1-4.6 6.7-1.3 1.5-2.4 3.6-2.4 4.5 0 0.9-0.4 1.9-0.9 2.1-0.7 0.2-3 2.5-5 5.2-2.3 2.6-6 7.3-8.4 10.4-2.5 3-10.9 12-19 20.1-8 8-16.5 16.1-18.7 18-2.4 2-6.4 5-9 7-2.7 1.8-5.9 4.3-7 5.5-1.1 1.1-3.7 3.1-5.9 4.2-2.1 1.1-3.8 2.5-3.8 3.2 0 0.5-0.8 0.9-1.6 0.9-1 0-3.1 1.2-4.6 2.4-1.6 1.4-4.5 3.5-6.7 4.6-2.1 1.1-3.7 2.5-3.7 3.2 0 0.5-1.3 0.9-2.8 0.9-1.5 0-2.8 0.7-2.8 1.4 0 0.7-1.2 1.4-2.8 1.4-1.5 0-2.7 0.7-2.7 1.4 0 0.7-1.3 1.7-2.8 2.1-1.5 0.4-3.6 1.5-4.6 2.5-1 0.8-3.3 2.5-5.1 3.6-2 1.1-7.2 3.7-11.8 6.1-5.4 2.6-9.5 3.7-11.4 3.2-2.5-0.7-3.2-1.8-3.2-5.7 0-2.6 0.6-5.1 1.4-5.6 0.8-0.4 1.4-2.4 1.4-4.8 0-2.2 0.5-4.4 1.4-4.9 0.8-0.4 1.4-2.2 1.4-4.1 0-2 0.5-3.8 1.4-4.2 0.8-0.4 1.3-1.9 1.3-3.5 0-1.5 0.6-4 1.4-5.5 0.9-1.5 2-4 2.8-5.6 0.8-1.5 1.4-4 1.4-5.5 0-1.5 0.5-2.8 1.4-2.8 0.8 0 1.4-1.8 1.4-4.1 0-2.3 0.5-4.2 1.4-4.2 0.8 0 1.3-1.3 1.3-2.8 0-1.5 0.6-3 1.4-3.5 0.9-0.4 1.4-2.2 1.4-4.1 0-2 0.6-3.5 1.4-3.5 0.8 0 1.4-1 1.4-2.1 0-1.1 0.5-3.3 1.4-4.8 0.8-1.6 1.9-4 2.8-5.6 0.8-1.5 1.3-3.7 1.3-4.8 0-1.1 0.6-2.1 1.4-2.1 0.9 0 1.4-0.8 1.4-1.7 0-0.9 2-5.8 4.5-10.8 2.5-5 5-9.2 5.5-9.3 0.7-0.3 1.1-1.7 1.1-3.2 0-1.5 0.6-2.8 1.4-2.8 0.8 0 1.4-1.2 1.4-2.7 0-1.6 0.4-2.8 1-2.8 0.7 0 2-1.7 3.2-3.8 1.1-2.2 3.1-4.8 4.4-5.9 1.2-1.1 2.4-3.1 2.4-4.2 0.1-1.1 1.3-3 2.9-4.2 1.5-1.1 2.7-2.9 2.7-3.7 0-1 7.1-8.9 15.6-17.5 8.6-8.6 17.9-17.2 20.5-19 2.7-1.9 6.1-4.6 7.7-5.8 1.5-1.4 3.1-2.5 3.7-2.5 0.7 0 2.5-1.3 4.2-2.8 1.8-1.5 4-2.8 4.8-2.8 1 0 2-0.4 2-1.1 0.1-0.5 2.2-1.8 4.5-2.9 2.4-1.1 5.9-3 7.8-4.3 2-1.2 5.7-3 8.3-4 2.7-1 6.3-2.4 7.9-3.1 1.8-0.7 4.6-1.8 6.3-2.5 1.8-0.7 5.7-2 8.7-3 3.1-0.9 6.6-2.1 7.7-2.8 1.1-0.6 3.6-1.1 5.5-1.1zm-192.9-79.2c0.5 0 2.4 1.1 4.6 2.7 2.1 1.6 3.8 3.8 3.8 4.9 0 1.1 0.4 2.1 1.1 2.1 0.5 0 1.9 2.2 3 4.8 1.3 2.9 2.8 4.6 3.9 4.2q1.7-0.7 1.7 3.2c-0.2 2.1 1.1 5.4 2.8 7.6 1.5 2.1 2.7 5.3 2.7 7.2 0 2 1.6 6.1 3.5 9.5 2.2 3.7 3.5 7.9 3.5 11.8 0 3.2 0.4 6.1 1.1 6.3 0.5 0.3 1.8 4.5 2.7 9.3 1 4.9 2.4 11.1 3.1 13.8 0.7 2.6 1.9 9.3 2.8 14.6 0.9 5.4 1.5 17.2 1.5 26.3-0.1 9.2-0.7 18.9-1.5 21.5-0.7 2.7-1.4 7.8-1.4 11.5 0 3.6-0.6 6.8-1.4 7.3-0.7 0.4-1.7 2.7-1.9 5.2-0.3 2.4-1.3 7-2.3 10-0.8 3.1-1.9 7.1-2.2 9-0.4 2-1.2 4.8-1.9 6.3-0.6 1.5-1.8 5.5-2.8 9-1 3.5-2.8 9.7-4.2 13.9-1.3 4.1-3.2 10.4-4.1 13.9-1 3.4-2.2 7.4-2.8 9-0.6 1.5-1.8 5.5-2.8 9-0.9 3.5-3 10.3-4.6 15.3-1.3 4.9-3.1 10.1-3.8 11.5-0.7 1.2-1.3 3.9-1.3 5.8 0 1.9-0.5 3.7-1.4 4.2-0.7 0.4-1.4 1.8-1.4 3.2 0 1.2-0.7 4-1.6 6.2-1 2.1-2.9 4-4.2 4.4-1.4 0.5-3.7 0.5-5.3 0-1.5-0.4-3.6-2.6-4.4-4.8-1-2.4-2.2-4.2-2.8-4.2-0.7 0-1.1-1.2-1.1-2.8 0-1.5-0.5-2.7-1.4-2.7-0.7 0-1.4-1.3-1.4-2.8 0-1.5-0.5-2.8-1.4-2.8-0.6 0-1.3-1.2-1.3-2.8 0-1.5-0.6-3-1.4-3.4-0.7-0.4-1.4-2.2-1.4-4.2 0-1.9-0.6-3.5-1.4-3.5-0.7 0-1.4-1.2-1.4-2.7 0-1.6-0.5-2.8-1.4-2.8-0.7 0-1.4-1.3-1.4-2.8 0-1.5-0.5-3.9-1.2-5.1-0.7-1.4-2-4.3-2.9-6.7-1-2.2-2.2-5.3-2.9-6.5-0.7-1.4-1.3-4-1.3-6 0-1.9-0.5-3.7-1.4-4.1-0.7-0.4-1.6-2.8-1.9-5.2-0.3-2.5-1.4-7-2.2-10.1-1-3-2-8-2.4-11.1-0.4-3-1.2-6.2-1.9-6.9-0.7-0.7-1.3-4.5-1.3-8.4 0-3.7-0.5-7.6-1.4-8.3-1-0.8-1.2-11.9-0.8-31.2 0.3-16.4 1-32.6 1.4-36.1 0.5-3.4 1.5-7.5 2.2-9 0.7-1.5 1.5-5 2.1-7.6 0.4-2.7 1.1-7 1.4-9.3 0.4-2.5 1.4-4.9 2-5.3 0.9-0.4 1.4-1.9 1.4-3.5 0-1.5 0.6-3.9 1.4-5.1 0.7-1.4 2.7-6.5 4.3-11.5 1.7-5 3.5-9.7 4.2-10.4 0.7-0.7 1.2-2.5 1.2-3.8 0-1.4 0.7-2.5 1.4-2.5 0.9 0 1.4-1.2 1.4-2.7 0-1.6 0.7-2.8 1.4-2.8 0.8 0 1.4-1.3 1.4-2.8 0-1.5 0.7-2.8 1.4-2.8 0.8 0 1.4-1.2 1.4-2.7 0-1.6 0.4-2.8 1.1-2.8 0.5 0 1.6-1.4 2.5-3.2 0.8-1.7 3-5.8 4.8-9.3 1.8-3.5 4.2-7.1 5.2-7.9 0.8-1 1.9-2.9 2.3-4.2 0.3-1.4 2.4-3.6 4.5-4.8 2.2-1.4 4.1-2.5 4.5-2.5zm1743.5-4.2c1.1 0 4.6 3.3 7.8 7.4 3.2 3.8 9.4 14.9 14 24.5 4.6 9.6 8.9 18.5 9.6 19.9 0.7 1.2 2.8 6.9 4.6 12.4 1.8 5.5 4.3 13.5 5.5 17.7 1.3 4.1 3.2 11.8 4.3 17 1.1 5.2 2.4 14.5 2.8 20.8 0.4 6.3 1 17.9 1.3 26 0.2 8 0 18.9-0.7 24.3-0.6 5.4-1.8 13.7-2.7 18.7-0.7 5-2.1 12.2-2.9 16-0.7 3.9-1.7 9-2.1 11.5-0.2 2.3-1.2 4.7-1.9 5.1-0.7 0.4-1.4 2.2-1.4 4.2 0 1.9-1.9 8.6-4.3 15-2.5 6.2-5.3 13.8-6.4 16.9-1.1 3-2.9 7.8-4.1 10.4-1.2 2.6-2.8 6.4-3.5 8.3-0.9 2-2.1 4.7-2.9 6.3-0.9 1.5-3.4 6.2-5.6 10.4-2.1 4.1-5 8.7-6.2 10.1-1.3 1.4-3.4 2.5-4.5 2.5-1.1 0-3-1.1-4.3-2.5-1.2-1.4-2.7-4.4-3.3-6.7-0.7-2.2-1.2-4.8-1.4-5.5-0.1-0.7-2.5-6.7-5.3-13.2-2.6-6.5-7.3-18.3-10.4-26.3-3-8.1-6.5-18.1-7.9-22.2-1.2-4.2-2.9-9.9-3.7-12.5-0.7-2.7-2-7.4-2.7-10.4-0.8-3.1-2-8.4-2.7-11.8-0.7-3.5-2-9.3-2.8-13.2-0.7-3.8-2.1-11.3-2.9-16.7-0.7-5.4-1.7-13.4-1.8-18-0.3-4.6-0.6-14.3-0.9-21.5-0.2-8.2 0.3-14.4 1.3-16.3 1-1.8 1.7-5.9 1.7-9.4 0-3.5 0.5-7.6 1.2-9.3 0.7-1.8 1.9-6 2.9-9.4 0.9-3.5 2.2-8.5 3.1-11.1 0.8-2.7 4-10.4 6.9-17.4 3.1-6.9 5.7-13.4 5.8-14.5 0.2-1.1 1-3.1 2-4.2 1-1.1 3.3-4.6 5.3-7.6 2-3.1 4.8-8.2 6.2-11.4 1.5-3.3 4.4-7.9 6.8-10.1 2.2-2.3 5-4.2 6.2-4.2zm-1223.4-13.7c6.2-0.2 11.7 0.4 12.1 1.2 0.4 0.7 2.8 1.7 5.2 2.1 2.4 0.3 6.7 1 9.3 1.4 2.7 0.5 6.3 1.5 8.1 2.2 1.7 0.7 4.4 1.8 6.2 2.5 1.7 0.7 5.4 2.2 8.4 3.5 2.7 1.2 9.1 6.2 14.1 11.2 7.6 7.6 9.7 9 13.9 9 2.6 0 5.1-0.7 5.5-1.4 0.5-0.7 3-1.3 5.6-1.3 2.6 0 5.1-0.7 5.5-1.4 0.5-0.7 2.8-1.7 5.3-2 2.4-0.4 7.2-1.4 10.7-2.2 3.5-1 11.2-2.2 17.3-2.9 6.2-0.8 13.6-1.4 16.7-1.4 3 0 9.6 0.4 14.4 1.1 4.9 0.6 9 1.5 9.3 2.1 0.3 0.7 2.5 1.1 4.7 1.1 2.4 0 7.5 1.8 11.6 3.9 3.8 2.2 8.4 4.8 10 6.1 1.5 1.2 5.9 5 9.9 8.3 3.9 3.3 9.5 9 12.1 12.9 4.3 6 5 8.1 5 14.6 0 6.5-0.4 8.2-3.7 11.1-2.3 1.9-5.4 4.3-7.4 5.1-1.9 0.9-6.4 2.9-10.1 4.7-3.6 1.8-6.5 3.8-6.5 4.3 0 0.7-1.3 1.2-2.8 1.2-1.5 0-3.1 0.8-3.2 1.6-0.4 1.3-4.7 1.8-15 2.1-7.9 0.1-16.9 0.7-20 1.1-3 0.6-6.9 2.4-8.7 4-2.4 2.3-3.1 4.5-3.1 8.8 0 3.3-0.5 6.2-1.4 6.6-0.7 0.5-1.3 2.3-1.3 4.2 0 1.9-1.6 6.8-3.4 10.7-1.9 4.3-6.2 10-10.1 13.6-3.8 3.5-8.1 7.2-9.6 8.3-1.5 1.1-4.1 2.9-5.8 3.8-1.7 0.9-4 1.8-5.1 1.8-1.2 0-2.1 0.7-2.1 1.3 0 0.7-1.1 1.7-2.4 2-1.4 0.4-4.3 1.8-6.6 3.2-2.3 1.4-5.5 3.9-7.3 5.5-1.8 1.8-3.2 3.9-3.2 4.6 0 0.7-0.5 2.6-1.3 4.2-0.7 1.5-2 4-2.8 5.5-0.7 1.5-1.4 3.8-1.4 4.9 0 1.1-0.6 2.1-1.4 2.1-0.7 0-1.4 1.2-1.4 2.7 0 1.6-0.5 2.8-1.4 2.8-0.7 0-1.4 0.8-1.4 1.7 0 0.9-3 5.1-6.9 9-3.7 4-6.9 7.8-6.9 8.3 0 0.7-1.6 3.1-3.5 5.3-1.9 2.2-3.5 4.4-3.5 4.9 0 0.4-2.6 3.4-5.8 6.7-3.3 3.4-7.3 6.7-9 7.3-1.8 0.7-5 1.2-7.4 1.2-2.2 0-4.4 0.7-4.8 1.4-0.4 0.7-2.2 1.4-4.2 1.4-1.9 0-3.7 0.7-4.1 1.4-0.5 0.8-6.6 1.4-13.9 1.4-7.9 0-13.2 0.5-13.2 1.4 0 0.6-1.3 1.3-2.8 1.3-1.5 0-3 0.7-3.5 1.4-0.4 0.7-2 1.4-3.8 1.4-1.8 0-3.8 0.7-4.5 1.5-0.8 0.7-8.9 1.8-18 2.3-10.6 0.4-17.8 1.3-19.7 2.6-1.8 1.1-4.2 1.9-5.4 1.9-1.3 0-5 2.7-8.4 5.9-3.3 3.3-5.9 6.6-5.9 7.3 0 0.7-2.1 5.4-4.6 10.4-2.5 5-5.1 9.9-6 11-0.7 1.1-6.5 7.3-12.7 13.9-7 7.3-13.9 13.1-18.1 15.2-3.6 1.8-7.9 3.9-9.4 4.6-1.5 0.7-9 1-16.7 0.7-7.6-0.4-17.3-1.4-21.5-2.2-4.1-0.7-10.7-2.1-14.5-2.8-3.8-0.8-9.1-1.8-11.4-2.2-4.2-0.6-4.6-0.4-4.6 2.8 0 2.6 4.3 7.6 17.8 20.6 9.7 9.5 20.1 19.3 23.1 22 3.1 2.6 6.3 5 7 5.2 0.8 0.5 2.9 3.1 7.6 11.1l-2.8 2.8c-1.5 1.5-5.1 3.8-7.9 4.9-2.9 1.2-6.9 2-9 2-2.2 0-4.2 0.7-4.6 1.4-0.4 0.7-3.4 1.4-6.9 1.4-3.5 0-6.5-0.7-6.9-1.4-0.5-0.7-3-1.4-5.6-1.4-2.6 0-5.1-0.6-5.5-1.3-0.5-0.7-2.3-1.4-4.2-1.4-2.2 0-3.9-1-4.5-2.8-0.6-1.7-2.9-3.7-5.2-4.9-2.2-0.9-5.7-3.6-7.7-5.8-1.9-2.2-3.6-6-3.7-8.7-0.3-2.7-1-5.2-1.7-5.6-0.7-0.4-1.6-3.9-2-7.6-0.6-3.9-1-9.7-1.2-13.2 0-3.5 0.6-10.3 1.3-15.1 0.5-4.9 1.5-9 2.2-9.3 0.6-0.3 1-2.1 1-4 0-2 0.7-3.5 1.4-3.5 0.8 0 1.4-0.8 1.4-1.8 0-0.8 1.3-3.3 3.1-5.3 1.7-2.1 6.3-4.7 10-6.1 3.9-1.4 10.2-3 13.9-3.7 3.9-0.7 10.7-1.8 15.3-2.5 4.6-0.7 10.9-1.6 14.3-2 3.3-0.5 7.2-2.2 9-4 1.8-1.7 3.5-3.7 3.9-4.6 0.3-0.7 3-3.7 6.1-6.5 3-2.8 6.6-5 8-5.1 1.3 0 6.5-2 11.8-4.5 5.2-2.5 9.5-5 9.7-5.5 0.2-0.6 1.1-1.1 2.1-1.1 0.8 0 4.5-2.5 7.9-5.6 3.5-3 7-5.5 7.7-5.5 0.7 0 2.3-1.3 3.4-2.8 1.1-1.5 3.2-2.8 4.6-2.8 1.3 0 2.4-0.4 2.4-1.1-0.2-0.6 5.1-3.6 11.3-6.9 6.4-3.2 12.7-5.9 14.1-5.9 1.2 0 2.3-0.4 2.3-1.1 0-0.5 2.9-1.8 6.5-2.7 3.8-1.2 7.9-2.4 9.5-3.1 1.5-0.6 5.5-1.8 9-2.8 3.5-0.9 8.3-2.3 10.8-2.9 2.4-0.7 6.5-1.8 9-2.6 2.4-0.7 7.3-1.4 10.7-1.4 3.5 0 8.9-1.3 12.2-2.8 3.2-1.5 7.1-2.8 8.8-2.8 1.5 0 3.6-0.8 4.4-1.8 1-0.8 2.5-3.3 3.5-5.5 0.8-2.1 2.2-5.2 2.9-7 0.5-1.6 3.3-7.2 5.8-12.4 2.7-5.2 5.2-9.3 5.9-9.3 0.5 0 0.9-1.2 0.9-2.5 0-1.3 1.3-3.4 2.8-4.5 1.5-1.1 2.8-3 2.8-4.1 0-1.2 1.2-3.1 2.7-4.2 1.6-1.1 2.8-3.2 2.8-4.6 0-1.2 0.7-2.3 1.4-2.3 0.7 0 1.7-1.3 2.1-2.8 0.4-1.5 2.1-4.2 3.9-6 1.8-1.6 4-4.4 4.8-6.2 1-1.7 4.1-5.7 7-8.9 2.7-3.1 8.6-9.2 12.9-13.5 4.3-4.3 10.4-10.1 13.4-13 3.2-2.8 7.4-6 9.3-6.9 2-0.9 3.5-2.1 3.5-2.8 0-0.6 1-1 2.1-1 1.1 0 3.5-1.2 5.3-2.8 1.6-1.5 3.8-2.7 4.8-2.7 0.8 0 1.7-0.7 1.7-1.4 0-0.7 1.2-1.4 2.8-1.4 1.5 0 2.7-0.7 2.7-1.4 0-0.7 1.3-1.4 2.8-1.4 1.5 0 2.8-0.7 2.8-1.4 0-0.7 1.2-1.4 2.8-1.4 1.5 0 2.7-0.7 2.7-1.4 0-0.7 1.6-1.3 3.5-1.3 1.9 0 3.7-0.7 4.2-1.4 0.4-0.7 2.6-1.4 4.8-1.4 2.4 0 5.4-0.7 7-1.4 1.5-0.7 2.7-1.8 2.7-2.5 0-0.6-1.8-2.1-4.1-3.5-3.1-1.6-7.4-2.3-16.3-2.3-8.4 0-13 0.5-15 1.9-1.5 1.1-4.3 1.7-6.2 1.3-1.9-0.5-8.5 0.9-14.6 3-6.1 2.1-11.6 4.6-12.5 5.7-1.1 1.4-7.2 2.1-48.5 3.6l-7.7-4.2c-5.5-2.9-8-5.2-9-8.3-0.7-2.2-2.9-5.8-4.8-7.9-2-2.1-5.9-5-8.6-6.4-2.9-1.4-5.7-2.5-6.3-2.3-0.7 0-3.3-0.9-5.9-2.1-2.7-1.1-7.7-3.3-11.1-4.9-3.5-1.5-8-4.3-10-6.4-2.3-1.9-3.9-4.5-3.9-5.6 0-1.2-1-3.8-2.1-6-1.5-2.9-1.7-4.7-0.4-8.6 0.8-2.6 2.1-6.3 2.6-8.1 0.7-1.6 3.3-3.8 5.8-5 2.5-1.1 9.3-2 16-2zm23.9 294.7c3.4 0.3 9.4 1.1 13.2 1.9 3.7 0.7 8.8 1.8 11.1 2.2 2.2 0.6 6.2 2 8.7 3.2 2.4 1.3 4.4 3.2 4.4 4.2 0 0.8 0.7 1.7 1.4 1.7 0.7 0 3.4 1.9 5.6 4.1 2.2 2.3 4.8 4.2 5.5 4.2 0.7 0 2.2 1.1 3.1 2.6 0.9 1.4 5 6.1 8.7 10.6 3.8 4.3 8.9 9.8 11.1 12.3 2.2 2.5 5.7 9.2 11.1 24.6l-3.4 6.4c-2 3.6-4.6 6.6-5.9 6.9-1.4 0.3-2.5 1.1-2.5 1.8 0 0.7-1.5 1.4-3.4 1.4-2 0-3.8 0.7-4.2 1.4-0.4 0.7-2.2 1.4-4.2 1.4-1.9 0-3.7-0.7-4.1-1.4-0.4-0.7-2.3-1.4-4.2-1.4-1.9 0-4.6-0.8-5.8-1.7-1.3-0.9-10.4-10-20.4-20.1-10-10-20.1-19.1-22.4-20.2-2.2-1.3-6.9-3.1-10.4-4.3-3.4-1.3-7.9-2.3-10-2.3-2.2 0-4.8 0.3-5.9 0.7-1.6 0.6-2.1 2.9-2.1 9 0 6.8-0.7 9.5-4 14.3-2.1 3.2-6 7.5-8.6 9.8-2.7 2-5.4 4.3-6.1 4.8-0.7 0.6-4.2 1.9-7.7 2.9-3.4 1.1-6.8 2.5-7.5 3.2-0.8 0.6-2.5 1.1-3.8 1.1-1.4 0-3.7 0.6-4.9 1.3-1.4 0.7-4.4 1.9-6.7 2.9-2.2 1-5.2 2.2-6.5 2.9-1.4 0.7-3.7 1.2-5.3 1.2-1.5 0-2.7 0.7-2.7 1.4 0 0.7-1.3 1.4-2.8 1.4-1.5 0-2.8 0.7-2.8 1.4 0 0.7-1.2 1.4-2.8 1.4-1.5 0-3 0.7-3.4 1.4-0.4 0.7-4.1 1.4-7.9 1.4-4.2 0-8.2-0.7-9.2-1.7-1.1-1.1-1.7-5.5-1.7-11.8 0-5.5 0.5-10.4 1.1-10.7 0.6-0.2 2-3.7 3.1-7.6 1.1-3.9 2.5-7.1 3.2-7.1 0.5 0 1-0.8 1-1.6 0-1 1.2-3.2 2.7-4.9 1.6-1.8 2.8-3.9 2.8-4.6 0-0.7 5.4-6.9 12.2-13.7 6.7-6.7 13.5-12.6 15.3-13.2 1.7-0.4 3-1.5 3-2.2 0-0.7 6.4-4.5 14.2-8.1 7.9-3.7 17.1-7.5 20.5-8.4 3.5-1 7.4-2.4 8.8-3.1 1.2-0.7 5-1.2 8.2-1.4 3.3 0 8.4-0.5 11.5-1.2 3-0.7 8.3-1 11.8-0.7zm995.3-486.4c0.8 0 4.1 1.7 7.2 3.9 3.1 2.1 7.5 5.3 9.7 7.1 2.4 1.9 13.5 12.9 25 24.4 11.4 11.5 24.3 25.7 28.7 31.4 4.3 5.7 11.7 16.5 16.5 24.1 4.9 7.7 11.7 20.4 15.3 28.5 3.5 8 8.3 21.1 10.7 29.1 2.3 8.1 4.8 17.6 5.5 21.5 0.9 3.8 2.2 11.9 3.1 18.1 0.9 6.8 1.4 20.2 0.9 34.6-0.4 12.9-1.2 28.4-1.9 34-0.7 5.7-2.1 12.1-2.9 14.2-1 2.2-3.1 4.6-4.9 5.4-2.7 1.4-3.8 0.7-11.3-7.3-4.6-5-13.1-14.5-18.8-21.1-5.7-6.6-13.6-15.7-17.3-20.2-3.9-4.4-8.5-10.5-10.4-13.3-2-2.8-5.4-7.5-7.7-10.2-2.3-2.8-7-9.5-10.6-14.8-3.5-5.4-9.9-16.2-14.1-24.2-4.3-8.1-10.4-20.6-13.6-27.8-3-7.2-6.2-15.4-7-18-0.7-2.7-2-8.1-2.7-11.8-0.5-3.9-1.8-10.4-2.6-14.6-0.8-4.2-2.2-15.1-2.9-24.3-0.9-9.1-1.4-19.1-1.4-22.2-0.1-3 0.1-13.2 0.5-22.3 0.5-12.6 1.2-17.9 3-20.6 1.2-1.9 3-3.6 4-3.6zm-1346.5 0c1.2-0.1 3.2 1 4.3 2.3 1.1 1.2 2.6 7 3.3 12.9 0.6 5.8 1.1 21.7 1.3 35.5 0 13.7-0.7 29.7-1.6 35.4-0.8 5.7-2.1 13.1-2.9 16.6-0.7 3.5-1.8 8.2-2.2 10.4-0.6 2.2-1.4 5.4-2.1 7-0.5 1.5-1.8 5-2.8 7.6-0.9 2.6-2.2 6.2-2.9 8-0.7 1.7-1.8 4.5-2.5 6.3-0.7 1.7-4.3 9.3-7.9 16.9-3.7 7.5-7.5 14.4-8.2 15.3-0.7 0.7-2.9 4.1-4.8 7.6-1.8 3.5-4.5 7.5-5.9 9-1.3 1.6-2.5 3.5-2.5 4.2 0 0.7-1.2 2.4-2.7 3.5-1.6 1.1-2.8 2.7-2.8 3.4 0 0.7-1.1 2.7-2.4 4.2-1.4 1.5-4.4 5.3-6.6 8.3-2.2 3.1-5.4 6.8-7 8.3-1.5 1.6-3.7 4.2-4.8 5.7-1.1 1.7-5.6 6.7-9.7 11.3-4.2 4.4-11.1 12-15.3 16.9-4.2 4.9-9.3 9.9-11.5 11.1-2.1 1.3-3.8 3.1-3.8 4 0 0.9-1.9 2.8-4.1 4.2-2.4 1.2-4.2 2.6-4.2 3 0 0.5-1.5 1.6-3.5 2.5-1.9 0.9-4.3 1.4-5.1 1-1-0.4-2.6-2.5-3.6-4.6-1.2-2.6-1.7-13-1.7-36.3 0-27.1 0.3-33.6 2.3-38.2 1.3-3.3 1.9-7.5 1.5-10.4-0.4-2.6-0.3-5.5 0.3-6.2 0.5-0.7 1.9-6.1 2.7-11.8 1-5.7 2.4-11.7 3-13.2 0.5-1.5 1.8-5.6 2.7-9 0.9-3.5 2.2-7.4 2.9-8.6 0.7-1.4 1.3-3.8 1.3-5.3 0-1.5 0.7-2.8 1.4-2.8 0.8 0 1.4-1.2 1.4-2.8 0-1.5 0.7-3 1.4-3.4 0.8-0.4 1.3-2.2 1.3-4.2 0-1.9 0.7-3.5 1.4-3.5 0.9 0 1.4-1.2 1.4-2.7 0-1.6 0.7-2.8 1.4-2.8 0.8 0 1.4-1.3 1.4-2.8 0-1.5 0.7-2.8 1.4-2.8 0.8 0 1.4-1.2 1.4-2.7 0-1.6 0.7-2.8 1.4-2.8 0.8 0 1.3-1 1.3-2.1 0-1.1 1.3-3.5 2.8-5.1 1.5-1.8 2.8-4 2.8-4.9 0-0.9 0.7-1.8 1.4-1.8 0.8 0 1.6-1.1 1.9-2.3 0.4-1.4 1.8-4.3 3.2-6.7 1.4-2.2 3.6-5.3 5-6.9 1.3-1.6 2.4-3.5 2.5-4.2 0-0.7 1.1-2.4 2.4-3.5 1.4-1.1 4-4.3 5.8-6.9 1.8-2.6 4.3-5.8 5.5-6.9 1.2-1.2 4.1-4.6 6.3-7.7 2.2-3 8.2-9.6 13.2-14.4 5-4.9 11.8-11.1 15.2-13.9 3.5-2.8 7.3-6 8.4-7.2 1.1-1.3 4.8-4.2 8.1-6.5 3.5-2.5 7.3-4.5 8.4-4.5zm481.6-29.7c7.2 0.3 19.7 1.2 27.8 2 8 0.7 19.5 1.9 25.6 2.6 6.1 0.9 15.4 2.1 20.8 2.8 5.5 0.8 13.5 1.9 18.1 2.8 4.6 0.7 9.8 1.8 11.8 2.2 1.9 0.4 5.9 1.5 9 2.4 3 0.9 7.2 2.7 9.4 4.1 2.1 1.4 4.7 4.6 6.1 7 1.6 3.3 2.3 8.3 2.3 17.7 0 11.1-0.5 14.3-3.4 20-2.1 4.3-8.3 11.8-30.4 33.4v14.2c0 7.9-0.5 15.7-1.2 17.3-0.7 1.8-2.1 6-3.1 9.5-0.9 3.4-2.2 6.9-2.9 7.6-0.7 0.7-1.1 2.4-1.1 3.5-0.1 1.1-1.8 5.5-3.9 9.7-2.2 4.1-4.8 9.1-5.8 10.9-1.1 2-3.2 4.8-4.6 6.3-1.2 1.7-2.3 3.3-2.3 3.9 0 0.7-1.7 3-3.8 5.5-2.2 2.4-7.3 7.9-11.5 12.1-4.2 4.3-9 8.9-10.8 10.1-1.7 1.4-4.1 2.5-5.2 2.5-1.1 0-2.3 0.7-2.7 1.4-0.5 0.7-2.3 1.4-4.2 1.4-1.9 0-4.7 0.7-6.2 1.4-2 1-4.2 0.8-7.7-0.7-4-1.7-5.2-3.3-6.9-8.7-1.1-3.7-3.2-8.1-4.6-10-1.5-2-3.9-6-5.5-9.1-1.6-3-6.3-9.4-10.6-14.3-6.8-7.4-8.7-8.7-14.7-9.9-6.2-1.3-7.4-1.2-11.4 1.6-2.5 1.8-4.7 3.6-4.8 4.2-0.3 0.7-1.4 1.1-2.5 1.1-1.3 0-3.8 1.5-5.6 3.5-2.5 2.3-3.4 5-3.4 8.6 0 2.9-0.7 7.5-1.6 10.1-0.9 2.6-2.6 7.1-3.9 9.7-1.2 2.6-3.7 5.6-5.4 6.3-1.6 0.6-3 1.8-3 2.3 0 0.7-2.2 1.1-4.9 1.1-2.6 0-5.1 0.7-5.5 1.4-0.4 0.7-2.1 1.4-3.8 1.4-1.8 0-4.1-0.8-5.4-1.8-1.9-1.4-2.3-4.2-2.2-14.9 0-7.2-0.6-20.4-1.3-29.1-0.8-8.7-1.9-16.9-2.6-18-0.7-1.1-1.1-4.6-1-7.7 0.3-3-0.8-9.3-2.3-13.8-2-6-4.5-9.9-8.4-13.6-4-3.5-6.9-5.2-9.8-5.2-2.2 0-5.6-0.7-7.2-1.5-2.5-1.2-4.9-1-10.8 1-4.3 1.4-9.9 4.4-17.4 11.6l-11.8-0.8c-6.6-0.6-12.7-1.7-13.9-2.8-1.1-0.9-4.5-1.9-7.6-1.9-3 0-9-1-13.2-2.2-4.1-1.3-9.5-2.5-11.8-3.1-2.2-0.4-6.5-2.4-9.4-4.3-3.5-2.4-6-5.5-7.4-9.2-1.1-3.3-1.5-7.4-0.9-10.4 0.5-2.7 2.9-6.8 5.4-9.4 2.6-2.4 5.5-4.4 6.8-4.4 1.1 0 2.1-0.6 2.1-1.4 0-0.9 2-1.8 4.4-2.4 2.5-0.4 16.1-0.8 30.3-0.8 14.1 0 36.9 0.7 50.6 1.7 13.7 0.8 28.7 2 33.3 2.7 4.6 0.7 10.6 1.8 13.2 2.7 2.6 0.7 7.3 2.6 10.4 4.1 3 1.7 7.1 4.7 9 6.8 2 2.1 4.3 5.6 5.1 7.7 1 2.2 1.9 6.1 1.9 8.7 0 2.6 0.6 6.5 1.5 8.6 0.8 2.2 2.3 5.4 3.2 7.4 0.8 1.9 2.7 5 4.3 6.8 1.5 1.9 4.3 4.9 6.2 6.8 2 1.9 5.8 4.8 8.6 6.6 4.2 2.6 7.2 3.3 13.9 3.3 4.8 0 11 0.9 13.6 1.8 2.6 1 7.2 3.1 10.1 4.6 2.8 1.4 5.2 3.1 5.2 3.6 0 0.7 0.9 1.1 2 1.1 1.1 0 3.8 2.1 5.9 4.6 2.2 2.7 5.1 6.3 6.6 8.2 1.6 2 4 3.8 5.6 4.3 1.5 0.4 3.9 0 5.4-0.8 2.1-1.4 2.3-2.5 1.5-5.8-0.5-2.3-0.8-9.8-0.8-16.7 0.1-6.9 1-14.7 1.8-17.3 0.8-2.7 2.6-8.1 4.1-11.8 1.4-3.9 4.5-9.5 6.7-12.5 2.4-3.1 5-7.5 6.1-9.7 1.1-2.3 4.7-6.4 8.1-9.2 3.3-2.8 7.6-7.9 9.7-11.4 2.2-3.6 3.6-7.1 3.2-7.9-0.5-0.8-3.1-2.5-5.9-3.7-2.9-1.3-8-2.8-11.5-3.4-3.4-0.5-8.7-1.6-11.8-2.5-3-0.7-8-2-11.1-2.9-3-0.8-8-2.2-11.1-2.9-3-0.8-8-1.9-11.1-2.6-3-0.7-8.3-2-11.8-2.8-3.4-0.8-8.4-2.1-11.1-2.6-2.6-0.6-7-2.1-9.7-3.2-2.6-1.1-6.9-4.3-9.3-7.1-2.8-3.2-4.6-6.7-4.6-9 0-2.1-0.4-6-0.8-8.6-0.5-3.8 0-5.6 2.5-8.4 1.8-1.9 5.1-4.3 7.4-5.1 2.6-1 9.1-1.4 17.3-1zm197.7-113.9c32.9 0.3 65.7 1.1 72.9 2 7.2 0.7 18.4 2 25 2.7 6.5 0.9 19 2.4 27.7 3.5 8.8 1.1 17.5 2.6 19.4 3.5 2 0.7 3.8 1.1 4.2 0.8 0.4-0.3 6 0.3 12.5 1.3 6.5 0.9 13.2 2.5 14.8 3.4 1.8 0.9 6.1 1.6 9.7 1.6 3.8 0 7.4 0.4 8.1 1.1 0.7 0.7 4.9 1.9 9 2.9 4.2 0.9 12.6 3.3 18.7 5.1 6.2 1.7 16.4 4.9 22.9 6.8 6.6 2 13.1 4.2 14.6 4.7 1.5 0.7 9 3.2 16.7 5.7 7.6 2.5 17.6 6.1 22.2 7.9 4.5 2 11.6 5 15.5 6.8 4 1.8 7.8 3.4 8.3 3.4 0.7 0 5 1.8 9.7 4.1 4.9 2.2 9.1 4.2 9.5 4.2 0.4 0 9 4 19 9 10.1 5 21.2 10.7 24.7 12.6 3.5 2 12.2 7.1 19.4 11.3 7.2 4.1 23.2 14.3 35.4 22.3 12.2 8.1 32.2 22.2 44.4 31.6 12.2 9.3 26 20.2 30.5 23.9 4.6 3.9 8.8 6.7 9.3 6.4 0.7-0.3 4.5 3.3 8.6 8 4.1 4.9 8.2 11 9.2 13.6 1.5 4.1 1.5 5.9-0.2 11-1.1 3.5-3.7 7.9-5.8 10.1-2.2 2.1-4.7 3.9-5.5 3.9-1-0.1-2.7 0.9-3.8 2.1-1.5 1.7-4.7 2.2-22.2 2.1l-8.3-7.4c-4.6-3.9-10.7-9.1-13.5-11.6-2.9-2.4-7.6-6-10.5-7.9-2.8-2-5.3-3.6-5.6-3.6-0.1 0.1-2.7-2.3-5.8-5-3-2.8-7.8-6.6-10.4-8.4-2.6-1.9-7.3-5.2-10.4-7.5-3.1-2.3-14.3-10-25-17-10.7-7.2-21.6-14.3-24.3-16-2.6-1.5-12.9-7.3-22.9-12.9-9.9-5.5-28-14.8-40.2-20.7-12.2-5.8-27.5-12.9-34-15.5-6.5-2.8-17.1-6.9-23.6-9.4-6.5-2.5-15-5.6-18.7-7-3.9-1.4-9.2-3.2-11.8-4-2.6-0.8-8.1-2.5-11.8-3.7-3.9-1.3-9-2.8-11.5-3.5-2.4-0.7-6.7-2-9.3-2.7-2.7-0.8-7.2-2-10.1-2.9-2.8-0.8-7.7-2.1-10.7-2.7-3.1-0.9-8.1-2-11.1-2.7-3.1-0.7-8.8-1.9-12.5-2.8-3.9-0.8-10.1-2-13.9-2.7-3.9-0.7-10.4-2-14.6-2.8-4.1-0.8-11.6-2.1-16.6-2.9-5-0.7-13.8-2-19.4-2.8-5.7-0.7-17.4-1.9-25.7-2.8-8.3-0.8-40-1.6-70.1-1.9-45.4-0.3-55.6 0-59.6 1.7-3.5 1.3-7.5 1.8-13.9 1.1-6.7-0.7-10.4-0.3-14.3 1.2-3.5 1.5-7.2 2-11.8 1.4-3.9-0.6-8.2-0.1-10.7 1-2.2 0.9-8.5 1.6-13.9 1.5-5.4 0-10.9 0.6-12.5 1.4-1.5 0.8-5.2 1.6-8.3 1.9-3 0.2-9 1-13.2 1.8-4.1 0.7-10.2 2-13.6 2.8-3.2 0.8-8.4 2.2-11.8 3.1-3.2 0.7-8.3 1.9-11.3 2.6-3.1 0.7-8.1 1.8-11.1 2.6-3.1 0.7-7.9 2-10.9 2.8-2.7 0.8-7.2 2.1-9.7 2.8-2.3 0.7-6.8 1.9-9.7 2.8-2.8 0.8-5.1 2-5.1 2.9 0 0.7-1.7 1.2-3.9 1.2-2.1-0.1-6.9 1-11 2.4-3.9 1.4-7.9 3.4-8.9 4.3-0.9 1-2.9 1.8-4.3 1.8-1.3 0-5.6 1.4-9.4 3-3.9 1.8-7.1 3.6-6.9 4.2 0 0.7-1.6 1.1-3.5 1.1-1.9 0-3.7 0.6-4.2 1.4-0.4 0.7-1.9 1.4-3.4 1.4-1.6 0-2.8 0.5-2.8 1.4 0 0.7-2.4 1.8-5.1 2.2-3 0.5-18.1 7.3-33.8 15.4-15.6 7.9-34.4 17.9-41.6 21.9-7.2 4-15.9 9-19.4 11.1-3.5 2-8.8 5.2-11.8 7-3.1 1.8-6.4 3.8-7.4 4.7-0.8 0.8-3.1 2.3-5.1 3.2-1.9 0.9-3.5 2.2-3.5 2.7 0 0.7-2.9 3-6.6 5.2-3.6 2.2-8.1 5.4-10 7.1-2 1.5-4.3 2.7-5.3 2.7-0.8 0-4.1 2.1-7.1 4.5-3 2.5-7.7 6.1-10.5 8-2.8 2-8.3 6.1-12.2 9.3-4 3.3-8.3 6.8-9.7 8.1-1.3 1.1-3.1 2-3.8 2-0.7 0-1.5 0.6-1.8 1.3-0.1 0.8-3.4 1.8-7.2 2.2-6.7 0.8-7.4 0.7-16.6-6-9.3-6.6-9.8-7-10.9-14-0.8-6.1-0.5-7.7 2.1-11.6 1.7-2.4 6.5-7.8 10.8-11.8 4.2-3.9 8.1-7.2 8.6-7.2 0.7 0 3.8-2.5 7-5.6 3.3-3.2 6.4-5.7 6.9-5.5 0.7 0 3.2-2 5.6-4.2 2.5-2.4 5.2-4.2 5.9-4.2 0.7 0 2.1-1.2 2.8-2.7 0.8-1.6 2.6-2.8 4.2-2.8 1.5 0 4.5-2 6.9-4.2 2.2-2.3 4.4-4.1 4.9-4.1 0.4 0 2.9-2 5.5-4.2 2.6-2.2 5.7-4.2 6.5-4.2 1 0 1.8-0.7 1.8-1.4 0-0.8 1-1.3 2.1-1.3 1.3 0 3.5-1.3 5-2.8 1.5-1.5 3.1-2.8 3.3-2.8 0.5 0 4.5-2.5 9.1-5.5 4.5-3.1 9-5.6 9.7-5.6 0.7 0 1.4-0.4 1.4-1.1 0-0.6 1.4-1.7 3.2-2.4 1.6-0.8 5.8-3 9.3-4.8 3.4-2 6.5-3.8 6.9-4.2 0.4-0.4 6-3.4 12.5-6.8 6.5-3.3 15.5-7.9 20.1-10.2 4.6-2.3 13.3-6.6 19.4-9.5 6.1-2.9 12-5.4 12.8-5.4 1 0 1.8-0.7 1.8-1.4 0-0.8 0.8-1.4 1.7-1.4 0.9 0 3.7-0.8 5.9-1.9 2.2-1 6.7-2.9 9.7-4.3 3.1-1.3 6.7-2.9 8.1-3.6 1.2-0.7 3.5-1.3 4.8-1.3 1.4 0 3.1-0.5 3.9-1.2 0.7-0.7 6-2.9 11.7-5 5.7-2 13.4-4.6 17.3-5.8 3.8-1.2 8.1-2.7 9.3-3.4 1.4-0.7 3.5-1.2 4.6-1.2 1.1 0 3.2-0.6 4.4-1.3 1.4-0.7 5.3-2 8.8-2.9 3.5-1 7.5-2.2 9-2.8 1.5-0.7 4.3-1.5 6.3-2 1.9-0.5 5.6-1.6 8.3-2.3 2.6-0.8 7.3-2 10.4-2.7 3-0.9 8-2 11.1-2.5 3-0.7 9-2.1 13.2-3.2 4.1-1.1 11.1-2.8 15.2-3.6 4.2-0.9 9.6-1.8 11.8-2.3 2.2-0.2 8.5-1.5 13.9-2.6 5.4-1.1 15.3-2.8 22.2-3.7 6.9-0.9 17.2-2.1 22.9-2.8 5.7-0.8 16.4-2 23.6-2.6 7.2-0.7 40.1-1 72.8-0.9z"/>
</svg>